<svg width="162" height="48" viewBox="0 0 162 48" fill="none" xmlns="http://www.w3.org/2000/svg">
<rect x="0.75" y="0.75" width="160.5" height="46.5" rx="9.25" stroke="#0E0E0E" stroke-width="1.5"/>
<path d="M40.1539 23.2074C40.1671 22.1834 40.4391 21.1794 40.9446 20.2887C41.4501 19.3981 42.1726 18.6498 43.045 18.1135C42.4908 17.322 41.7597 16.6706 40.9097 16.2111C40.0597 15.7515 39.1143 15.4965 38.1485 15.4663C36.0884 15.2501 34.0912 16.6992 33.0413 16.6992C31.9712 16.6992 30.3548 15.4878 28.6142 15.5237C27.4884 15.5601 26.3912 15.8874 25.4295 16.4739C24.4678 17.0604 23.6745 17.886 23.1267 18.8703C20.754 22.9783 22.5239 29.0155 24.7967 32.3362C25.9338 33.9622 27.2628 35.7784 29.0018 35.714C30.7035 35.6435 31.3391 34.6289 33.3931 34.6289C35.4282 34.6289 36.0245 35.714 37.7987 35.6731C39.6248 35.6435 40.7753 34.0399 41.8725 32.3985C42.6895 31.2399 43.3182 29.9594 43.7353 28.6044C42.6745 28.1557 41.7692 27.4046 41.1323 26.4449C40.4954 25.4852 40.1551 24.3592 40.1539 23.2074ZM36.8026 13.2826C37.7983 12.0873 38.2888 10.5511 38.17 9C36.6489 9.15979 35.2439 9.8868 34.2349 11.0362C33.7415 11.5976 33.3636 12.2509 33.1228 12.9585C32.8821 13.6661 32.7831 14.4142 32.8316 15.1601C33.5925 15.1679 34.3452 15.003 35.033 14.6778C35.7209 14.3525 36.3259 13.8756 36.8026 13.2826ZM60.5699 31.7611H54.9856L53.6446 35.7208H51.2791L56.5686 21.0705H59.0261L64.3155 35.7208H61.9099L60.5699 31.7611ZM55.5639 29.9337H59.9904L57.8083 23.5073H57.7472L55.5639 29.9337ZM75.7387 30.3809C75.7387 33.7 73.9621 35.8326 71.2812 35.8326C70.602 35.8681 69.9266 35.7116 69.3323 35.3811C68.7379 35.0507 68.2486 34.5595 67.9205 33.9638H67.8698V39.2544H65.6771V25.0396H67.7994V26.8162H67.8398C68.183 26.2234 68.6806 25.7347 69.2795 25.4022C69.8783 25.0697 70.5562 24.9058 71.2408 24.9278C73.9517 24.9278 75.7387 27.0709 75.7387 30.3809ZM73.4851 30.3809C73.4851 28.2183 72.3676 26.7966 70.6625 26.7966C68.9872 26.7966 67.8605 28.2482 67.8605 30.3807C67.8605 32.533 68.9872 33.9743 70.6625 33.9743C72.3676 33.9743 73.4851 32.5631 73.4851 30.3809ZM87.4955 30.3809C87.4955 33.7 85.7184 35.8326 83.0373 35.8326C82.3582 35.8681 81.6828 35.7116 81.0884 35.3811C80.4941 35.0507 80.0048 34.5595 79.6767 33.9638H79.6259V39.2544H77.4334V25.0396H79.5556V26.8162H79.596C79.9392 26.2234 80.4368 25.7347 81.0356 25.4022C81.6345 25.0697 82.3124 24.9058 82.997 24.9278C85.708 24.9278 87.4955 27.0709 87.4955 30.3809ZM85.2414 30.3809C85.2414 28.2183 84.1238 26.7966 82.4187 26.7966C80.7434 26.7966 79.6167 28.2482 79.6167 30.3807C79.6167 32.533 80.7434 33.9743 82.4187 33.9743C84.1238 33.9743 85.2414 32.5631 85.2414 30.3809ZM95.2643 31.639C95.4267 33.0917 96.8381 34.0457 98.7666 34.0457C100.615 34.0457 101.944 33.0917 101.944 31.7817C101.944 30.6445 101.142 29.9637 99.2437 29.4971L97.345 29.0397C94.6548 28.3899 93.4059 27.1318 93.4059 25.0902C93.4059 22.5624 95.6087 20.8263 98.7356 20.8263C101.832 20.8263 103.955 22.5624 104.026 25.0902H101.813C101.68 23.6282 100.472 22.7456 98.7056 22.7456C96.9394 22.7456 95.7309 23.6386 95.7309 24.9381C95.7309 25.9739 96.5028 26.5834 98.3911 27.0499L100.005 27.4463C103.011 28.1571 104.259 29.3646 104.259 31.5074C104.259 34.2484 102.077 35.9651 98.6042 35.9651C95.3551 35.9651 93.1615 34.2886 93.0199 31.6388L95.2643 31.639ZM108.993 22.5119V25.0396H111.024V26.7758H108.993V32.6643C108.993 33.5791 109.4 34.0053 110.293 34.0053C110.534 34.0011 110.774 33.9842 111.014 33.9546V35.6806C110.612 35.7556 110.204 35.7895 109.796 35.7818C107.633 35.7818 106.79 34.9697 106.79 32.8981V26.7758H105.237V25.0396H106.79V22.5119H108.993ZM112.199 30.3809C112.199 27.02 114.179 24.9083 117.265 24.9083C120.362 24.9083 122.332 27.02 122.332 30.3809C122.332 33.7508 120.372 35.8533 117.265 35.8533C114.159 35.8533 112.199 33.7508 112.199 30.3809ZM120.098 30.3809C120.098 28.0755 119.042 26.7147 117.265 26.7147C115.489 26.7147 114.432 28.0857 114.432 30.3809C114.432 32.6954 115.489 34.0457 117.265 34.0457C119.042 34.0457 120.098 32.6954 120.098 30.3809ZM124.14 25.0396H126.231V26.8576H126.282C126.423 26.2898 126.756 25.788 127.224 25.4366C127.692 25.0851 128.266 24.9055 128.851 24.9278C129.104 24.9269 129.355 24.9544 129.602 25.0096V27.0604C129.283 26.9629 128.95 26.9182 128.617 26.9279C128.298 26.915 127.981 26.9711 127.686 27.0925C127.391 27.2139 127.126 27.3976 126.909 27.6311C126.692 27.8646 126.528 28.1422 126.429 28.445C126.329 28.7479 126.296 29.0686 126.332 29.3854V35.7208H124.14V25.0396ZM139.711 32.5836C139.416 34.5227 137.527 35.8533 135.111 35.8533C132.004 35.8533 130.075 33.7715 130.075 30.4315C130.075 27.0812 132.015 24.9083 135.019 24.9083C137.974 24.9083 139.833 26.9383 139.833 30.1769V30.928H132.289V31.0605C132.254 31.4536 132.303 31.8497 132.433 32.2223C132.563 32.5949 132.771 32.9356 133.043 33.2218C133.314 33.5079 133.644 33.733 134.009 33.882C134.375 34.031 134.768 34.1006 135.162 34.086C135.68 34.1346 136.2 34.0146 136.645 33.7439C137.089 33.4732 137.434 33.0662 137.629 32.5836H139.711ZM132.299 29.3957H137.639C137.659 29.0423 137.605 28.6886 137.482 28.3568C137.358 28.025 137.168 27.7224 136.922 27.4678C136.676 27.2133 136.38 27.0123 136.052 26.8775C135.725 26.7428 135.373 26.6771 135.019 26.6848C134.662 26.6826 134.308 26.7512 133.978 26.8866C133.648 27.022 133.347 27.2214 133.094 27.4735C132.841 27.7255 132.641 28.0251 132.504 28.3551C132.368 28.685 132.298 29.0387 132.299 29.3957ZM55.2897 10.043C55.7494 10.01 56.2107 10.0795 56.6402 10.2463C57.0698 10.4132 57.457 10.6733 57.7739 11.0079C58.0907 11.3426 58.3294 11.7433 58.4726 12.1814C58.6158 12.6194 58.66 13.0838 58.6021 13.5409C58.6021 15.7898 57.3865 17.0826 55.2897 17.0826H52.747V10.0429L55.2897 10.043ZM53.8404 16.087H55.1676C55.4961 16.1066 55.8248 16.0527 56.1298 15.9293C56.4348 15.8059 56.7084 15.616 56.9308 15.3735C57.1532 15.131 57.3187 14.8419 57.4152 14.5274C57.5118 14.2128 57.537 13.8807 57.4891 13.5552C57.5336 13.231 57.5058 12.9009 57.4077 12.5887C57.3097 12.2764 57.1438 11.9898 56.9219 11.7492C56.7 11.5086 56.4277 11.32 56.1244 11.1971C55.8211 11.0741 55.4944 11.0197 55.1676 11.0378H53.8404V16.087ZM59.8372 14.424C59.8038 14.0749 59.8437 13.7226 59.9544 13.3899C60.0651 13.0571 60.2441 12.7511 60.48 12.4916C60.7159 12.232 61.0034 12.0247 61.3241 11.8828C61.6449 11.7409 61.9917 11.6676 62.3424 11.6676C62.6931 11.6676 63.04 11.7409 63.3607 11.8828C63.6814 12.0247 63.9689 12.232 64.2048 12.4916C64.4407 12.7511 64.6197 13.0571 64.7304 13.3899C64.8411 13.7226 64.8811 14.0749 64.8477 14.424C64.8818 14.7735 64.8424 15.1263 64.732 15.4597C64.6217 15.7931 64.4427 16.0997 64.2068 16.3598C63.9708 16.6199 63.6831 16.8278 63.362 16.97C63.0409 17.1123 62.6936 17.1858 62.3424 17.1858C61.9912 17.1858 61.6439 17.1123 61.3228 16.97C61.0017 16.8278 60.714 16.6199 60.478 16.3598C60.2421 16.0997 60.0632 15.7931 59.9528 15.4597C59.8424 15.1263 59.803 14.7735 59.8372 14.424ZM63.7693 14.424C63.7693 13.2724 63.252 12.599 62.3442 12.599C61.4328 12.599 60.9202 13.2724 60.9202 14.424C60.9202 15.5848 61.4329 16.253 62.3442 16.253C63.252 16.253 63.7693 15.5802 63.7693 14.424ZM71.5082 17.0825H70.4204L69.3225 13.1699H69.2396L68.1463 17.0825H67.069L65.6047 11.77H66.668L67.6198 15.8237H67.6981L68.7903 11.77H69.7961L70.8883 15.8237H70.9712L71.9182 11.77H72.9667L71.5082 17.0825ZM74.1983 11.7701H75.2076V12.614H75.2859C75.4188 12.3109 75.643 12.0568 75.9272 11.8871C76.2113 11.7174 76.5414 11.6406 76.8713 11.6675C77.1298 11.648 77.3893 11.687 77.6307 11.7815C77.8721 11.876 78.0891 12.0236 78.2657 12.2134C78.4423 12.4031 78.5739 12.6302 78.6508 12.8777C78.7277 13.1252 78.748 13.3869 78.7101 13.6433V17.0824H77.6616V13.9067C77.6616 13.053 77.2906 12.6284 76.5152 12.6284C76.3397 12.6202 76.1645 12.6501 76.0017 12.716C75.8388 12.7818 75.6921 12.8821 75.5716 13.01C75.4511 13.1379 75.3597 13.2903 75.3037 13.4568C75.2476 13.6233 75.2282 13.7999 75.2467 13.9746V17.0825H74.1983V11.7701ZM80.3806 9.69618H81.429V17.0825H80.3806V9.69618ZM82.8865 14.424C82.853 14.0748 82.893 13.7225 83.0037 13.3897C83.1144 13.0569 83.2935 12.7509 83.5294 12.4913C83.7653 12.2317 84.0529 12.0244 84.3736 11.8824C84.6944 11.7405 85.0413 11.6672 85.392 11.6672C85.7428 11.6672 86.0897 11.7405 86.4105 11.8824C86.7312 12.0244 87.0188 12.2317 87.2547 12.4913C87.4906 12.7509 87.6697 13.0569 87.7804 13.3897C87.8911 13.7225 87.9311 14.0748 87.8976 14.424C87.9316 14.7735 87.8921 15.1262 87.7816 15.4595C87.6711 15.7927 87.4922 16.0992 87.2562 16.3592C87.0202 16.6192 86.7325 16.827 86.4114 16.9692C86.0904 17.1114 85.7432 17.1848 85.392 17.1848C85.0409 17.1848 84.6937 17.1114 84.3727 16.9692C84.0516 16.827 83.7639 16.6192 83.5279 16.3592C83.2919 16.0992 83.113 15.7927 83.0025 15.4595C82.892 15.1262 82.8525 14.7735 82.8865 14.424ZM86.8186 14.424C86.8186 13.2724 86.3013 12.599 85.3935 12.599C84.4821 12.599 83.9695 13.2724 83.9695 14.424C83.9695 15.5848 84.4822 16.253 85.3935 16.253C86.3013 16.253 86.8186 15.5802 86.8186 14.424ZM89.0013 15.5802C89.0013 14.6238 89.7133 14.0725 90.9772 13.9942L92.4162 13.9113V13.4527C92.4162 12.8916 92.0452 12.5748 91.3286 12.5748C90.7434 12.5748 90.3378 12.7897 90.2214 13.1653H89.2064C89.3135 12.2527 90.1719 11.6676 91.377 11.6676C92.7089 11.6676 93.46 12.3306 93.46 13.4527V17.0825H92.4507V16.3359H92.3678C92.1994 16.6037 91.963 16.822 91.6827 16.9686C91.4023 17.1151 91.0881 17.1846 90.7722 17.17C90.5491 17.1932 90.3237 17.1694 90.1105 17.1002C89.8972 17.0309 89.7009 16.9178 89.534 16.768C89.3672 16.6182 89.2336 16.4351 89.1418 16.2305C89.0501 16.0259 89.0022 15.8044 89.0013 15.5802ZM92.4162 15.1262V14.682L91.1189 14.7649C90.3873 14.8139 90.0555 15.0628 90.0555 15.5311C90.0555 16.0093 90.4703 16.2876 91.0406 16.2876C91.2077 16.3045 91.3765 16.2876 91.5369 16.2379C91.6974 16.1883 91.8462 16.1069 91.9746 15.9985C92.1029 15.8902 92.2082 15.7571 92.284 15.6072C92.3599 15.4574 92.4048 15.2938 92.4162 15.1262ZM94.838 14.424C94.838 12.7453 95.7009 11.682 97.0431 11.682C97.3751 11.6667 97.7046 11.7462 97.9931 11.9112C98.2816 12.0763 98.5172 12.32 98.6722 12.614H98.7506V9.69606H99.7989V17.0824H98.7943V16.243H98.7114C98.5444 16.535 98.3006 16.7757 98.0066 16.9391C97.7125 17.1025 97.3794 17.1823 97.0432 17.1699C95.6917 17.1699 94.838 16.1066 94.838 14.424ZM95.921 14.424C95.921 15.5507 96.4522 16.2288 97.3403 16.2288C98.2239 16.2288 98.7702 15.541 98.7702 14.4285C98.7702 13.3214 98.2183 12.6238 97.3403 12.6238C96.4578 12.6238 95.921 13.3064 95.921 14.424ZM104.137 14.424C104.103 14.0749 104.143 13.7226 104.254 13.3899C104.365 13.0571 104.544 12.7511 104.78 12.4916C105.015 12.232 105.303 12.0247 105.624 11.8828C105.944 11.7409 106.291 11.6676 106.642 11.6676C106.993 11.6676 107.339 11.7409 107.66 11.8828C107.981 12.0247 108.268 12.232 108.504 12.4916C108.74 12.7511 108.919 13.0571 109.03 13.3899C109.141 13.7226 109.181 14.0749 109.147 14.424C109.181 14.7735 109.142 15.1263 109.032 15.4597C108.921 15.7931 108.742 16.0997 108.506 16.3598C108.27 16.6199 107.983 16.8278 107.662 16.97C107.34 17.1123 106.993 17.1858 106.642 17.1858C106.291 17.1858 105.943 17.1123 105.622 16.97C105.301 16.8278 105.014 16.6199 104.778 16.3598C104.542 16.0997 104.363 15.7931 104.252 15.4597C104.142 15.1263 104.103 14.7735 104.137 14.424ZM108.069 14.424C108.069 13.2724 107.552 12.599 106.644 12.599C105.732 12.599 105.22 13.2724 105.22 14.424C105.22 15.5848 105.732 16.253 106.644 16.253C107.552 16.253 108.069 15.5802 108.069 14.424ZM110.554 11.7701H111.563V12.614H111.642C111.774 12.3109 111.999 12.0568 112.283 11.8871C112.567 11.7174 112.897 11.6406 113.227 11.6675C113.485 11.648 113.745 11.687 113.986 11.7815C114.228 11.876 114.445 12.0236 114.621 12.2134C114.798 12.4031 114.93 12.6302 115.006 12.8777C115.083 13.1252 115.104 13.3869 115.066 13.6433V17.0824H114.017V13.9067C114.017 13.053 113.646 12.6284 112.871 12.6284C112.695 12.6202 112.52 12.6501 112.357 12.716C112.194 12.7818 112.048 12.8821 111.927 13.01C111.807 13.1379 111.715 13.2903 111.659 13.4568C111.603 13.6233 111.584 13.7999 111.602 13.9746V17.0825H110.554L110.554 11.7701ZM120.99 10.4475V11.7943H122.141V12.6773H120.99V15.409C120.99 15.9655 121.219 16.2092 121.741 16.2092C121.875 16.2088 122.008 16.2006 122.141 16.1849V17.0583C121.953 17.092 121.762 17.1099 121.571 17.1119C120.405 17.1119 119.94 16.7017 119.94 15.6775V12.6773H119.097V11.7942H119.94V10.4476L120.99 10.4475ZM123.573 9.69618H124.612V12.6238H124.695C124.834 12.3178 125.065 12.0623 125.355 11.892C125.645 11.7217 125.98 11.6449 126.315 11.6721C126.572 11.6581 126.829 11.701 127.068 11.7978C127.306 11.8946 127.521 12.0429 127.696 12.232C127.87 12.4212 128.001 12.6466 128.079 12.8922C128.156 13.1378 128.179 13.3974 128.145 13.6527V17.0825H127.095V13.9113C127.095 13.0627 126.7 12.633 125.959 12.633C125.779 12.6182 125.598 12.643 125.428 12.7056C125.258 12.7682 125.104 12.8671 124.977 12.9954C124.85 13.1236 124.752 13.2782 124.69 13.4483C124.629 13.6183 124.605 13.7997 124.621 13.9798V17.0825H123.573V9.69618ZM134.258 15.648C134.115 16.1335 133.807 16.5536 133.386 16.8345C132.965 17.1155 132.459 17.2396 131.956 17.185C131.606 17.1943 131.258 17.1272 130.936 16.9886C130.615 16.8499 130.328 16.643 130.094 16.3821C129.861 16.1212 129.687 15.8126 129.584 15.4778C129.482 15.1429 129.454 14.7898 129.502 14.443C129.455 14.0951 129.484 13.7412 129.586 13.4054C129.688 13.0695 129.861 12.7595 130.093 12.4963C130.325 12.2331 130.611 12.0229 130.932 11.8799C131.253 11.7369 131.6 11.6645 131.951 11.6675C133.429 11.6675 134.321 12.6773 134.321 14.3455V14.7114H130.57V14.7701C130.553 14.9651 130.578 15.1613 130.642 15.3462C130.706 15.5312 130.807 15.7007 130.941 15.844C131.074 15.9873 131.235 16.1012 131.415 16.1783C131.595 16.2555 131.789 16.2942 131.985 16.292C132.235 16.3222 132.489 16.277 132.715 16.1623C132.94 16.0476 133.125 15.8686 133.248 15.648H134.258ZM130.57 13.936H133.253C133.266 13.7577 133.242 13.5787 133.182 13.4103C133.122 13.2419 133.027 13.088 132.904 12.9584C132.781 12.8288 132.632 12.7264 132.467 12.6577C132.302 12.5891 132.124 12.5557 131.945 12.5598C131.764 12.5576 131.584 12.5916 131.416 12.66C131.248 12.7283 131.096 12.8296 130.967 12.9579C130.839 13.0861 130.738 13.2388 130.67 13.4067C130.601 13.5747 130.567 13.7547 130.57 13.936Z" fill="#0E0E0E"/>
</svg>
