<svg width="200" height="150" viewBox="0 0 200 150" fill="none" xmlns="http://www.w3.org/2000/svg">
<path d="M126.087 135.234H58.5192L88.0519 41.9066L88.0525 41.9046C88.3396 40.9867 88.9871 40.2247 89.8477 39.7863C90.7063 39.3489 91.7035 39.2753 92.6214 39.5797C95.9438 40.6891 101.024 42.3849 106.826 44.322C120.815 48.9918 139.004 55.0641 146.905 57.7044L146.906 57.7047C148.769 58.3246 149.788 60.3266 149.195 62.2004L126.087 135.234Z" fill="#0E0E0E" stroke="#0E0E0E" stroke-width="1.27226"/>
<path d="M86.8971 40.6673L86.8982 40.6669C87.8056 40.3388 88.8066 40.3913 89.6741 40.8089C90.5411 41.2262 91.2063 41.9761 91.5188 42.8887C91.5188 42.8888 91.5189 42.889 91.5189 42.8891L122.988 135.234H54.9044L30.8291 64.5915C30.8291 64.5915 30.8291 64.5915 30.8291 64.5914C30.1968 62.735 31.1696 60.712 33.0186 60.047C37.9232 58.2834 46.823 55.0818 56.1992 51.7089C68.0296 47.453 80.6184 42.9243 86.8971 40.6673Z" fill="#0E0E0E" stroke="#0E0E0E" stroke-width="1.27226"/>
<path d="M107.665 35.5294L107.665 35.5299C108.745 41.174 110.74 51.5914 112.464 60.5978L114.699 72.2761L115.388 75.8721L115.576 76.8556L115.625 77.1121L115.638 77.1775L115.641 77.194L115.642 77.1982L115.642 77.1992C115.642 77.1994 115.642 77.1996 115.972 77.1363L115.642 77.1996C120.349 101.793 120.708 103.695 121.07 105.596C121.344 107.03 121.619 108.464 123.767 119.652L126.773 135.37H61.0743L52.6835 91.5154L52.1924 91.6093C52.6835 91.5154 52.6835 91.5152 52.6834 91.515L52.6832 91.5139L52.6824 91.5095L52.679 91.492L52.6658 91.4227L52.6138 91.1511L52.4145 90.1096L51.6862 86.3042L49.3247 73.9647C47.5058 64.4604 45.4078 53.4978 44.2913 47.6653L44.291 47.6637C44.1021 46.694 44.3116 45.6887 44.8679 44.8669C45.4231 44.0468 46.2809 43.4833 47.2526 43.2982L47.2531 43.2981C51.4578 42.493 58.423 41.1596 66.1534 39.6798C79.8161 37.0643 95.8692 33.9911 103.298 32.5682L103.299 32.5679C104.269 32.379 105.274 32.5885 106.096 33.1448C106.916 33.6999 107.48 34.5578 107.665 35.5294Z" fill="white" stroke="#0E0E0E"/>
<path d="M62.7979 65.9099L62.7978 65.9096C60.9247 56.135 67.1309 46.7459 76.6136 44.93C86.096 43.1141 95.3289 49.5482 97.202 59.323L97.2021 59.3232C98.1835 64.438 96.9483 69.4537 94.1836 73.3302C91.869 74.5259 87.7195 75.8669 83.2946 76.8137C78.8503 77.7646 74.21 78.3 70.9455 77.9203C66.8616 75.3523 63.7892 71.1018 62.7979 65.9099Z" fill="white" stroke="#0E0E0E"/>
<path d="M71.6756 78.357C74.4016 76.4088 78.0514 74.8302 82.2093 73.9986C86.4121 73.1581 90.415 73.2303 93.6718 74.0134C91.1736 77.1873 87.6067 79.4943 83.3865 80.3026L83.3861 80.3026C79.2322 81.1011 75.1308 80.3146 71.6756 78.357Z" fill="white" stroke="#0E0E0E"/>
<path d="M82.5572 76.0146L82.5571 76.0147C81.4848 76.2029 80.5947 76.1175 79.9656 75.8713C79.3346 75.6244 79.0013 75.2351 78.9325 74.8207L78.9327 74.8207L78.9306 74.8104C78.9308 74.8113 78.921 74.7499 78.903 74.6383C78.8816 74.505 78.8488 74.3001 78.8078 74.0445L78.5374 72.3565L78.2679 70.6729L78.1943 70.2125L84.5056 68.9921L84.6174 69.4323L85.0268 71.0437L85.438 72.6622L85.575 73.2013L85.6141 73.3556L85.6249 73.3978L85.6256 73.4008C85.6897 73.8204 85.487 74.3663 84.9603 74.8778C84.4356 75.3872 83.6181 75.8287 82.5572 76.0146Z" fill="#F99382" stroke="#0E0E0E" stroke-width="0.63613"/>
<path d="M82.5069 70.7296L84.6475 69.5573L84.8623 70.4001C84.1588 70.6904 83.3872 70.7564 82.7556 70.7403C82.6695 70.7381 82.5864 70.7344 82.5069 70.7296Z" fill="#24245B" stroke="#0E0E0E" stroke-width="0.63613"/>
<path d="M90.3842 58.3292L90.3842 58.3295C90.5235 59.2912 90.2845 60.2076 89.6955 60.8345C89.1435 61.422 88.2432 61.7981 86.9369 61.6769L86.1514 57.8902C86.1601 57.8659 86.1719 57.8353 86.1875 57.7997C86.2325 57.6964 86.3075 57.553 86.4251 57.4005C86.6571 57.0994 87.061 56.7534 87.7571 56.6108C88.4719 56.4644 89.0794 56.5747 89.525 56.8655C89.9677 57.1545 90.2857 57.6443 90.3842 58.3292ZM72.3055 60.8212C72.3338 60.8479 72.3568 60.8714 72.3743 60.8903L73.1467 64.6815C71.9923 65.3078 71.0161 65.3161 70.2773 64.9928C69.489 64.6478 68.909 63.8985 68.6591 62.9589L68.6591 62.9588C68.4815 62.2911 68.5816 61.7158 68.8751 61.276C69.1706 60.8333 69.6856 60.4929 70.4003 60.3465L70.4005 60.3465C71.0941 60.2039 71.6 60.3628 71.9309 60.548C72.0986 60.6419 72.2237 60.744 72.3055 60.8212ZM72.4167 60.9388L72.4168 60.9389L72.4167 60.9388Z" fill="#F99382" stroke="#0E0E0E" stroke-width="0.63613"/>
<path d="M77.7652 51.0914C79.7779 50.6902 81.8222 51.3872 83.5052 52.8799C85.1886 54.373 86.4958 56.6528 87.0087 59.369C87.5216 62.0851 87.1381 64.7032 86.1185 66.7372C85.0989 68.7712 83.4543 70.2045 81.4432 70.6059C79.4305 71.007 77.3862 70.31 75.7033 68.8173C74.0199 67.3242 72.7127 65.0445 72.1997 62.3282C71.6868 59.6121 72.0692 56.9939 73.0882 54.96C74.1071 52.9261 75.7517 51.4928 77.7652 51.0914Z" fill="#F99382" stroke="#0E0E0E" stroke-width="0.63613"/>
<path fill-rule="evenodd" clip-rule="evenodd" d="M83.2753 53.7567C83.2753 53.7567 79.6017 59.3292 71.6866 60.8082C71.6866 60.8082 70.3794 58.9141 70.3937 55.5268C70.408 52.1966 75.3221 48.4037 81.4432 49.1336C81.4432 49.1336 83.3373 49.5392 83.7667 51.5334C83.7667 51.5334 85.0692 50.9752 85.9948 51.7959C86.6961 52.4161 87.4833 55.4647 86.7295 57.1632C84.239 56.8913 83.5997 54.5105 83.2753 53.7567Z" fill="#0E0E0E"/>
<path d="M79.1056 59.4915C79.1056 59.4915 79.3585 62.2396 79.4492 63.1986C79.4682 63.3799 79.6209 63.5182 79.807 63.5087C80.036 63.4991 80.2984 63.4896 80.2984 63.4896M88.8432 57.6404C88.3327 58.523 88.2134 59.4581 88.3613 60.4266M88.3423 59.0955C88.6858 58.7711 89.3585 58.6375 89.8881 58.6327M70.0313 61.4381C70.8423 62.0535 71.3146 62.8694 71.558 63.8236M71.0618 62.5879C70.6229 62.4209 69.9454 62.5593 69.4587 62.7596M82.6696 64.4867C82.6696 64.4867 82.536 66.3665 80.661 66.7482" stroke="#24245B" stroke-width="0.397565" stroke-miterlimit="12.5" stroke-linecap="round" stroke-linejoin="round"/>
<path fill-rule="evenodd" clip-rule="evenodd" d="M82.4405 59.5582C82.6934 59.5105 82.951 59.7347 83.013 60.0543C83.0751 60.3788 82.9176 60.6793 82.6648 60.727C82.4119 60.7748 82.1543 60.5505 82.0922 60.2309C82.0302 59.9064 82.1877 59.6059 82.4405 59.5582ZM76.5054 60.6793C76.7583 60.6316 77.0159 60.8559 77.0779 61.1755C77.14 61.4999 76.9825 61.8005 76.7249 61.8482C76.472 61.8959 76.2144 61.6717 76.1524 61.352C76.0951 61.0276 76.2526 60.727 76.5054 60.6793Z" fill="#24245B"/>
<path d="M81.2525 58.1362C81.2525 58.1362 82.4453 57.1105 83.5378 58.0074M77.3451 59.0141C77.3451 59.0141 75.8566 58.5036 75.1743 59.7393" stroke="#24245B" stroke-width="0.397565" stroke-miterlimit="12.5" stroke-linecap="round" stroke-linejoin="round"/>
<path d="M62.7804 95.8243L62.0808 92.1643L108.121 83.3495L108.821 87.0095L62.7804 95.8243ZM65.6352 110.728L111.676 101.913L112.38 105.573L66.3348 114.388L65.6352 110.728ZM63.8556 101.449L109.9 92.6339L110.596 96.2937L64.5553 105.109L63.8556 101.449ZM68.1144 123.672L67.4148 120.013L113.455 111.198L114.155 114.858L68.1144 123.672Z" fill="white" stroke="#0E0E0E"/>
<path fill-rule="evenodd" clip-rule="evenodd" d="M108.519 82.7642L61.4958 91.767L62.3832 96.4091L109.406 87.4063L108.519 82.7642Z" fill="#0E0E0E"/>
<path d="M74.3496 129.87L74.5388 130.219L74.7603 130.628L75.2171 130.541L75.6444 130.46L75.3344 130.799L75.0294 131.133L75.2449 131.531L75.4478 131.906L75.0944 131.734L74.6676 131.527L74.3474 131.877L74.0808 132.168L74.1316 131.737L74.1845 131.287L73.7776 131.09L73.3714 130.893L73.7906 130.813L74.2487 130.726L74.3033 130.262L74.3496 129.87ZM82.8282 129.358L82.4219 129.161L82.8411 129.081L83.2992 128.994L83.3539 128.531L83.4002 128.138L83.5893 128.487L83.8108 128.896L84.2677 128.809L84.6907 128.728L84.3855 129.062L84.0796 129.396L84.2954 129.794L84.4983 130.169L84.145 129.997L83.7176 129.79L83.3973 130.141L83.1318 130.432L83.1821 130.005L83.235 129.556L82.8282 129.358ZM92.6398 126.755L92.8618 127.165L93.3194 127.077L93.7412 126.996L93.4354 127.331L93.1305 127.665L93.346 128.063L93.5488 128.437L93.1955 128.265L92.7687 128.058L92.4484 128.408L92.1818 128.7L92.2327 128.268L92.2855 127.819L91.8787 127.621L91.4724 127.424L91.8917 127.344L92.3496 127.257L92.4044 126.794L92.4503 126.405L92.6398 126.755ZM110.736 123.292L110.958 123.7L111.415 123.613L111.838 123.533L111.532 123.866L111.226 124.2L111.442 124.599L111.645 124.973L111.292 124.802L110.864 124.594L110.544 124.945L110.279 125.236L110.329 124.809L110.382 124.36L109.975 124.162L109.563 123.962L109.989 123.88L110.446 123.792L110.501 123.33L110.547 122.942L110.736 123.292ZM101.69 125.023L101.912 125.433L102.37 125.345L102.792 125.264L102.486 125.599L102.181 125.933L102.396 126.331L102.599 126.705L102.246 126.534L101.819 126.326L101.498 126.677L101.233 126.968L101.283 126.541L101.336 126.092L100.929 125.894L100.517 125.694L100.943 125.612L101.4 125.524L101.455 125.062L101.501 124.674L101.69 125.023Z" fill="#C57DBA" stroke="#0E0E0E" stroke-width="1.27226"/>
<path d="M19.446 80.0389H44.2385L39.7926 65.1426H15.0001L19.446 80.0389Z" fill="white"/>
<path d="M19.9277 80.4546H44.7203C44.8082 80.4546 44.8921 80.4126 44.9445 80.3425C44.997 80.2715 45.0139 80.1803 44.9881 80.0956L40.5422 65.1993C40.5067 65.0807 40.3978 65 40.2744 65H15.4818C15.3939 65 15.31 65.042 15.2576 65.1121C15.2051 65.1831 15.1882 65.2743 15.214 65.359L19.6591 80.2553C19.6946 80.3739 19.8035 80.4546 19.9277 80.4546ZM44.3443 79.8955H20.1359L15.857 65.5583H40.0654L44.3443 79.8955Z" fill="#0E0E0E"/>
<path d="M41.2853 78.0417L42.6914 82.7531L34.8726 79.1058" fill="white"/>
<path d="M42.6913 83.032C42.7574 83.032 42.822 83.0086 42.8736 82.9642C42.9567 82.8924 42.9906 82.7779 42.9591 82.6722L41.553 77.9617C41.5094 77.8141 41.3537 77.7302 41.2053 77.7737C41.0576 77.8181 40.9729 77.9738 41.0173 78.1214L42.2451 82.2358L34.991 78.8523C34.8506 78.787 34.6844 78.8475 34.6191 78.9878C34.5538 79.1282 34.6143 79.2944 34.7546 79.3598L42.5735 83.007C42.6106 83.0239 42.6509 83.032 42.6913 83.032Z" fill="#0E0E0E"/>
<path d="M22.7666 70.4551H38.1857C38.3406 70.4551 38.4656 70.3301 38.4656 70.1752C38.4656 70.0203 38.3406 69.8953 38.1857 69.8953H22.7666C22.6117 69.8953 22.4866 70.0203 22.4866 70.1752C22.4866 70.3301 22.6125 70.4551 22.7666 70.4551ZM23.3628 73.3102H38.7818C38.9367 73.3102 39.0618 73.1851 39.0618 73.0302C39.0618 72.8753 38.9367 72.7503 38.7818 72.7503H23.3628C23.2079 72.7503 23.0828 72.8753 23.0828 73.0302C23.0828 73.1851 23.2087 73.3102 23.3628 73.3102ZM23.9589 76.1652H39.378C39.5329 76.1652 39.658 76.0402 39.658 75.8853C39.658 75.7304 39.5329 75.6053 39.378 75.6053H23.9589C23.804 75.6053 23.679 75.7304 23.679 75.8853C23.679 76.0402 23.8048 76.1652 23.9589 76.1652Z" fill="#0E0E0E"/>
<path d="M136.818 34.5087L183.189 15.2837C183.363 15.2115 183.541 15.3801 183.477 15.5579L172.798 45.5551C172.76 45.6618 172.646 45.7215 172.537 45.6925L158.242 41.9082C158.115 41.8746 157.988 41.9599 157.971 42.0899L156.398 53.8902C156.369 54.1035 156.082 54.1507 155.987 53.9575L148.474 38.6829C148.448 38.6297 148.401 38.5895 148.345 38.5715L136.835 34.9173C136.642 34.8559 136.63 34.5865 136.818 34.5087Z" fill="white"/>
<path d="M166.939 43.6955L156.376 54.1051L158.076 41.3489L166.939 43.6955Z" fill="white"/>
<path d="M183.879 14.1865C183.708 13.9825 183.411 13.9404 183.19 14.0873L183.058 14.1759C182.979 14.1817 182.901 14.1966 182.827 14.2272L136.455 33.452C136.166 33.5725 135.988 33.8528 136.001 34.1661C136.014 34.479 136.216 34.743 136.515 34.8381L147.901 38.453L155.198 53.289L155.301 53.4974C155.147 53.6305 155.079 53.8473 155.147 54.0527C155.635 55.5481 155.293 57.3051 154.298 58.5225C154.002 57.746 153.419 57.148 152.7 56.9097C152.178 56.7373 151.585 56.7848 151.075 57.0438C150.619 57.2749 150.289 57.6496 150.143 58.0983C149.98 58.6053 150.062 59.1552 150.376 59.6459C150.739 60.2127 151.364 60.6132 152.008 60.6913C152.465 60.7463 152.94 60.675 153.404 60.4883C153.359 60.7232 153.295 60.972 153.209 61.236C152.34 63.9271 150.02 66.1637 147.3 66.9341C147.023 67.0122 146.863 67.3 146.941 67.577C147.006 67.8061 147.214 67.9557 147.442 67.9557C147.489 67.9557 147.536 67.9493 147.584 67.9361C150.676 67.0601 153.212 64.6154 154.2 61.5561C154.409 60.9105 154.513 60.3268 154.515 59.7919C154.632 59.6901 154.746 59.5808 154.856 59.4637C156.094 58.1492 156.633 56.274 156.328 54.5095C156.338 54.5058 156.346 54.4993 156.355 54.4953C156.402 54.4735 156.445 54.445 156.483 54.4111C156.49 54.405 156.499 54.4029 156.506 54.3961L156.515 54.3866L166.857 44.1952L172.241 45.6207C172.619 45.7185 172.996 45.5185 173.126 45.1544L183.805 15.1581C183.836 15.0719 183.844 14.983 183.842 14.8944L183.855 14.8812C184.039 14.6894 184.049 14.3901 183.879 14.1865ZM152.133 59.6575C151.795 59.6164 151.449 59.3921 151.253 59.0853C151.17 58.9556 151.045 58.6963 151.134 58.4187C151.193 58.2354 151.339 58.0772 151.546 57.972C151.706 57.8913 151.885 57.8492 152.059 57.8492C152.167 57.8492 152.274 57.8655 152.373 57.898C152.878 58.065 153.289 58.5857 153.421 59.2244C153.426 59.2502 153.431 59.2767 153.435 59.3038C153.076 59.5333 152.618 59.7159 152.133 59.6575ZM157.395 40.9085C157.318 40.9893 157.268 41.0925 157.254 41.2035L155.843 52.241L151.162 42.7233L148.939 38.2035L179.786 17.6116L157.395 40.9085ZM178.777 17.0333L148.189 37.4521L137.62 34.0965L178.777 17.0333ZM156.857 52.5878L158.041 43.7045L158.279 41.924L161.586 42.7996L165.688 43.8857L156.857 52.5878ZM172.238 44.5428L166.838 43.1129L166.837 43.1126L161.314 41.6504L158.773 40.9778L182.176 16.6281L172.238 44.5428Z" fill="#0E0E0E"/>
<path d="M38.786 119.847C38.8602 119.741 39.0104 119.711 39.1193 119.786C40.1736 120.513 41.644 119.847 41.7881 118.565C41.8585 117.943 41.5887 117.3 41.4744 116.623C41.343 115.839 41.5193 114.928 42.2236 114.563C43.2349 114.039 44.4161 115.064 45.2063 114.655C45.7174 114.389 45.7977 113.65 45.8007 113.232C45.8049 112.582 45.7166 111.891 46.0377 111.275C46.4096 110.56 47.5033 110.252 47.9781 110.912C48.0551 111.02 48.0303 111.169 47.9231 111.247C47.8156 111.325 47.6659 111.3 47.5887 111.193C47.3375 110.844 46.6725 111.093 46.4622 111.496C46.2038 111.992 46.2841 112.613 46.2799 113.234C46.2739 114.142 45.9703 114.798 45.4261 115.08C44.4142 115.605 43.2327 114.579 42.4429 114.989C41.9617 115.238 41.8474 115.948 41.947 116.542C42.0621 117.227 42.347 117.884 42.2644 118.617C42.1797 119.367 41.6817 120.054 40.9962 120.367C40.3099 120.681 39.4661 120.608 38.8467 120.18C38.738 120.105 38.7107 119.956 38.786 119.847ZM41.9951 112.085C41.1965 112.126 40.4058 111.627 39.8648 111.964C39.5541 112.157 39.4489 112.583 39.4544 112.916C39.4674 113.695 40.0234 114.785 39.4543 115.652C39.1328 116.14 38.4274 116.359 37.9601 116.011C37.8541 115.931 37.8325 115.781 37.9119 115.675C37.9917 115.569 38.1411 115.547 38.2472 115.626C38.4866 115.805 38.8849 115.646 39.054 115.389C39.6721 114.449 38.3946 112.913 39.3337 111.8C40.073 110.923 41.1698 111.648 41.9721 111.607C42.5971 111.574 43.1554 110.998 43.1665 110.372C43.1694 110.239 43.2781 110.133 43.4105 110.136C43.5427 110.138 43.648 110.247 43.6458 110.379C43.6296 111.259 42.874 112.04 41.9951 112.085Z" fill="#0E0E0E"/>
</svg>
