<svg width="200" height="150" viewBox="0 0 200 150" fill="none" xmlns="http://www.w3.org/2000/svg">
<path d="M180.072 138.854H102.31C100.147 138.854 98.3818 137.089 98.3818 134.926V78.6564C98.3818 76.4938 100.147 74.7285 102.31 74.7285H180.072C182.235 74.7285 184 76.4938 184 78.6564V134.882C184 137.089 182.235 138.854 180.072 138.854ZM98.3818 81.3043H184H98.3818Z" fill="white"/>
<path d="M98.3818 81.3043H184M180.072 138.854H102.31C100.147 138.854 98.3818 137.089 98.3818 134.926V78.6564C98.3818 76.4938 100.147 74.7285 102.31 74.7285H180.072C182.235 74.7285 184 76.4938 184 78.6564V134.882C184 137.089 182.235 138.854 180.072 138.854Z" stroke="#0E0E0E" stroke-width="1.10333" stroke-miterlimit="10" stroke-linecap="round" stroke-linejoin="round"/>
<path d="M104.119 109.417L113.387 100.149C116.079 97.4571 120.492 97.4571 123.184 100.149C125.877 102.841 130.29 102.841 132.982 100.149L139.293 93.8381" stroke="#0E0E0E" stroke-width="1.10333" stroke-linecap="round" stroke-linejoin="round"/>
<path d="M140.705 96.3535L142.118 91.0134L136.822 92.4698L140.705 96.3535Z" fill="#0E0E0E"/>
<path d="M123.096 109.461C121.596 109.461 120.36 110.697 120.36 112.198V128.571C120.36 130.071 121.596 131.307 123.096 131.307C124.597 131.307 125.833 130.071 125.833 128.571V112.198C125.877 110.697 124.641 109.461 123.096 109.461Z" fill="#0E0E0E"/>
<path d="M155.71 115.508H170.671M155.71 120.318H170.671M155.71 125.129H164.096M113.078 117.361C111.577 117.361 110.342 118.597 110.342 120.097V128.571C110.342 130.071 111.577 131.307 113.078 131.307C114.578 131.307 115.814 130.071 115.814 128.571V120.097C115.814 118.597 114.578 117.361 113.078 117.361ZM123.096 109.461C121.596 109.461 120.36 110.697 120.36 112.198V128.571C120.36 130.071 121.596 131.307 123.096 131.307C124.597 131.307 125.832 130.071 125.832 128.571V112.198C125.876 110.697 124.641 109.461 123.096 109.461ZM133.158 113.875C131.658 113.875 130.422 115.11 130.422 116.611V128.571C130.422 130.071 131.658 131.307 133.158 131.307C134.659 131.307 135.895 130.071 135.895 128.571V116.611C135.895 115.11 134.703 113.875 133.158 113.875ZM174.467 131.351H151.959C150.547 131.351 149.399 130.204 149.399 128.792V91.9405C149.399 90.5282 150.547 89.3807 151.959 89.3807H174.467C175.879 89.3807 177.027 90.5282 177.027 91.9405V128.792C176.983 130.204 175.835 131.351 174.467 131.351Z" stroke="#0E0E0E" stroke-width="1.10333" stroke-miterlimit="10" stroke-linecap="round" stroke-linejoin="round"/>
<path d="M169.833 100.017C168.73 97.457 166.215 95.6476 163.213 95.6476C159.242 95.6476 156.02 98.8693 156.02 102.841C156.02 106.813 159.242 110.035 163.213 110.035C165.199 110.035 166.965 109.241 168.289 107.961" stroke="#0E0E0E" stroke-width="1.10333" stroke-miterlimit="10" stroke-linecap="round" stroke-linejoin="round"/>
<path d="M161.184 101.562C161.744 101.562 162.199 101.107 162.199 100.547C162.199 99.986 161.744 99.5315 161.184 99.5315C160.623 99.5315 160.168 99.986 160.168 100.547C160.168 101.107 160.623 101.562 161.184 101.562Z" stroke="#0E0E0E" stroke-width="1.10333" stroke-miterlimit="10" stroke-linecap="round" stroke-linejoin="round"/>
<path d="M165.685 106.063C166.246 106.063 166.7 105.609 166.7 105.048C166.7 104.487 166.246 104.033 165.685 104.033C165.124 104.033 164.67 104.487 164.67 105.048C164.67 105.609 165.124 106.063 165.685 106.063Z" stroke="#0E0E0E" stroke-width="1.10333" stroke-miterlimit="10" stroke-linecap="round" stroke-linejoin="round"/>
<path d="M161.183 105.048L165.685 100.546M104.119 78.1266H105.355M109.15 78.1266H110.386M114.181 78.1266H115.417" stroke="#0E0E0E" stroke-width="1.10333" stroke-miterlimit="10" stroke-linecap="round" stroke-linejoin="round"/>
<path d="M121.299 24.5566L104.747 25.8712L109.592 10.0003C116.316 12.0071 120.781 17.9384 121.299 24.5566Z" fill="#0E0E0E"/>
<path d="M114.373 36.0548C111.693 44.8345 102.437 49.7607 93.6571 47.0803C84.8775 44.3999 79.9512 35.1436 82.6317 26.364C85.3121 17.5844 94.5683 12.6581 103.348 15.3386L98.5025 31.2094L115.054 29.8948C115.205 31.9711 114.992 34.0288 114.373 36.0548Z" fill="white" stroke="#0E0E0E" stroke-width="1.10333" stroke-miterlimit="10" stroke-linecap="round" stroke-linejoin="round"/>
<path d="M121.299 24.5566L104.747 25.8712L109.592 10.0003C116.316 12.0071 120.781 17.9384 121.299 24.5566Z" stroke="#0E0E0E" stroke-width="1.10333" stroke-miterlimit="10" stroke-linecap="round" stroke-linejoin="round"/>
<path d="M82.9502 102.111L70.7597 64.5214C69.6108 60.9435 65.7882 59.0163 62.2104 60.1653L22.696 73.0066C24.4564 72.4195 26.3391 72.637 27.8713 73.4161C29.4035 74.1952 30.6583 75.6023 31.2454 77.3627L43.4359 114.952C43.4997 115.117 43.5475 115.24 43.5701 115.421C45.4203 120.809 51.2729 123.701 56.7094 121.975L76.3431 115.602C81.8871 113.786 84.8297 107.819 82.998 102.234L82.9502 102.111Z" fill="#0E0E0E"/>
<path d="M50.348 108.726L54.2409 101.302C55.3545 99.1672 57.6618 98.037 60.0104 98.358C61.9661 98.6418 63.9004 97.8927 65.1296 96.4228L70.8269 89.6258L74.4808 100.894L50.348 108.726Z" fill="white"/>
<path d="M31.2294 77.3215L32.9654 82.6597L25.2336 85.1807C22.3713 86.0998 19.3068 84.5416 18.3877 81.6793C17.2388 78.1015 19.0611 74.1302 22.6389 72.9813C24.4404 72.3783 26.266 72.5705 27.8553 73.3748C29.4034 74.1951 30.6423 75.5611 31.2294 77.3215Z" fill="white" stroke="#0E0E0E" stroke-width="1.10333" stroke-miterlimit="10" stroke-linecap="round" stroke-linejoin="round"/>
<path d="M82.9502 102.111L70.7597 64.5214C69.6108 60.9435 65.7882 59.0163 62.2104 60.1653L22.696 73.0066C24.4564 72.4195 26.3391 72.637 27.8713 73.4161C29.4035 74.1952 30.6583 75.6023 31.2454 77.3627L43.4359 114.952C43.4997 115.117 43.5475 115.24 43.5701 115.421C45.4203 120.809 51.2729 123.701 56.7094 121.975L76.3431 115.602C81.8871 113.786 84.8297 107.819 82.998 102.234L82.9502 102.111Z" stroke="#0E0E0E" stroke-width="1.10333" stroke-miterlimit="10" stroke-linecap="round" stroke-linejoin="round"/>
<path d="M40.8447 79.4192L64.9776 71.5879M42.4692 84.4694L66.6432 76.6221M44.0936 89.5195L57.6164 85.0872" stroke="white" stroke-width="1.10333" stroke-miterlimit="10" stroke-linecap="round" stroke-linejoin="round"/>
<path d="M72.5783 137.666C72.5783 137.666 75.9796 133.909 78.7979 136.46C75.9796 133.909 79.381 130.151 79.381 130.151C79.381 130.151 75.9796 133.909 73.1614 131.358C75.9796 133.909 72.5783 137.666 72.5783 137.666Z" fill="#0E0E0E"/>
<path d="M132.285 47.6015C132.742 45.6706 134.768 42.2345 139.216 43.9373C143.663 45.64 146.35 41.8549 147.137 39.7495" stroke="#0E0E0E" stroke-width="0.896" stroke-linecap="round"/>
<path d="M133.916 49.917C134.373 47.9861 135.313 44.6973 139.76 46.4001C144.208 48.1028 147.981 44.1704 148.768 42.065" stroke="#0E0E0E" stroke-width="0.896" stroke-linecap="round"/>
</svg>
