<svg width="41" height="40" viewBox="0 0 41 40" fill="none" xmlns="http://www.w3.org/2000/svg">
<path d="M14.9531 23.8831C14.9531 26.0331 16.6031 27.7664 18.6531 27.7664H22.8365C24.6198 27.7664 26.0698 26.2498 26.0698 24.3831C26.0698 22.3498 25.1865 21.6331 23.8698 21.1664L17.1531 18.8331C15.8365 18.3664 14.9531 17.6498 14.9531 15.6164C14.9531 13.7498 16.4031 12.2331 18.1865 12.2331H22.3698C24.4198 12.2331 26.0698 13.9664 26.0698 16.1164" stroke="#0E0E0E" stroke-width="2.5" stroke-linecap="round" stroke-linejoin="round"/>
<path d="M20.5 10V30" stroke="#0E0E0E" stroke-width="2.5" stroke-linecap="round" stroke-linejoin="round"/>
<path d="M20.4999 36.6666C29.7047 36.6666 37.1666 29.2047 37.1666 20C37.1666 10.7952 29.7047 3.33331 20.4999 3.33331C11.2952 3.33331 3.83325 10.7952 3.83325 20C3.83325 29.2047 11.2952 36.6666 20.4999 36.6666Z" stroke="#0E0E0E" stroke-width="2.5" stroke-linecap="round" stroke-linejoin="round"/>
</svg>
