<svg width="120" height="104" viewBox="0 0 120 104" fill="none" xmlns="http://www.w3.org/2000/svg">
<path d="M116.628 91.0292C114.827 91.0292 113.55 90.0585 113.052 88.5643L113.997 88.1428C114.47 89.4072 115.402 90.033 116.679 90.033C118.007 90.033 118.889 89.471 118.889 88.4749C118.889 87.5426 118.378 87.0828 116.513 86.4953C114.546 85.895 113.371 85.3586 113.371 83.7239C113.371 82.2807 114.61 81.2207 116.411 81.2207C118.212 81.2207 119.259 82.1402 119.744 83.3408L118.85 83.8388C118.339 82.7022 117.522 82.2424 116.398 82.2424C115.198 82.2424 114.483 82.8299 114.483 83.6345C114.483 84.6434 115.121 84.9755 116.973 85.563C118.876 86.1505 120 86.789 120 88.3982C120 89.9564 118.633 91.0292 116.628 91.0292Z" fill="white"/>
<path d="M107.09 90.8503V82.4339H104.089V81.3994H111.228V82.4339H108.214V90.8503H107.09Z" fill="white"/>
<path d="M96.3337 90.8503V81.3994H102.132V82.4339H97.4576V85.3841H100.931V86.393H97.4576V89.8286H102.4V90.8503H96.3337Z" fill="white"/>
<path d="M90.3176 91.0292C88.5168 91.0292 87.2397 90.0585 86.7416 88.5643L87.6867 88.1428C88.1592 89.4072 89.0915 90.033 90.3687 90.033C91.6969 90.033 92.5781 89.471 92.5781 88.4749C92.5781 87.5426 92.0673 87.0828 90.2026 86.4953C88.2358 85.895 87.0609 85.3586 87.0609 83.7239C87.0609 82.2807 88.2997 81.2207 90.1005 81.2207C91.9012 81.2207 92.9485 82.1402 93.4338 83.3408L92.5398 83.8388C92.0289 82.7022 91.2116 82.2424 90.0877 82.2424C88.8872 82.2424 88.172 82.8299 88.172 83.6345C88.172 84.6434 88.8105 84.9755 90.6624 85.563C92.5653 86.1505 93.6892 86.789 93.6892 88.3982C93.6892 89.9564 92.3227 91.0292 90.3176 91.0292Z" fill="white"/>
<path d="M81.1982 91.0292C79.3974 91.0292 78.1203 90.0585 77.6222 88.5643L78.5673 88.1428C79.0398 89.4072 79.9721 90.033 81.2493 90.033C82.5775 90.033 83.4587 89.471 83.4587 88.4749C83.4587 87.5426 82.9479 87.0828 81.0832 86.4953C79.1164 85.895 77.9415 85.3586 77.9415 83.7239C77.9415 82.2807 79.1803 81.2207 80.9811 81.2207C82.7818 81.2207 83.8291 82.1402 84.3144 83.3408L83.4204 83.8388C82.9096 82.7022 82.0922 82.2424 80.9683 82.2424C79.7678 82.2424 79.0526 82.8299 79.0526 83.6345C79.0526 84.6434 79.6912 84.9755 81.543 85.563C83.446 86.1505 84.5699 86.789 84.5699 88.3982C84.5699 89.9564 83.2033 91.0292 81.1982 91.0292Z" fill="white"/>
<path fill-rule="evenodd" clip-rule="evenodd" d="M71.3482 81.3623L68.0021 90.8515H69.0876L69.9372 88.3842L71.8974 82.7288H71.9229L73.7748 88.1439L74.7071 90.8515H75.8693L72.5232 81.3623H71.3482Z" fill="white"/>
<path d="M56.9729 90.8503V81.3994H58.0968V89.8286H62.6434V90.8503H56.9729Z" fill="white"/>
<path fill-rule="evenodd" clip-rule="evenodd" d="M50.1591 81.3623L46.813 90.8515H47.8986L48.7481 88.3842L50.7083 82.7288H50.7338L52.5857 88.1439L53.518 90.8515H54.6802L51.3341 81.3623H50.1591Z" fill="white"/>
<path d="M43.2645 90.8503V81.3994H44.3884V90.8503H43.2645Z" fill="white"/>
<path d="M33.7683 90.8503V81.3994H37.0123C39.1579 81.3994 40.3711 82.3062 40.3711 84.0431C40.3711 85.5629 39.5155 86.3547 38.1745 86.6357L40.4989 90.8503H39.2728L37.0123 86.7762H34.8794V90.8503H33.7683ZM34.8794 85.78H36.9484C38.4299 85.78 39.26 85.3713 39.26 84.0814C39.26 82.8426 38.4427 82.4211 36.9356 82.4211H34.8794V85.78Z" fill="white"/>
<path d="M25.2598 90.8503V81.3994H31.058V82.4339H26.3837V85.3841H29.8575V86.393H26.3837V89.8286H31.3262V90.8503H25.2598Z" fill="white"/>
<path d="M16.2405 90.8503V81.3994H19.4461C21.4895 81.3994 22.8561 82.204 22.8561 84.0814C22.8561 86.0993 21.3491 86.8528 19.3695 86.8528H17.3644V90.8503H16.2405ZM17.3644 85.8566H19.4333C20.9404 85.8566 21.745 85.3969 21.745 84.1197C21.745 82.9064 20.9531 82.4211 19.4206 82.4211H17.3644V85.8566Z" fill="white"/>
<path d="M4.30225 90.8503V81.3994H5.77096L8.74671 89.4326H8.77225L11.6969 81.3994H13.1912V90.8503H12.08V83.2002H12.0545C11.9268 83.6983 11.6969 84.3113 11.4798 84.9371L9.21925 90.8503H8.2103L5.94976 84.9371C5.71988 84.3113 5.56662 83.9154 5.36228 83.1619H5.33673V90.8503H4.30225Z" fill="white"/>
<path d="M0 90.8503V81.3994H1.12389V90.8503H0Z" fill="white"/>
<path d="M107.186 103.623C106.896 103.623 106.726 103.58 106.606 103.546L106.735 103.067C106.804 103.086 106.952 103.12 107.15 103.12C107.352 103.12 107.458 103.038 107.536 102.83L107.605 102.641L106.666 100.058H107.255L107.886 101.93H107.895L108.522 100.058H109.083L108.043 102.907C107.882 103.357 107.67 103.623 107.186 103.623Z" fill="white"/>
<path d="M105.743 102.659C105.122 102.659 104.988 102.417 104.988 101.953V100.53H104.565V100.056H104.988V99.1611H105.555V100.056H106.185V100.53H105.555V101.803C105.555 102.078 105.633 102.19 105.914 102.19C105.997 102.19 106.103 102.175 106.158 102.156V102.625C106.098 102.639 105.886 102.659 105.743 102.659Z" fill="white"/>
<path d="M103.288 102.625V99.0454H103.859V102.625H103.288Z" fill="white"/>
<path d="M100.919 102.664C100.523 102.664 100.228 102.432 100.228 102.006C100.228 101.45 100.679 101.077 101.821 100.942V100.865C101.821 100.608 101.692 100.497 101.42 100.497C101.08 100.497 100.803 100.671 100.596 100.845L100.32 100.473C100.582 100.221 100.992 100.008 101.499 100.008C102.153 100.008 102.378 100.337 102.378 100.937V101.997C102.378 102.306 102.397 102.495 102.447 102.626H101.876C101.844 102.519 101.821 102.442 101.821 102.297C101.572 102.563 101.282 102.664 100.919 102.664ZM101.126 102.205C101.416 102.205 101.642 102.089 101.821 101.91V101.344C101.144 101.44 100.785 101.614 100.785 101.895C100.785 102.098 100.919 102.205 101.126 102.205Z" fill="white"/>
<path d="M98.5497 102.679C97.9373 102.679 97.371 102.287 97.371 101.344C97.371 100.366 98.0294 100.008 98.5359 100.008C99.0839 100.008 99.6088 100.352 99.6088 101.397V101.537H97.9373C97.9604 102.001 98.232 102.205 98.5912 102.205C98.9089 102.205 99.0931 102.093 99.2773 101.905L99.5765 102.214C99.3233 102.509 98.9872 102.679 98.5497 102.679ZM97.9465 101.092H99.0885C99.0562 100.7 98.8721 100.492 98.5313 100.492C98.255 100.492 98.0018 100.657 97.9465 101.092Z" fill="white"/>
<path d="M94.1183 102.625V99.0454H95.3385C96.1489 99.0454 96.6186 99.3889 96.6186 100.119C96.6186 100.69 96.3377 101.014 95.8634 101.135L96.6646 102.625H96.0476L95.2832 101.213H94.6846V102.625H94.1183ZM94.6846 100.685H95.3155C95.7943 100.685 96.0522 100.56 96.0522 100.134C96.0522 99.7227 95.7989 99.5969 95.3109 99.5969H94.6846V100.685Z" fill="white"/>
<path d="M91.1096 102.625V99.0454H91.6806V102.625H91.1096Z" fill="white"/>
<path d="M88.7407 102.664C88.3447 102.664 88.05 102.432 88.05 102.006C88.05 101.45 88.5013 101.077 89.6432 100.942V100.865C89.6432 100.608 89.5143 100.497 89.2426 100.497C88.9019 100.497 88.6256 100.671 88.4184 100.845L88.1421 100.473C88.4046 100.221 88.8144 100.008 89.3209 100.008C89.9747 100.008 90.2004 100.337 90.2004 100.937V101.997C90.2004 102.306 90.2188 102.495 90.2694 102.626H89.6985C89.6662 102.519 89.6432 102.442 89.6432 102.297C89.3946 102.563 89.1045 102.664 88.7407 102.664ZM88.9479 102.205C89.238 102.205 89.4636 102.089 89.6432 101.91V101.344C88.9664 101.44 88.6072 101.614 88.6072 101.895C88.6072 102.098 88.7407 102.205 88.9479 102.205Z" fill="white"/>
<path d="M85.1559 102.626V100.057H85.7268V100.405C85.8834 100.231 86.1781 100.008 86.6201 100.008C87.0483 100.008 87.3246 100.274 87.3246 100.782V102.626H86.7537V100.932C86.7537 100.647 86.6385 100.516 86.3899 100.516C86.1413 100.516 85.934 100.652 85.7268 100.85V102.626H85.1559Z" fill="white"/>
<path d="M83.1914 102.679C82.5974 102.679 81.9988 102.282 81.9988 101.344C81.9988 100.395 82.5928 100.008 83.1914 100.008C83.7853 100.008 84.3839 100.395 84.3839 101.344C84.3839 102.282 83.7853 102.679 83.1914 102.679ZM83.1914 102.18C83.6012 102.18 83.813 101.871 83.813 101.344C83.813 100.865 83.6196 100.516 83.1914 100.516C82.7816 100.516 82.5697 100.826 82.5697 101.344C82.5697 101.832 82.7585 102.18 83.1914 102.18Z" fill="white"/>
<path d="M80.6245 99.6109V99.0933H81.2047V99.6109H80.6245ZM80.6291 102.625V100.056H81.2001V102.625H80.6291Z" fill="white"/>
<path d="M79.4211 102.659C78.7995 102.659 78.6659 102.417 78.6659 101.953V100.53H78.2423V100.056H78.6659V99.1611H79.2323V100.056H79.8631V100.53H79.2323V101.803C79.2323 102.078 79.3106 102.19 79.5914 102.19C79.6743 102.19 79.7802 102.175 79.8355 102.156V102.625C79.7756 102.639 79.5638 102.659 79.4211 102.659Z" fill="white"/>
<path d="M76.1268 102.664C75.7308 102.664 75.4362 102.432 75.4362 102.006C75.4362 101.45 75.8874 101.077 77.0293 100.942V100.865C77.0293 100.608 76.9004 100.497 76.6287 100.497C76.288 100.497 76.0117 100.671 75.8045 100.845L75.5283 100.473C75.7907 100.221 76.2005 100.008 76.707 100.008C77.3609 100.008 77.5865 100.337 77.5865 100.937V101.997C77.5865 102.306 77.6049 102.495 77.6555 102.626H77.0846C77.0524 102.519 77.0293 102.442 77.0293 102.297C76.7807 102.563 76.4906 102.664 76.1268 102.664ZM76.334 102.205C76.6241 102.205 76.8498 102.089 77.0293 101.91V101.344C76.3525 101.44 75.9933 101.614 75.9933 101.895C75.9933 102.098 76.1268 102.205 76.334 102.205Z" fill="white"/>
<path d="M72.542 102.626V100.057H73.113V100.405C73.2695 100.231 73.5642 100.008 74.0062 100.008C74.4345 100.008 74.7107 100.274 74.7107 100.782V102.626H74.1398V100.932C74.1398 100.647 74.0247 100.516 73.776 100.516C73.5274 100.516 73.3202 100.652 73.113 100.85V102.626H72.542Z" fill="white"/>
<path d="M70.3678 102.626V100.057H70.9342V100.478H70.9434C71.0953 100.221 71.3578 100.008 71.8228 100.008H71.8597L71.8413 100.555C71.8136 100.55 71.7215 100.545 71.6893 100.545C71.3255 100.545 71.0953 100.724 70.9342 101V102.626H70.3678Z" fill="white"/>
<path d="M68.5335 102.679C67.9211 102.679 67.3547 102.287 67.3547 101.344C67.3547 100.366 68.0132 100.008 68.5197 100.008C69.0676 100.008 69.5925 100.352 69.5925 101.397V101.537H67.9211C67.9441 102.001 68.2158 102.205 68.5749 102.205C68.8927 102.205 69.0768 102.093 69.261 101.905L69.5603 102.214C69.3071 102.509 68.9709 102.679 68.5335 102.679ZM67.9303 101.092H69.0722C69.04 100.7 68.8558 100.492 68.5151 100.492C68.2388 100.492 67.9856 100.657 67.9303 101.092Z" fill="white"/>
<path d="M66.3084 102.659C65.6868 102.659 65.5533 102.417 65.5533 101.953V100.53H65.1296V100.056H65.5533V99.1611H66.1196V100.056H66.7504V100.53H66.1196V101.803C66.1196 102.078 66.1979 102.19 66.4788 102.19C66.5617 102.19 66.6676 102.175 66.7228 102.156V102.625C66.663 102.639 66.4511 102.659 66.3084 102.659Z" fill="white"/>
<path d="M62.3087 102.626V100.057H62.8797V100.405C63.0362 100.231 63.3309 100.008 63.773 100.008C64.2012 100.008 64.4775 100.274 64.4775 100.782V102.626H63.9065V100.932C63.9065 100.647 63.7914 100.516 63.5427 100.516C63.2941 100.516 63.0869 100.652 62.8797 100.85V102.626H62.3087Z" fill="white"/>
<path d="M60.7128 102.625V99.0454H61.2929V102.625H60.7128Z" fill="white"/>
<path d="M57.3819 102.679C56.9307 102.679 56.5255 102.509 56.3044 102.272L56.6129 101.91C56.7971 102.074 57.0688 102.214 57.3819 102.214C57.6858 102.214 57.87 102.132 57.87 101.919C57.87 101.711 57.6213 101.648 57.3267 101.576C56.9076 101.474 56.4057 101.358 56.4057 100.763C56.4057 100.313 56.7741 100.008 57.3128 100.008C57.7779 100.008 58.0634 100.149 58.3166 100.371L58.045 100.758C57.8654 100.603 57.5753 100.478 57.3543 100.478C57.0412 100.478 56.9399 100.594 56.9399 100.739C56.9399 100.947 57.1839 101.01 57.474 101.077C57.893 101.174 58.4041 101.285 58.4041 101.885C58.4041 102.427 57.9391 102.679 57.3819 102.679Z" fill="white"/>
<path d="M55.0041 100.216L55.1653 99.6743H54.9535V99.0454H55.5613V99.6211L55.2666 100.216H55.0041Z" fill="white"/>
<path d="M52.4034 103.623C52.1133 103.623 51.943 103.58 51.8232 103.546L51.9522 103.067C52.0212 103.086 52.1686 103.12 52.3666 103.12C52.5692 103.12 52.6751 103.038 52.7534 102.83L52.8224 102.641L51.8831 100.058H52.4725L53.1033 101.93H53.1125L53.7387 100.058H54.3005L53.2599 102.907C53.0987 103.357 52.8869 103.623 52.4034 103.623Z" fill="white"/>
<path d="M50.3204 102.664C50.058 102.664 49.8001 102.553 49.6206 102.34V102.625H49.0542V99.0454H49.6206V100.395C49.7817 100.192 50.035 100.008 50.3987 100.008C50.9559 100.008 51.3657 100.448 51.3657 101.339C51.3657 102.229 50.9467 102.664 50.3204 102.664ZM50.1961 102.19C50.6243 102.19 50.7993 101.914 50.7993 101.343C50.7993 100.802 50.5783 100.516 50.2145 100.516C49.9797 100.516 49.7541 100.671 49.6206 100.84V101.871C49.7725 102.079 49.9935 102.19 50.1961 102.19Z" fill="white"/>
<path d="M47.1324 102.679C46.52 102.679 45.9536 102.287 45.9536 101.344C45.9536 100.366 46.6121 100.008 47.1186 100.008C47.6665 100.008 48.1914 100.352 48.1914 101.397V101.537H46.52C46.543 102.001 46.8147 102.205 47.1738 102.205C47.4915 102.205 47.6757 102.093 47.8599 101.905L48.1592 102.214C47.9059 102.509 47.5698 102.679 47.1324 102.679ZM46.5292 101.092H47.6711C47.6389 100.7 47.4547 100.492 47.114 100.492C46.8377 100.492 46.5844 100.657 46.5292 101.092Z" fill="white"/>
<path d="M43.041 102.625V99.0454H43.612V100.405C43.7685 100.231 44.0632 100.008 44.5053 100.008C44.9335 100.008 45.2098 100.274 45.2098 100.782V102.625H44.6388V100.932C44.6388 100.647 44.5237 100.516 44.275 100.516C44.0264 100.516 43.8192 100.652 43.612 100.85V102.625H43.041Z" fill="white"/>
<path d="M41.8563 102.659C41.2346 102.659 41.1011 102.417 41.1011 101.953V100.53H40.6775V100.056H41.1011V99.1611H41.6675V100.056H42.2983V100.53H41.6675V101.803C41.6675 102.078 41.7457 102.19 42.0266 102.19C42.1095 102.19 42.2154 102.175 42.2707 102.156V102.625C42.2108 102.639 41.999 102.659 41.8563 102.659Z" fill="white"/>
<path d="M38.9423 102.679C38.3483 102.679 37.7498 102.282 37.7498 101.344C37.7498 100.395 38.3437 100.008 38.9423 100.008C39.5363 100.008 40.1349 100.395 40.1349 101.344C40.1349 102.282 39.5363 102.679 38.9423 102.679ZM38.9423 102.18C39.3521 102.18 39.5639 101.871 39.5639 101.344C39.5639 100.865 39.3706 100.516 38.9423 100.516C38.5325 100.516 38.3207 100.826 38.3207 101.344C38.3207 101.832 38.5095 102.18 38.9423 102.18Z" fill="white"/>
<path d="M35.7711 102.693C35.0942 102.693 34.6153 102.325 34.3989 101.783L34.8548 101.532C35.0574 101.953 35.3705 102.156 35.7941 102.156C36.2085 102.156 36.4894 102.016 36.4894 101.692C36.4894 101.382 36.2776 101.237 35.7158 101.063C35.0574 100.859 34.5279 100.671 34.5279 99.9886C34.5279 99.3791 35.0021 98.9775 35.6928 98.9775C36.3651 98.9775 36.7611 99.3259 36.9683 99.7467L36.5492 100.052C36.3466 99.6935 36.0566 99.529 35.6882 99.529C35.3106 99.529 35.0942 99.6742 35.0942 99.9354C35.0942 100.269 35.3383 100.38 35.8954 100.555C36.54 100.753 37.0557 100.976 37.0557 101.648C37.0557 102.233 36.5815 102.693 35.7711 102.693Z" fill="white"/>
<path d="M30.7319 102.664C30.336 102.664 30.0413 102.432 30.0413 102.006C30.0413 101.45 30.4925 101.077 31.6344 100.942V100.865C31.6344 100.608 31.5055 100.497 31.2338 100.497C30.8931 100.497 30.6168 100.671 30.4096 100.845L30.1334 100.473C30.3958 100.221 30.8056 100.008 31.3121 100.008C31.966 100.008 32.1916 100.337 32.1916 100.937V101.997C32.1916 102.306 32.21 102.495 32.2606 102.626H31.6897C31.6575 102.519 31.6344 102.442 31.6344 102.297C31.3858 102.563 31.0957 102.664 30.7319 102.664ZM30.9391 102.205C31.2292 102.205 31.4549 102.089 31.6344 101.91V101.344C30.9576 101.44 30.5984 101.614 30.5984 101.895C30.5984 102.098 30.7319 102.205 30.9391 102.205Z" fill="white"/>
<path d="M28.3627 102.679C27.7503 102.679 27.184 102.287 27.184 101.344C27.184 100.366 27.8424 100.008 28.3489 100.008C28.8969 100.008 29.4218 100.352 29.4218 101.397V101.537H27.7503C27.7733 102.001 28.045 102.205 28.4042 102.205C28.7219 102.205 28.9061 102.093 29.0902 101.905L29.3895 102.214C29.1363 102.509 28.8002 102.679 28.3627 102.679ZM27.7595 101.092H28.9015C28.8692 100.7 28.685 100.492 28.3443 100.492C28.068 100.492 27.8148 100.657 27.7595 101.092Z" fill="white"/>
<path d="M25.1484 102.626V100.057H25.7148V100.478H25.724C25.876 100.221 26.1384 100.008 26.6035 100.008H26.6403L26.6219 100.555C26.5943 100.55 26.5022 100.545 26.4699 100.545C26.1062 100.545 25.876 100.724 25.7148 101V102.626H25.1484Z" fill="white"/>
<path d="M23.1837 102.679C22.5897 102.679 21.9911 102.282 21.9911 101.344C21.9911 100.395 22.5851 100.008 23.1837 100.008C23.7777 100.008 24.3762 100.395 24.3762 101.344C24.3762 102.282 23.7777 102.679 23.1837 102.679ZM23.1837 102.18C23.5935 102.18 23.8053 101.871 23.8053 101.344C23.8053 100.865 23.6119 100.516 23.1837 100.516C22.7739 100.516 22.5621 100.826 22.5621 101.344C22.5621 101.832 22.7508 102.18 23.1837 102.18Z" fill="white"/>
<path d="M18.7068 102.625V99.0454H19.2824V100.71L20.6223 99.0454H21.3037L20.1434 100.424L21.4465 102.625H20.788L19.7658 100.889L19.2824 101.45V102.625H18.7068Z" fill="white"/>
<path d="M14.6695 103.623C14.3794 103.623 14.2091 103.58 14.0894 103.546L14.2183 103.067C14.2874 103.086 14.4347 103.12 14.6327 103.12C14.8353 103.12 14.9412 103.038 15.0195 102.83L15.0885 102.641L14.1492 100.058H14.7386L15.3694 101.93H15.3786L16.0048 100.058H16.5666L15.526 102.907C15.3648 103.357 15.153 103.623 14.6695 103.623Z" fill="white"/>
<path d="M12.5864 102.664C12.324 102.664 12.0661 102.553 11.8865 102.34V102.625H11.3202V99.0454H11.8865V100.395C12.0477 100.192 12.301 100.008 12.6647 100.008C13.2219 100.008 13.6317 100.448 13.6317 101.339C13.6317 102.229 13.2127 102.664 12.5864 102.664ZM12.4621 102.19C12.8903 102.19 13.0653 101.914 13.0653 101.343C13.0653 100.802 12.8443 100.516 12.4805 100.516C12.2457 100.516 12.0201 100.671 11.8865 100.84V101.871C12.0385 102.079 12.2595 102.19 12.4621 102.19Z" fill="white"/>
<path fill-rule="evenodd" clip-rule="evenodd" d="M79.4699 7.77168L66.3472 0V38.3826L79.4699 30.1351V7.77168ZM40.3458 9.14042L53.4075 17.6771V30.4046L40.3458 39.0965V9.14042ZM66.4694 38.4757L53.4077 30.4046V73.2434L66.4694 64.5515V38.4757ZM79.4701 30.4622L92.5928 37.706V57.7053L79.4701 67.6262V30.4622ZM27.2844 31.6468L40.3461 39.097V58.6538L27.2844 68.277V31.6468Z" fill="white"/>
</svg>
