<svg width="162" height="48" viewBox="0 0 162 48" fill="none" xmlns="http://www.w3.org/2000/svg">
<rect x="0.75" y="0.75" width="160.5" height="46.5" rx="9.25" stroke="#0E0E0E" stroke-width="1.5"/>
<path d="M56.8625 12.1735C56.8625 13.1789 56.5652 13.9795 55.9699 14.5767C55.2937 15.2869 54.4124 15.6422 53.329 15.6422C52.2915 15.6422 51.4093 15.2822 50.6839 14.5612C49.9572 13.8408 49.5945 12.9474 49.5945 11.8814C49.5945 10.815 49.9572 9.92211 50.6839 9.20105C51.4093 8.48065 52.2915 8.12012 53.329 8.12012C53.8438 8.12012 54.3367 8.22097 54.8046 8.42208C55.2726 8.62367 55.648 8.89127 55.9288 9.2264L55.2969 9.85966C54.821 9.29015 54.1658 9.00561 53.329 9.00561C52.5723 9.00561 51.918 9.27192 51.3658 9.80486C50.8135 10.3383 50.5375 11.0302 50.5375 11.8814C50.5375 12.7327 50.8135 13.4245 51.3658 13.958C51.918 14.491 52.5723 14.7572 53.329 14.7572C54.1317 14.7572 54.8009 14.4895 55.3367 13.9533C55.6845 13.604 55.8856 13.1185 55.9395 12.495H53.3289V11.6302H56.8123C56.846 11.8182 56.8624 11.9987 56.8624 12.1735" fill="#0E0E0E"/>
<path d="M56.8623 12.1734H56.7425C56.7415 13.1558 56.455 13.9189 55.885 14.4918L55.8838 14.4927L55.8832 14.4937C55.2285 15.1794 54.3869 15.5207 53.3288 15.5221C52.319 15.5207 51.4737 15.1757 50.7679 14.4763C50.0637 13.7755 49.7155 12.92 49.7141 11.8813C49.7155 10.8421 50.0637 9.98709 50.7679 9.28679C51.4737 8.58693 52.319 8.24145 53.3288 8.23999C53.8282 8.23999 54.3037 8.33761 54.7571 8.53208C55.2111 8.72807 55.5697 8.98489 55.8368 9.30373L55.9286 9.22628L55.8439 9.14145L55.212 9.77514L55.2967 9.85954L55.389 9.78274C54.8909 9.18503 54.1919 8.88371 53.3288 8.88549C52.5441 8.88452 51.8538 9.16539 51.2828 9.71856C50.7062 10.2735 50.4166 11.0043 50.4175 11.8813C50.4166 12.7584 50.7062 13.4891 51.2828 14.0441C51.8538 14.5973 52.5441 14.8781 53.3288 14.8771C54.1581 14.8786 54.8648 14.5968 55.4212 14.038C55.7928 13.6648 56.0035 13.1479 56.0587 12.5052L56.0699 12.3749H53.4486V11.75H56.8122V11.63L56.6942 11.6511C56.727 11.8331 56.7425 12.006 56.7425 12.1734H56.9821C56.9821 11.991 56.9652 11.8035 56.9301 11.6086L56.9123 11.51H53.2091V12.6149H55.9393V12.4949L55.82 12.4846C55.7672 13.0884 55.5752 13.5431 55.2518 13.8684C54.7371 14.3821 54.1053 14.6357 53.3288 14.6371C52.6002 14.6361 51.982 14.3849 51.449 13.8716C50.9211 13.3602 50.6585 12.7073 50.6572 11.8813C50.6585 11.0553 50.9211 10.4024 51.449 9.89098C51.982 9.37772 52.6002 9.12646 53.3288 9.12549C54.139 9.12743 54.7507 9.39552 55.2051 9.93693L55.2894 10.0372L56.0134 9.31117L56.091 9.2334L56.0203 9.14938C55.726 8.79791 55.3338 8.51892 54.8517 8.31183C54.3688 8.10409 53.8591 8 53.3288 8C52.2638 7.99908 51.3446 8.37407 50.5991 9.11616C49.8508 9.85679 49.4736 10.7877 49.4746 11.8813C49.4736 12.9744 49.8508 13.9059 50.5996 14.6469C51.3446 15.3885 52.2638 15.7631 53.3288 15.7621C54.438 15.7631 55.3581 15.3941 56.0564 14.6595L55.9697 14.5766L56.0545 14.6615C56.675 14.0404 56.9829 13.2013 56.9821 12.1734H56.8623ZM62.3845 9.16583H59.1109V11.4487H62.0631V12.3139H59.1109V14.5968H62.3845V15.4813H58.1881V8.28131H62.3845V9.16583Z" fill="#0E0E0E"/>
<path d="M62.3846 9.16565V9.04565H58.9912V11.5685H61.9434V12.1934L58.9912 12.1937V14.7166H62.2648V15.3611H58.308V8.40113H62.2648V9.16565H62.3846H62.5044V8.16113H58.0684V15.6011H62.5044V14.4766H59.2308V12.4337H62.183V11.3285H59.2308V9.28565H62.5044V9.16565H62.3846ZM66.2797 15.4812H65.3554V9.1656H63.3477V8.28108H68.2875V9.1656H66.2797V15.4811" fill="#0E0E0E"/>
<path d="M66.2797 15.4812V15.3611H65.4752V9.04565H63.4675V8.40118H68.1676V9.04565H66.1599V15.4811H66.2797H66.3995V9.28565H68.4072V8.16113H63.2279V9.28559H65.2356V15.6011H66.3995V15.4811H66.2797M71.8615 15.4812V8.28108H72.7848V15.4811H71.8615" fill="#0E0E0E"/>
<path d="M71.8615 15.4812H71.9813V8.40113H72.665V15.3611H71.8615V15.4811V15.6011H72.9046V8.16113H71.7417V15.6011H71.8615V15.4811M76.8821 15.4812H75.9578V9.1656H73.9502V8.28108H78.8898V9.1656H76.8821V15.4811" fill="#0E0E0E"/>
<path d="M76.882 15.4815V15.3614H76.0775V9.04595H74.0699V8.40147H78.7699V9.04595H76.7622V15.4814H76.882H77.0018V9.28594H79.0095V8.16143H73.8303V9.28589H75.8379V15.6014H77.0018V15.4814H76.882M83.6521 13.9482C84.1841 14.4877 84.8351 14.7572 85.605 14.7572C86.3749 14.7572 87.0262 14.4877 87.5575 13.9482C88.09 13.4087 88.3568 12.719 88.3568 11.8814C88.3568 11.0439 88.09 10.3542 87.5575 9.81468C87.0262 9.27515 86.3749 9.00561 85.605 9.00561C84.8351 9.00561 84.1841 9.27515 83.6521 9.81468C83.1208 10.3542 82.8541 11.0438 82.8541 11.8814C82.8541 12.719 83.1208 13.4087 83.6521 13.9482ZM88.2407 14.5509C87.534 15.2788 86.6551 15.6422 85.605 15.6422C84.5538 15.6422 83.6754 15.2788 82.9702 14.5509C82.263 13.8238 81.9111 12.9338 81.9111 11.8814C81.9111 10.829 82.263 9.93883 82.9702 9.21189C83.6754 8.48383 84.5538 8.12012 85.605 8.12012C86.6496 8.12012 87.5261 8.48577 88.2361 9.21659C88.945 9.94735 89.2998 10.8356 89.2998 11.8814C89.2998 12.9338 88.9459 13.8238 88.2407 14.5509Z" fill="#0E0E0E"/>
<path d="M83.6521 13.9481L83.5669 14.0324C84.1187 14.5935 84.8071 14.8786 85.6051 14.8771C86.4025 14.8786 87.0918 14.5935 87.6427 14.0324C88.1982 13.4708 88.4775 12.7442 88.4767 11.8813C88.4775 11.0184 88.1982 10.2918 87.6427 9.73016C87.0918 9.16906 86.4025 8.88409 85.6051 8.88549C84.8071 8.88409 84.1187 9.16906 83.5669 9.73016C83.0128 10.2918 82.7329 11.0184 82.7344 11.8813C82.7329 12.7442 83.0128 13.4708 83.5669 14.0324L83.6521 13.9481L83.7373 13.8637C83.2291 13.3457 82.9749 12.6941 82.974 11.8813C82.9749 11.0686 83.2291 10.417 83.7373 9.89891C84.2501 9.38101 84.8627 9.12694 85.6051 9.12554C86.3468 9.12694 86.9608 9.38101 87.4724 9.89891C87.9815 10.417 88.2356 11.0686 88.2366 11.8813C88.2356 12.694 87.9815 13.3457 87.4724 13.8637C86.9608 14.3816 86.3468 14.6357 85.6051 14.6371C84.8627 14.6357 84.2502 14.3816 83.7373 13.8637L83.6521 13.9481ZM88.2408 14.5508L88.1551 14.4674C87.4682 15.1724 86.6281 15.5207 85.6051 15.5221C84.5816 15.5207 83.7415 15.1724 83.0558 14.4674C82.3703 13.76 82.032 12.907 82.031 11.8813C82.032 10.8556 82.3703 10.0026 83.0558 9.29521C83.7415 8.59017 84.5815 8.24145 85.6051 8.24005C86.6215 8.24145 87.4596 8.59162 88.1504 9.30033C88.8384 10.011 89.1786 10.8627 89.1801 11.8813C89.1786 12.907 88.8393 13.76 88.1551 14.4674L88.2408 14.5508L88.3269 14.6342C89.0532 13.8871 89.4205 12.9604 89.4197 11.8813C89.4206 10.8084 89.0518 9.88354 88.3221 9.13309C87.5921 8.37968 86.6777 7.99871 85.6051 8C84.5268 7.99871 83.6096 8.3779 82.8841 9.1284V9.12786C82.1564 9.8755 81.7904 10.8023 81.7914 11.8813C81.7904 12.9604 82.1564 13.8871 82.8841 14.6347L82.8874 14.6381L82.8841 14.6342C83.6096 15.3847 84.5268 15.7631 85.6051 15.7621C86.6828 15.7631 87.6001 15.3847 88.3269 14.6342L88.2408 14.5508ZM90.5961 15.4814V8.28125H91.7203L95.2139 13.8824H95.2537L95.2139 12.4948V8.28125H96.1382V15.4812H95.1741L91.5191 9.60871H91.4793L91.5191 10.9967V15.4812H90.5962" fill="#0E0E0E"/>
<path d="M90.5962 15.4812H90.716V8.40113H91.6539L95.1474 14.0022H95.3767L95.3337 12.4929V8.40118H96.0184V15.3611H95.2406L91.5856 9.48859H91.3563L91.3993 10.9985V15.3611H90.5962V15.4811V15.6011H91.6389V10.9947L91.5991 9.60535L91.4793 9.60858V9.72858H91.5191V9.60858L91.4175 9.67238L95.1077 15.6011H96.258V8.16113H95.0941V12.4961L95.1339 13.8855L95.2537 13.8822V13.7622H95.2139V13.8822L95.3155 13.8185L91.7867 8.16113H90.4765V15.6011H90.5962V15.4811M128.168 35.8811H130.404V20.8797H128.168L128.168 35.8811ZM148.304 26.2836L145.741 32.7874H145.665L143.005 26.2835H140.597L144.585 35.3739L142.311 40.4304H144.644L150.79 26.2835L148.304 26.2836ZM135.626 34.1773C134.893 34.1773 133.872 33.8107 133.872 32.9032C133.872 31.7453 135.145 31.3015 136.242 31.3015C137.226 31.3015 137.687 31.5138 138.285 31.8036C138.111 33.1929 136.916 34.1773 135.626 34.1773ZM135.896 25.9554C134.277 25.9554 132.601 26.6697 131.907 28.2523L133.891 29.0819C134.315 28.2523 135.105 27.9818 135.934 27.9818C137.09 27.9818 138.265 28.6769 138.285 29.9121V30.0664C137.88 29.8347 137.013 29.4874 135.953 29.4874C133.815 29.4874 131.637 30.6644 131.637 32.8647C131.637 34.872 133.391 36.1652 135.355 36.1652C136.859 36.1652 137.687 35.4897 138.208 34.6985H138.285V35.8563H140.442V30.1047C140.442 27.4418 138.458 25.9554 135.896 25.9554ZM122.08 28.1097H118.9V22.9676H122.08C123.751 22.9676 124.7 24.3536 124.7 25.5386C124.7 26.7011 123.751 28.1097 122.08 28.1097ZM122.022 20.8797H116.666V35.8811H118.9V30.1976H122.022C124.5 30.1976 126.935 28.4008 126.935 25.5386C126.935 22.6765 124.5 20.8797 122.022 20.8797ZM92.8122 34.18C91.2677 34.18 89.9747 32.8849 89.9747 31.106C89.9747 29.3084 91.2677 27.9935 92.8122 27.9935C94.3369 27.9935 95.5336 29.3084 95.5336 31.106C95.5336 32.8849 94.3369 34.18 92.8122 34.18ZM95.3791 27.1236H95.3019C94.8002 26.5244 93.8347 25.9831 92.6189 25.9831C90.0711 25.9831 87.7359 28.2255 87.7359 31.106C87.7359 33.9673 90.0711 36.1905 92.6189 36.1905C93.8347 36.1905 94.8002 35.6491 95.3019 35.0308H95.3791V35.7653C95.3791 37.7182 94.3369 38.7621 92.6577 38.7621C91.2874 38.7621 90.4381 37.7758 90.0903 36.9447L88.1412 37.7566C88.7009 39.1099 90.1872 40.7726 92.6577 40.7726C95.2827 40.7726 97.5024 39.2257 97.5024 35.456V26.2924H95.3791V27.1236ZM99.0463 35.8811H101.285V20.8792H99.0463V35.8811ZM104.586 30.9321C104.528 28.96 106.111 27.955 107.249 27.955C108.138 27.955 108.89 28.3994 109.141 29.0379L104.586 30.9321ZM111.534 29.231C111.11 28.09 109.816 25.9831 107.172 25.9831C104.547 25.9831 102.366 28.0516 102.366 31.0868C102.366 33.9481 104.528 36.1905 107.423 36.1905C109.759 36.1905 111.11 34.7598 111.67 33.9287L109.932 32.7686C109.354 33.6194 108.562 34.18 107.423 34.18C106.284 34.18 105.474 33.6579 104.952 32.6336L111.766 29.8108L111.534 29.231ZM57.2522 27.5491V29.7142H62.4248C62.2704 30.9321 61.8651 31.8213 61.2474 32.44C60.4949 33.1942 59.3175 34.0254 57.2522 34.0254C54.0674 34.0254 51.5777 31.4542 51.5777 28.2644C51.5777 25.0746 54.0674 22.5031 57.2522 22.5031C58.9701 22.5031 60.2244 23.1799 61.1509 24.0498L62.6757 22.5227C61.3827 21.2852 59.6647 20.3379 57.2522 20.3379C52.89 20.3379 49.2228 23.8952 49.2228 28.2644C49.2228 32.6336 52.89 36.1905 57.2522 36.1905C59.6071 36.1905 61.3827 35.4176 62.7722 33.9673C64.2005 32.5366 64.6446 30.5262 64.6446 28.9024C64.6446 28.3994 64.6062 27.9358 64.5285 27.5491H57.2522ZM70.5254 34.18C68.981 34.18 67.6491 32.904 67.6491 31.0868C67.6491 29.2502 68.981 27.9935 70.5254 27.9935C72.0693 27.9935 73.4011 29.2502 73.4011 31.0868C73.4011 32.9041 72.0693 34.18 70.5254 34.18ZM70.5254 25.9831C67.7071 25.9831 65.4102 28.1289 65.4102 31.0868C65.4102 34.0254 67.7071 36.1905 70.5254 36.1905C73.3432 36.1905 75.6401 34.0254 75.6401 31.0868C75.6401 28.1289 73.3432 25.9831 70.5254 25.9831ZM81.6832 34.18C80.1394 34.18 78.8074 32.904 78.8074 31.0868C78.8074 29.2502 80.1394 27.9935 81.6832 27.9935C83.2272 27.9935 84.5591 29.2502 84.5591 31.0868C84.5591 32.9041 83.2271 34.18 81.6832 34.18ZM81.6832 25.9831C78.865 25.9831 76.5686 28.1289 76.5686 31.0868C76.5686 34.0254 78.865 36.1905 81.6832 36.1905C84.5011 36.1905 86.798 34.0254 86.798 31.0868C86.798 28.1289 84.501 25.9831 81.6832 25.9831Z" fill="#0E0E0E"/>
<path d="M12.642 9.01503C12.24 9.37836 12 9.98438 12 10.7888V10.607V37.1523V36.9774C12 37.7203 12.2059 38.2941 12.5545 38.6635L12.6434 38.7489V38.7492C12.9256 39.0043 13.2874 39.1397 13.7021 39.1393C14.1073 39.1393 14.5632 39.0099 15.0443 38.7367L32.4344 28.8399L38.4078 25.4401C39.1664 25.0084 39.5923 24.4515 39.6635 23.8843V23.8819C39.5923 23.3134 39.1664 22.7569 38.4078 22.3252L32.4339 18.9258L15.0443 9.02905C14.5622 8.75535 14.106 8.62549 13.6997 8.62549C13.2856 8.62549 12.9242 8.76048 12.6422 9.01503H12.642Z" fill="#00C1FF"/>
<path d="M12.6435 38.7485L12.5545 38.6632C12.2059 38.2938 12 37.72 12 36.9771V37.152V10.6132V10.7885C12 9.98406 12.24 9.37805 12.642 9.01471L27.4858 23.8821L12.6435 38.7485Z" fill="url(#paint0_linear_1646_14588)"/>
<path d="M32.4344 28.8398L27.4858 23.8824L32.434 18.9258L38.4079 22.3252C39.1665 22.7569 39.5924 23.3133 39.6635 23.8819V23.8842C39.5924 24.4514 39.1665 25.0084 38.4079 25.44L32.4345 28.8398" fill="url(#paint1_linear_1646_14588)"/>
<path d="M13.7021 39.1387C13.2875 39.139 12.9257 39.0036 12.6436 38.7486V38.7482L27.4859 23.8818L32.4345 28.8392L15.0443 38.736C14.5632 39.0093 14.1073 39.1387 13.7021 39.1387Z" fill="url(#paint2_linear_1646_14588)"/>
<path d="M27.4859 23.8823L12.6421 9.01493C12.9243 8.76037 13.2856 8.62538 13.6997 8.62538C14.106 8.62538 14.5622 8.7552 15.0443 9.02895L32.434 18.9257L27.4859 23.8823" fill="url(#paint3_linear_1646_14588)"/>
<path d="M13.7027 39.3149C13.2881 39.3149 12.9258 39.1795 12.6436 38.9245L12.6431 38.9249C12.642 38.9237 12.6407 38.9227 12.6394 38.9217L12.5622 38.8462C12.5598 38.8438 12.5575 38.8411 12.5547 38.8383L12.6437 38.7492C12.9258 39.0041 13.2876 39.1396 13.7023 39.1391C14.1075 39.1391 14.5633 39.0098 15.0445 38.7365L32.4346 28.8398L32.546 28.9514L32.4332 29.0156L15.0444 38.9118C14.6059 39.1608 14.1889 39.2906 13.8122 39.3122C13.7757 39.314 13.7392 39.3149 13.7027 39.3149Z" fill="url(#paint4_linear_1646_14588)"/>
<path d="M12.5545 38.8384C12.2059 38.469 12 37.8957 12 37.1523V36.9774C12 37.7203 12.2059 38.2941 12.5545 38.6635L12.6434 38.7489L12.5545 38.8384Z" fill="url(#paint5_linear_1646_14588)"/>
<path d="M32.5459 28.9511L32.4344 28.8395L38.4078 25.4397C39.1665 25.0081 39.5924 24.4511 39.6636 23.8839C39.6636 24.0921 39.6172 24.3002 39.5251 24.5027C39.3392 24.911 38.9668 25.2968 38.4079 25.615L32.5459 28.9512" fill="url(#paint6_linear_1646_14588)"/>
<path d="M39.6636 23.8818C39.5924 23.3132 39.1665 22.7568 38.4079 22.3251L32.434 18.9257L32.5454 18.8141H32.5459L38.4079 22.1502C39.2442 22.6265 39.6631 23.2541 39.6636 23.8818Z" fill="url(#paint7_linear_1646_14588)"/>
<path d="M12 10.7881V10.6047C12 10.5386 12.0018 10.4739 12.0052 10.4112V10.4083C12.0052 10.4074 12.0052 10.4065 12.0055 10.4056V10.3985C12.0416 9.7586 12.24 9.25947 12.5545 8.92618L12.642 9.01425C12.24 9.37763 12 9.98365 12 10.7881Z" fill="url(#paint8_linear_1646_14588)"/>
<path d="M32.434 18.9258L15.0443 9.02892C14.5623 8.75522 14.106 8.62541 13.6998 8.62541C13.2856 8.62541 12.9243 8.7604 12.6421 9.01495L12.5546 8.92683C12.5819 8.89783 12.6103 8.86985 12.6398 8.84297C12.6407 8.842 12.6421 8.84103 12.6431 8.84011C12.923 8.5875 13.2805 8.45251 13.6909 8.45008H13.6998C14.106 8.45008 14.5623 8.57995 15.0443 8.85376L32.5459 18.8138L32.5454 18.8141L32.434 18.9258Z" fill="url(#paint9_linear_1646_14588)"/>
<defs>
<linearGradient id="paint0_linear_1646_14588" x1="21.4861" y1="10.3327" x2="8.69406" y2="23.1453" gradientUnits="userSpaceOnUse">
<stop stop-color="#00A0FF"/>
<stop offset="0.00657" stop-color="#00A1FF"/>
<stop offset="0.2601" stop-color="#00BEFF"/>
<stop offset="0.5122" stop-color="#00D2FF"/>
<stop offset="0.7604" stop-color="#00DFFF"/>
<stop offset="1" stop-color="#00E3FF"/>
</linearGradient>
<linearGradient id="paint1_linear_1646_14588" x1="40.5878" y1="23.7967" x2="11.5983" y2="23.7967" gradientUnits="userSpaceOnUse">
<stop stop-color="#FFE000"/>
<stop offset="0.4087" stop-color="#FFBD00"/>
<stop offset="0.7754" stop-color="#FFA500"/>
<stop offset="1" stop-color="#FF9C00"/>
</linearGradient>
<linearGradient id="paint2_linear_1646_14588" x1="29.8072" y1="28.5951" x2="8.13018" y2="50.1485" gradientUnits="userSpaceOnUse">
<stop stop-color="#FF3A44"/>
<stop offset="1" stop-color="#C31162"/>
</linearGradient>
<linearGradient id="paint3_linear_1646_14588" x1="8.81642" y1="6.81076" x2="18.4774" y2="16.4314" gradientUnits="userSpaceOnUse">
<stop stop-color="#32A071"/>
<stop offset="0.0685" stop-color="#2DA771"/>
<stop offset="0.4762" stop-color="#15CF74"/>
<stop offset="0.8009" stop-color="#06E775"/>
<stop offset="1" stop-color="#00F076"/>
</linearGradient>
<linearGradient id="paint4_linear_1646_14588" x1="29.7965" y1="32.0344" x2="12.4365" y2="49.4225" gradientUnits="userSpaceOnUse">
<stop stop-color="#CC2E36"/>
<stop offset="1" stop-color="#9C0E4E"/>
</linearGradient>
<linearGradient id="paint5_linear_1646_14588" x1="13.9774" y1="10.333" x2="2.70784" y2="21.6209" gradientUnits="userSpaceOnUse">
<stop stop-color="#008DE0"/>
<stop offset="0.00657" stop-color="#008DE0"/>
<stop offset="0.2601" stop-color="#00A7E0"/>
<stop offset="0.5122" stop-color="#00B8E0"/>
<stop offset="0.7604" stop-color="#00C4E0"/>
<stop offset="1" stop-color="#00C7E0"/>
</linearGradient>
<linearGradient id="paint6_linear_1646_14588" x1="40.5879" y1="23.8828" x2="11.5983" y2="23.8828" gradientUnits="userSpaceOnUse">
<stop stop-color="#E0C500"/>
<stop offset="0.4087" stop-color="#E0A600"/>
<stop offset="0.7754" stop-color="#E09100"/>
<stop offset="1" stop-color="#E08900"/>
</linearGradient>
<linearGradient id="paint7_linear_1646_14588" x1="40.5879" y1="23.883" x2="11.5984" y2="23.883" gradientUnits="userSpaceOnUse">
<stop stop-color="#FFE840"/>
<stop offset="0.4087" stop-color="#FFCE40"/>
<stop offset="0.7754" stop-color="#FFBC40"/>
<stop offset="1" stop-color="#FFB540"/>
</linearGradient>
<linearGradient id="paint8_linear_1646_14588" x1="13.9652" y1="10.3527" x2="3.11059" y2="20.7538" gradientUnits="userSpaceOnUse">
<stop stop-color="#40B8FF"/>
<stop offset="0.00657" stop-color="#40B9FF"/>
<stop offset="0.2601" stop-color="#40CEFF"/>
<stop offset="0.5122" stop-color="#40DDFF"/>
<stop offset="0.7604" stop-color="#40E7FF"/>
<stop offset="1" stop-color="#40EAFF"/>
</linearGradient>
<linearGradient id="paint9_linear_1646_14588" x1="8.7948" y1="9.95496" x2="16.5468" y2="17.7196" gradientUnits="userSpaceOnUse">
<stop stop-color="#65B895"/>
<stop offset="0.0685" stop-color="#62BD95"/>
<stop offset="0.4762" stop-color="#50DB97"/>
<stop offset="0.8009" stop-color="#44ED98"/>
<stop offset="1" stop-color="#40F498"/>
</linearGradient>
</defs>
</svg>
