<svg width="200" height="150" viewBox="0 0 200 150" fill="none" xmlns="http://www.w3.org/2000/svg">
<path d="M35.4258 123.913C35.2832 122.147 36.0597 118.671 40.3059 118.894C44.552 119.118 45.7933 115.164 45.8831 113.159" stroke="#0E0E0E" stroke-width="0.8" stroke-linecap="round"/>
<path d="M37.4477 125.431C37.3052 123.665 37.1989 120.613 41.4451 120.837C45.6912 121.06 47.8152 116.682 47.9051 114.677" stroke="#0E0E0E" stroke-width="0.8" stroke-linecap="round"/>
<g clip-path="url(#clip0_1646_4134)">
<path fill-rule="evenodd" clip-rule="evenodd" d="M47.9944 42.238L25.2093 52.5258C24.7376 52.7388 24.5277 53.2944 24.7407 53.7661C24.9536 54.2377 25.5092 54.4477 25.9809 54.2347L48.766 43.9469C49.2376 43.7339 49.4476 43.1783 49.2346 42.7066C49.0217 42.235 48.466 42.025 47.9944 42.238Z" fill="#0E0E0E"/>
<path fill-rule="evenodd" clip-rule="evenodd" d="M31.1075 51.92C30.6358 52.1329 30.0802 51.923 29.8672 51.4513L26.0093 42.9069C25.7963 42.4353 26.0063 41.8796 26.4779 41.6667L32.1742 39.0947C32.6459 38.8818 33.2015 39.0917 33.4144 39.5634L37.2724 48.1078C37.4854 48.5794 37.2754 49.1351 36.8037 49.348L39.6519 48.062C40.1235 47.8491 40.3335 47.2934 40.1205 46.8218L29.8327 24.0367C29.6197 23.5651 29.0641 23.3551 28.5924 23.5681L17.1999 28.712C16.7282 28.9249 16.5183 29.4806 16.7313 29.9522L27.0191 52.7373C27.2321 53.209 27.7877 53.4189 28.2593 53.206L31.1075 51.92ZM32.0914 41.1894L35.1777 48.0249L31.1903 49.8253L28.104 42.9898L32.0914 41.1894ZM26.7446 38.4604L26.2302 37.3211C26.0173 36.8495 25.4617 36.6395 24.99 36.8525C24.5183 37.0654 24.3084 37.6211 24.5214 38.0927L25.0357 39.232C25.2487 39.7036 25.8043 39.9136 26.276 39.7006C26.7476 39.4876 26.9576 38.932 26.7446 38.4604ZM31.3016 36.4028L30.7873 35.2635C30.5743 34.7919 30.0187 34.5819 29.547 34.7949C29.0754 35.0079 28.8654 35.5635 29.0784 36.0351L29.5928 37.1744C29.8057 37.646 30.3613 37.856 30.833 37.643C31.3046 37.4301 31.5146 36.8745 31.3016 36.4028ZM28.7297 30.7065L28.2153 29.5673C28.0023 29.0956 27.4467 28.8857 26.9751 29.0986C26.5034 29.3116 26.2934 29.8672 26.5064 30.3389L27.0208 31.4781C27.2338 31.9498 27.7894 32.1597 28.261 31.9468C28.7327 31.7338 28.9426 31.1782 28.7297 30.7065ZM24.1727 32.7641L23.6583 31.6248C23.4453 31.1532 22.8897 30.9432 22.418 31.1562C21.9464 31.3692 21.7364 31.9248 21.9494 32.3964L22.4638 33.5357C22.6767 34.0073 23.2324 34.2173 23.704 34.0043C24.1757 33.7914 24.3856 33.2357 24.1727 32.7641Z" fill="#0E0E0E"/>
<path fill-rule="evenodd" clip-rule="evenodd" d="M32.6438 27.2249L37.4856 25.0387C37.9573 24.8257 38.5129 25.0357 38.7259 25.5073L46.9561 43.7354C47.1691 44.2071 46.9591 44.7627 46.4875 44.9756L41.4543 47.2482C41.4605 46.9341 41.3977 46.6127 41.2599 46.3074L32.6438 27.2249ZM39.1108 36.9914L39.6252 38.1306C39.8382 38.6023 40.3938 38.8122 40.8654 38.5993C41.3371 38.3863 41.547 37.8307 41.3341 37.359L40.8197 36.2198C40.6067 35.7481 40.0511 35.5382 39.5794 35.7511C39.1078 35.9641 38.8978 36.5197 39.1108 36.9914ZM38.7621 31.6628L38.2477 30.5235C38.0348 30.0519 37.4791 29.8419 37.0075 30.0549C36.5358 30.2678 36.3259 30.8235 36.5388 31.2951L37.0532 32.4344C37.2662 32.906 37.8218 33.116 38.2935 32.903C38.7651 32.69 38.9751 32.1344 38.7621 31.6628Z" fill="#0E0E0E"/>
</g>
<mask id="mask0_1646_4134" style="mask-type:alpha" maskUnits="userSpaceOnUse" x="45" y="34" width="110" height="98">
<rect x="45" y="34" width="110" height="97.3684" fill="#D9D9D9"/>
</mask>
<g mask="url(#mask0_1646_4134)">
<path d="M144.173 34.4785H65.0794C59.404 34.4785 54.8031 39.0794 54.8031 44.7548V217.758C54.8031 223.433 59.404 228.034 65.0794 228.034H144.173C149.849 228.034 154.45 223.433 154.45 217.758V44.7548C154.45 39.0794 149.849 34.4785 144.173 34.4785Z" fill="#0E0E0E"/>
<path d="M135.375 34.4785H56.2812C50.6057 34.4785 46.0049 39.0794 46.0049 44.7548V217.758C46.0049 223.433 50.6057 228.034 56.2812 228.034H135.375C141.051 228.034 145.651 223.433 145.651 217.758V44.7548C145.651 39.0794 141.051 34.4785 135.375 34.4785Z" fill="white"/>
<path d="M135.373 228.511H56.2812C53.4297 228.508 50.696 227.374 48.6797 225.357C46.6634 223.341 45.5293 220.607 45.5262 217.756V44.7549C45.5293 41.9035 46.6634 39.1697 48.6797 37.1534C50.696 35.1372 53.4297 34.0031 56.2812 34H135.373C138.225 34.0031 140.958 35.1372 142.975 37.1534C144.991 39.1697 146.125 41.9035 146.128 44.7549V217.756C146.125 220.607 144.991 223.341 142.975 225.357C140.958 227.374 138.225 228.508 135.373 228.511ZM56.2812 34.9495C53.6834 34.9525 51.1929 35.9857 49.3558 37.8224C47.5188 39.6591 46.4851 42.1494 46.4815 44.7472V217.748C46.4846 220.346 47.518 222.837 49.3552 224.674C51.1923 226.511 53.6831 227.545 56.2812 227.548H135.373C137.971 227.545 140.462 226.511 142.299 224.674C144.136 222.837 145.17 220.346 145.173 217.748V44.7549C145.169 42.1572 144.136 39.6669 142.298 37.8301C140.461 35.9934 137.971 34.9603 135.373 34.9572L56.2812 34.9495Z" fill="#142949"/>
<path d="M133.914 220.933H58.4253C56.1336 220.93 53.9364 220.019 52.3154 218.399C50.6944 216.779 49.7818 214.582 49.7777 212.291V52.3083C49.7803 50.0156 50.6922 47.8176 52.3133 46.1964C53.9345 44.5752 56.1326 43.6633 58.4253 43.6608H133.914C136.207 43.6633 138.405 44.5752 140.026 46.1964C141.647 47.8176 142.559 50.0156 142.562 52.3083V212.291C142.558 214.582 141.645 216.779 140.024 218.399C138.403 220.019 136.206 220.93 133.914 220.933ZM58.4253 44.232C56.2842 44.2345 54.2317 45.0863 52.7179 46.6004C51.2042 48.1145 50.3529 50.1673 50.3509 52.3083V212.291C50.3534 214.431 51.2049 216.484 52.7186 217.997C54.2323 219.511 56.2846 220.363 58.4253 220.365H133.914C136.055 220.363 138.107 219.511 139.621 217.997C141.135 216.484 141.986 214.431 141.989 212.291V52.3083C141.986 50.1676 141.135 48.1154 139.621 46.6017C138.107 45.088 136.055 44.2365 133.914 44.2339L58.4253 44.232Z" fill="#1A2E4F"/>
<path d="M94.1426 42.634C95.7839 42.634 97.1145 41.3035 97.1145 39.6621C97.1145 38.0208 95.7839 36.6902 94.1426 36.6902C92.5012 36.6902 91.1707 38.0208 91.1707 39.6621C91.1707 41.3035 92.5012 42.634 94.1426 42.634Z" fill="#0E0E0E"/>
<path fill-rule="evenodd" clip-rule="evenodd" d="M106.168 72.046L99.3364 68V87.9822L106.168 83.6885V72.046ZM85.7999 72.7584L92.5999 77.2027V83.8287L85.7999 88.3538V72.7584ZM85.7999 88.3538L85.8 88.3538V98.5352L79 103.545V84.4752L85.7999 88.3538ZM99.4001 88.0307L92.6001 83.8288V106.131L99.4001 101.606V88.0307ZM106.168 83.859L113 87.6302V98.0419L106.168 103.207V83.859Z" fill="black"/>
</g>
<g clip-path="url(#clip1_1646_4134)">
<path d="M169.172 109.387C169.937 110.056 171.134 110.174 172.016 109.669C172.898 109.164 173.402 108.072 173.213 107.073C173.023 106.074 172.157 105.242 171.151 105.093C168.748 104.739 167.34 107.788 169.172 109.387ZM172.607 107.188C172.787 108.141 172.139 109.252 170.976 109.356C170.494 109.298 170.052 108.928 169.832 108.506C169.323 107.527 169.785 106.19 171.073 105.706C171.822 105.822 172.466 106.443 172.607 107.188Z" fill="#0E0E0E"/>
<path d="M172.309 102.4C169.466 102.096 166.653 103.37 165.251 105.12C164.489 106.079 164.262 106.591 163.927 107.596C162.14 112.96 166.032 118.328 171.256 118.599C172.773 123.218 174.091 126.974 175.282 130.065C175.379 130.317 175.568 130.521 175.814 130.639L178.173 131.772C178.445 131.902 178.763 131.922 179.085 131.769C180.051 131.525 180.414 130.209 181.255 128.618C181.377 128.369 181.428 128.085 181.379 127.812C181.249 127.096 180.674 127.008 180.197 126.733C179.986 126.611 179.933 126.333 180.068 126.129C180.349 125.705 180.522 125.205 180.461 124.706C180.405 124.253 179.967 123.744 179.552 123.555C179.415 123.493 179.272 123.44 179.128 123.394C178.857 123.308 178.742 122.987 178.905 122.754C179.148 122.406 179.358 122.039 179.459 121.63C179.607 121.028 179.478 120.386 178.958 120.048C178.59 119.81 178.084 119.719 177.723 119.47C177.262 119.151 177.173 118.577 176.982 118.05C176.915 117.864 176.869 117.696 176.829 117.535C178.853 115.878 180.14 113.328 180.17 110.712C180.221 106.38 176.93 102.487 172.309 102.4ZM178.976 109.632C179.322 112.25 178.185 115.201 175.729 116.824C175.726 116.825 175.688 116.861 175.669 116.883C175.553 117.017 175.609 117.14 175.608 117.183C176.628 119.995 176.52 119.994 176.725 120.092L178.191 120.796C178.415 120.903 178.506 121.173 178.402 121.396L177.485 123.306C177.41 123.464 177.476 123.644 177.63 123.717L179.248 124.494C179.5 124.615 179.592 124.913 179.478 125.147C178.782 126.664 178.666 126.681 178.74 126.892C178.768 126.969 178.824 127.032 178.898 127.068C180.049 127.662 180.266 127.623 180.37 127.92C180.41 128.033 180.404 128.154 180.351 128.263C178.977 131.024 179.085 131.128 178.78 131.235C178.668 131.274 178.547 131.267 178.44 131.216C176.072 130.036 175.966 130.129 175.858 129.844C172.619 121.442 171.969 118.189 171.612 118.024C171.447 117.948 168.824 118.121 166.483 115.858C163.531 113.021 163.387 108.457 165.733 105.505C167.194 103.682 170.309 102.483 173.144 103.16C176.126 103.877 178.579 106.598 178.976 109.632Z" fill="#0E0E0E"/>
<path d="M168.108 122.598C168.019 122.744 168.062 122.933 168.207 123.023C168.352 123.113 168.542 123.069 168.632 122.924C169.768 121.092 169.726 121.179 169.747 121.116C169.862 120.77 169.385 120.547 169.193 120.855L168.108 122.598Z" fill="#0E0E0E"/>
<path d="M165.259 122.361C165.38 122.48 165.576 122.477 165.694 122.355C166.416 121.614 167.234 120.97 168.124 120.441C168.271 120.353 168.317 120.164 168.231 120.018C168.144 119.872 167.955 119.824 167.809 119.911C166.872 120.467 166.012 121.145 165.253 121.925C165.132 122.047 165.137 122.242 165.259 122.361Z" fill="#0E0E0E"/>
<path d="M167.08 119.052C167.087 118.882 166.954 118.739 166.784 118.732L164.141 118.632C163.971 118.626 163.828 118.758 163.822 118.929C163.815 119.099 163.948 119.242 164.118 119.248L166.76 119.348C166.93 119.355 167.073 119.223 167.08 119.052Z" fill="#0E0E0E"/>
</g>
<path d="M153.748 18.0007L155.465 24.8212L162.498 24.7484L155.677 26.4649L155.75 33.4976L154.034 26.6772L147.001 26.7499L153.821 25.0335L153.748 18.0007Z" fill="#0E0E0E"/>
<path d="M163.616 25.5546L164.564 29.3211L168.447 29.2809L164.681 30.2288L164.721 34.1126L163.773 30.3461L159.889 30.3863L163.656 29.4384L163.616 25.5546Z" fill="#0E0E0E"/>
<defs>
<clipPath id="clip0_1646_4134">
<rect width="30" height="30" fill="white" transform="translate(12 29.3455) rotate(-24.3)"/>
</clipPath>
<clipPath id="clip1_1646_4134">
<rect width="30" height="30" fill="white" transform="translate(154.252 125.714) rotate(-71.5715)"/>
</clipPath>
</defs>
</svg>
