<svg width="658" height="125" viewBox="0 0 658 125" fill="none" xmlns="http://www.w3.org/2000/svg">
<path d="M620.151 18.8372L611.545 39.6003H613.591L629.901 18.8372H620.151Z" fill="black"/>
<path d="M316.409 69.2104C310.932 69.2104 306.057 67.8262 302.507 66.0207L298.956 69.2104H297.331L296.188 48.8686L298.113 48.688C303.891 61.8681 310.692 66.0809 317.011 66.0809C323.631 66.0809 327.422 61.8079 327.422 56.0303C327.422 50.5537 325.316 47.8455 316.71 44.2947C313.761 43.091 310.391 41.8874 307.562 40.5634C301.122 37.3737 297.752 32.3183 297.752 25.638C297.752 14.7449 307.201 8.12476 316.409 8.12476C320.983 8.12476 324.112 9.3886 327.122 11.1339L330.672 8.00439H332.297L333.862 25.9389L332.057 26.2398C327.001 16.1893 321.645 11.1941 315.687 11.1941C310.451 11.1941 306.96 14.6847 306.96 20.1012C306.96 24.4343 308.766 27.6842 315.265 30.573C318.455 32.0174 322.247 33.3414 325.617 34.9663C333.019 38.5171 336.51 43.2114 336.51 50.0121C336.51 62.1088 326.339 69.2104 316.409 69.2104Z" fill="black"/>
<path d="M364.856 27.6239C358.417 27.6239 354.505 34.7856 354.505 47.3037C354.505 59.6412 358.717 66.7428 365.217 66.7428C371.898 66.7428 375.569 59.581 375.569 47.063C375.629 34.6653 371.657 27.6239 364.856 27.6239ZM364.495 69.3306C350.593 69.3306 343.732 59.3403 343.732 47.1833C343.732 35.9291 351.616 25.0962 365.699 25.0962C379.601 25.0962 386.281 34.9662 386.281 47.063C386.341 58.4375 378.638 69.3306 364.495 69.3306Z" fill="black"/>
<path d="M406.201 68.9695C398.979 68.9695 396.693 65.4188 396.693 58.7986V31.4154H389.892V30.1516L398.317 23.4713L404.998 14.7448H406.382V26.661H420.284V31.4154H406.382V55.1275C406.382 58.7986 406.924 60.9652 408.789 62.2892C410.354 63.3725 412.46 63.7336 415.47 63.7336C416.914 63.7336 418.78 63.6133 420.525 63.5531L420.585 64.8169C417.034 67.0437 411.136 68.9695 406.201 68.9695Z" fill="black"/>
<path d="M448.992 32.0173C445.502 32.0173 442.854 32.6793 439.483 34.3042V64.6364L444.599 66.5623V67.8261H423.896V66.5623L429.673 64.6364V9.32835L423.354 5.23591V4.33317L439.122 0L439.483 0.300915V32.3784L439.844 32.5589C445.261 27.4434 450.196 25.1565 455.131 25.1565C463.376 25.1565 466.866 31.3553 466.866 37.9152V64.7568L472.644 66.6827V67.9465H451.941V66.6827L457.057 64.7568V41.6466C457.057 35.6283 454.649 32.0173 448.992 32.0173Z" fill="black"/>
<path d="M504.42 40.9243C504.059 32.3181 501.591 27.6239 496.175 27.6239C490.879 27.6239 486.726 33.2209 486.305 41.7067L504.42 40.9243ZM486.184 44.0538C486.184 55.6691 489.495 63.3123 499.846 63.3123C504.42 63.3123 508.211 62.4096 513.688 60.3634L514.23 61.4467C508.633 66.3215 502.374 69.3306 496.536 69.3306C483.958 69.3306 475.713 60.7245 475.713 47.9657C475.713 34.8458 485.583 25.0962 496.777 25.0962C508.873 25.0962 514.711 33.2209 514.651 44.0538H486.184Z" fill="black"/>
<path d="M540.589 31.4757C537.821 31.4757 535.534 32.0173 533.367 32.92V61.9282C536.196 64.8772 539.867 66.141 543.358 66.141C548.774 66.141 553.228 61.2662 553.228 48.3871C553.228 37.0727 548.353 31.4757 540.589 31.4757ZM539.024 69.3307C534.27 69.3307 527.951 68.2474 523.557 66.9234V9.32835L517.118 5.23591V4.33317L532.946 0L533.307 0.300915V30.9942L533.668 31.1747C536.858 27.9851 541.251 25.1565 546.969 25.1565C555.695 25.1565 563.579 33.1006 563.579 46.2205C563.579 59.22 553.649 69.3307 539.024 69.3307Z" fill="black"/>
<path d="M588.676 70.7148C584.102 81.969 579.769 86.904 574.112 86.904C569.237 86.904 566.95 84.0754 566.95 81.1264C566.95 78.2978 569.538 75.8905 572.427 75.8905C575.556 75.8905 577.362 77.5155 579.589 80.2839C581.334 78.358 583.44 75.0479 584.644 72.5203L586.209 69.0297L570.02 29.9108L564.423 27.7442V26.5405H586.75V27.7442L580.913 29.9108L590.783 56.7524H591.264L600.231 30.5728L594.935 27.7442V26.5405H610.703V27.7442L604.745 30.7533L588.676 70.7148Z" fill="black"/>
<path d="M640.915 69.3308C635.86 69.3308 631.587 68.4882 627.374 66.8633L627.314 54.7665L629.119 54.5859C634.054 63.3125 637.846 66.5623 642.661 66.5623C646.994 66.5623 649.642 63.7939 649.642 59.5811C649.642 54.8267 644.767 52.961 639.591 50.8546C633.814 48.3871 627.675 45.6187 627.675 38.0356C627.675 30.8137 634.115 25.0361 643.443 25.0361C646.994 25.0361 652.049 25.7583 654.517 26.6611L654.818 37.5542L653.072 38.0356C648.559 30.6331 645.67 27.8046 641.457 27.8046C637.605 27.8046 635.198 30.3924 635.198 33.6423C635.198 38.3967 640.133 40.3226 645.369 42.429C651.146 44.8363 657.345 47.5445 657.345 55.3683C657.285 63.9143 649.762 69.3308 640.915 69.3308Z" fill="black"/>
<path d="M297.331 124.579H299.377V103.274H297.331V124.579ZM306.78 124.579H308.705V106.464H308.766L320.862 124.579H322.668V103.274H320.742V120.847H320.682L308.946 103.274H306.78V124.579ZM334.223 124.579H336.269V105.14H343.13V103.214H327.302V105.14H334.163V124.579H334.223ZM347.764 124.579H361.125V122.713H349.75V114.227H357.754V112.362H349.75V105.14H360.463V103.214H347.704V124.579H347.764ZM366.601 124.579H368.587V115.07H373.883L379.119 124.639H381.406L375.99 114.829C379.059 114.227 381.105 112.542 381.105 109.051C381.105 105.32 378.457 103.274 373.703 103.274H366.601V124.579ZM368.587 113.204V105.14H373.522C377.073 105.14 379.059 106.163 379.059 109.112C379.059 112.181 377.073 113.204 373.583 113.204H368.587ZM388.207 124.579H390.133V106.464H390.193L402.35 124.579H404.155V103.274H402.23V120.847H402.169L390.434 103.274H388.267V124.579H388.207ZM409.692 124.579H411.678L413.965 118.019H422.571L424.858 124.579H426.965L419.442 103.154H417.215L409.692 124.579ZM414.567 116.213L418.238 105.621H418.298L421.97 116.213H414.567ZM435.21 124.579H437.256V105.14H444.117V103.214H428.289V105.14H435.21V124.579ZM448.992 124.579H451.038V103.274H448.992V124.579ZM466.204 125C471.44 125 475.171 120.607 475.171 113.926C475.171 107.246 471.38 102.853 466.204 102.853C460.968 102.853 457.237 107.246 457.237 113.926C457.177 120.607 460.968 125 466.204 125ZM466.204 123.194C462.172 123.194 459.283 119.764 459.283 113.986C459.283 108.209 462.172 104.779 466.204 104.779C470.236 104.779 473.125 108.149 473.125 113.986C473.125 119.764 470.236 123.194 466.204 123.194ZM481.731 124.579H483.657V106.464H483.717L495.814 124.579H497.62V103.274H495.694V120.847H495.633L483.898 103.274H481.731V124.579ZM503.156 124.579H505.142L507.429 118.019H516.096L518.383 124.579H520.489L512.966 103.154H510.739L503.156 124.579ZM508.031 116.213L511.702 105.621H511.763L515.434 116.213H508.031ZM526.146 124.579H538.604V122.713H528.192V103.274H526.146V124.579ZM550.821 124.579H552.807V115.07H558.103L563.339 124.639H565.626L560.27 114.829C563.339 114.227 565.385 112.542 565.385 109.051C565.385 105.32 562.737 103.274 557.983 103.274H550.821V124.579ZM552.867 113.204V105.14H557.802C561.353 105.14 563.339 106.163 563.339 109.112C563.339 112.181 561.353 113.204 557.863 113.204H552.867ZM571.885 124.579H585.246V122.713H573.931V114.227H581.936V112.362H573.931V105.14H584.644V103.214H571.885V124.579ZM587.834 124.579H589.82L592.107 118.019H600.773L603.06 124.579H605.166L597.644 103.154H595.417L587.834 124.579ZM592.769 116.213L596.44 105.621H596.5L600.171 116.213H592.769ZM610.342 124.579H622.8V122.713H612.388V103.274H610.342V124.579ZM628.517 124.579H630.564V105.14H637.424V103.214H621.596V105.14H628.457V124.579H628.517ZM646.873 124.579H648.919V115.19L656.081 103.274H653.915L647.956 113.445L641.938 103.274H639.711L646.873 115.19V124.579Z" fill="black"/>
<path d="M21.5075 54.5057C23.5558 58.323 26.6283 61.4886 28.2111 65.6784C28.5835 66.7026 30.0732 67.1681 30.2594 68.4716C30.7249 68.9371 31.0042 69.4957 31.3767 70.0544C31.3767 70.2406 31.3767 70.5199 31.4698 70.7061C32.1215 71.2647 32.1215 72.1958 32.9595 72.6613C35.6595 76.9442 38.3596 81.2271 41.0597 85.4168C41.4321 86.0686 42.2701 86.3479 42.0838 87.3721C42.7356 88.7686 42.0838 89.4204 40.7804 89.4204C39.4769 89.4204 38.0803 89.8859 36.8699 88.8618C36.7768 88.0238 36.1251 87.5583 35.6595 87.0927C34.9147 86.441 34.5423 85.6962 34.5423 84.7651C33.9836 83.9271 33.425 83.1823 32.6802 82.4374C31.1905 79.6443 29.3283 77.1304 27.5593 74.5235C27.1869 74.0579 26.9076 73.5924 26.9076 73.0338C26.2558 72.2889 25.7903 71.3578 25.0455 70.7061C24.7662 69.5888 24.1144 68.5647 23.4627 67.8198C21.4143 65.306 20.1109 62.3266 18.3419 59.7196C17.9694 59.2541 17.3177 58.9748 17.2246 58.1368C17.2246 57.8575 16.5728 57.7644 16.2935 58.1368C15.3625 59.6265 13.6866 60.4645 12.8486 62.0473C12.1969 62.7921 11.6382 63.537 10.8934 64.2818C9.31059 65.9577 7.07604 67.1681 6.4243 69.5888C5.77256 70.2406 5.86567 71.0785 5.86567 71.9165C5.86567 77.1304 5.86567 82.3443 5.86567 87.5583C5.86567 88.3962 5.95877 89.3273 5.30703 90.0721C0 90.3514 0 90.3514 0 85.1375C0 67.1681 0 49.1056 0 31.1361C1.67591 30.112 3.44492 30.2982 5.21393 30.9499C5.86567 31.7879 5.77256 32.7189 5.77256 33.65C5.77256 42.3088 5.77256 50.8746 5.77256 59.5334C5.77256 60.6507 5.86567 61.6748 7.44847 60.93C8.47263 59.4403 9.40369 57.8575 10.8934 56.7402C11.7313 56.2747 12.0107 55.3436 12.7555 54.785C13.5003 53.9471 14.3383 53.2953 15.0831 52.5505C16.6659 50.5952 18.1556 48.5469 19.8315 46.7779C22.4385 43.8916 25.1386 41.1916 27.5593 38.3053C29.3283 36.1638 31.2836 34.3017 32.9595 32.0672C33.6112 31.2292 34.263 30.9499 35.2871 31.043C36.4975 31.1361 37.801 31.043 39.1045 31.043C39.4769 31.043 39.9424 30.9499 40.1286 31.3223C40.4079 31.7879 39.9424 32.1603 39.7562 32.4396C39.3838 32.9051 38.732 33.1844 38.3596 33.65C35.194 37.7466 31.2836 41.2847 27.9318 45.2882C26.2558 47.3365 24.2075 49.1987 22.7178 51.4332C22.4385 51.8987 21.5075 51.5263 21.6006 52.4574C20.6695 53.016 20.7626 53.7608 21.5075 54.5057Z" fill="#020705"/>
<path d="M200.55 85.9755C199.899 85.3238 200.085 84.4858 200.085 83.6479C200.085 75.5477 200.085 67.5406 200.085 59.4403C200.085 58.5093 200.178 57.5782 199.619 56.7403C199.619 56.0885 199.526 55.5299 199.526 54.8782C198.874 54.2264 198.781 53.3885 198.409 52.6436C198.13 52.3643 197.943 52.085 197.664 51.8057C196.454 50.2229 194.964 48.8263 193.102 48.0814C189.936 46.7779 182.488 46.6848 179.136 48.0814C178.112 48.0814 177.367 48.9194 176.529 49.1056C173.363 49.6642 171.315 52.085 168.801 53.6678C167.405 54.5988 167.684 55.9023 169.36 56.7403C170.105 57.392 170.85 57.2989 171.687 56.8334C172.246 56.8334 172.619 56.6472 172.991 56.3679C175.226 54.6919 177.553 53.2954 180.253 52.6436C183.791 51.8988 187.329 51.8057 190.867 52.6436C191.519 53.3885 192.543 53.7609 193.102 54.5988C193.567 55.0644 193.94 55.5299 194.219 56.1816C194.219 56.7403 194.312 57.392 194.312 57.9507C195.15 59.4403 195.336 60.93 194.126 62.4197C193.474 62.8853 192.543 62.6991 191.891 63.2577C190.96 63.2577 189.936 63.3508 189.005 63.3508C187.981 64.1887 186.584 63.6301 185.56 64.375C185.188 64.375 184.815 64.4681 184.443 64.4681C183.791 65.1198 182.86 65.0267 182.115 65.4922C179.508 65.7715 177.274 66.8888 175.039 68.0061C173.55 68.7509 171.874 69.3096 170.663 70.5199C167.405 73.8718 165.543 77.7822 166.287 82.6237C166.939 83.6479 166.939 84.9514 167.498 85.9755C168.429 86.9997 169.267 88.2101 170.477 89.048C171.315 89.3273 172.153 89.4204 172.805 90.1653C176.715 90.9101 180.626 91.0032 184.443 90.0722C185.746 89.048 187.702 89.2342 189.005 88.2101C189.75 88.0238 190.495 87.7445 190.867 87.0928C191.147 85.7893 192.916 86.5342 193.195 85.3238C194.219 84.8582 194.778 85.1376 194.871 86.2548C194.964 87.279 195.057 88.3032 195.616 89.3273C197.292 90.1653 199.061 90.0722 200.83 89.5135C200.643 88.2101 200.643 87.0928 200.55 85.9755ZM194.219 79.5512C194.219 80.3892 193.754 80.6685 193.102 80.6685C192.45 81.4133 191.24 81.5064 190.774 82.5306C189.098 83.4617 187.702 84.9514 185.56 84.8582C185.002 85.3238 184.071 85.2307 183.512 85.8824C183.046 85.8824 182.488 85.9755 182.022 85.9755C180.626 86.7204 179.229 86.7204 177.832 85.9755C177.181 85.9755 176.622 85.8824 175.97 85.8824C175.505 85.4169 174.946 85.0445 174.388 84.8582C172.805 84.9514 172.432 83.9272 172.432 82.6237C171.967 82.0651 172.06 81.134 171.408 80.5754C171.036 78.1546 171.594 75.9201 173.456 74.3373C175.132 72.9407 176.436 71.0786 178.857 70.7062C179.974 70.5199 181.091 69.8682 182.115 69.4027C185.653 67.913 189.378 67.5406 193.102 66.6095C193.381 66.5164 193.754 66.6095 194.033 66.6095C194.498 67.075 194.592 67.7268 194.592 68.3785C194.592 71.5441 194.592 74.6166 194.592 77.7822C194.778 78.4339 194.685 78.9926 194.219 79.5512Z" fill="#020705"/>
<path d="M158.652 65.4922C158.652 64.7474 158.559 64.0025 158.559 63.2577C158.279 62.2335 158.093 61.1162 157.535 60.1852C157.441 57.5782 155.859 55.7161 154.741 53.6678C153.624 51.7125 151.576 50.6884 149.9 49.2918C149.434 48.5469 148.783 48.3607 148.038 48.1745C144.034 46.7779 140.031 46.4986 136.027 48.0814C135.189 48.3607 134.351 48.4538 133.7 49.1987C132.21 50.0366 130.441 50.5953 129.603 52.2712C128.858 53.2022 128.02 54.0402 127.182 54.785C126.437 55.2506 126.437 56.0885 126.158 56.7403C125.134 58.3231 124.296 60.0921 124.203 62.0473C123.365 66.5164 123.458 70.9854 124.203 75.4545C124.296 76.5718 124.575 77.596 124.948 78.7132C126.344 82.3444 128.206 85.4169 131.465 87.7445C134.444 89.8859 137.796 90.6308 141.241 91.1894C142.824 91.4687 144.407 90.7239 145.989 90.5377C149.714 89.979 152.693 88.21 155.3 85.6962C156.138 84.8582 157.441 84.0203 157.628 82.6237C158.093 81.9719 158.093 81.3202 157.535 80.6685C156.697 80.1098 156.045 78.8994 154.835 79.4581C154.09 79.8305 153.717 80.6685 153.159 81.3202C151.948 82.7168 150.552 84.0203 148.876 84.7651C148.131 84.9513 147.479 85.3237 146.921 85.7893C146.176 85.7893 145.431 85.8824 144.779 85.9755C143.01 86.8134 141.241 86.9066 139.472 85.9755C138.448 86.0686 137.796 85.3237 136.958 85.0444C132.489 83.0892 130.627 79.4581 129.603 74.989C128.672 73.6855 129.137 72.1958 129.137 70.7992C129.137 70.0544 129.882 70.2406 130.348 70.2406H147.2C150.459 70.2406 153.81 70.2406 157.069 70.2406C158.931 70.2406 159.397 69.682 159.49 67.8198C159.211 66.9819 159.21 66.1439 158.652 65.4922ZM153.252 65.3991C152.6 66.1439 151.762 66.0508 150.924 66.0508C144.407 66.0508 137.982 66.0508 131.465 66.0508C130.813 66.0508 130.068 66.0508 129.51 65.6784C128.765 64.8405 128.858 64.0025 129.417 63.1646C129.51 62.5128 129.51 61.9542 129.51 61.3024C130.255 60.6507 130.348 59.8127 130.534 58.9748C130.441 57.9506 131.837 57.7644 131.651 56.7403C132.675 55.7161 133.42 54.5057 134.631 53.6678H134.724C135.562 53.3884 136.493 53.2953 136.958 52.4574C138.448 51.9919 139.844 51.8056 141.334 51.8056C143.01 51.8056 144.686 52.085 146.455 52.4574C148.876 53.6678 150.459 55.9023 151.762 57.9506C152.972 60.1852 153.624 62.7921 153.252 65.3991Z" fill="#020705"/>
<path d="M85.1924 63.1646C84.4476 60.4645 83.7027 57.8576 82.0268 55.4368C80.5371 53.2954 78.7681 51.6195 76.7198 50.0367C75.3232 49.0125 74.0197 48.0815 72.2507 47.9884C68.6196 46.5918 64.8954 46.5918 61.2642 47.9884C61.078 47.9884 60.7987 47.9884 60.5194 48.0815C59.6814 48.2677 58.8435 48.4539 58.1917 49.1987C56.4227 49.1056 55.6779 50.5022 54.5606 51.4333C52.1399 53.4816 50.3709 55.9955 49.2536 59.068C48.6018 60.7439 48.5087 62.4198 48.0432 64.0026C47.1121 67.4475 47.2984 70.7993 47.9501 74.3373C48.3225 76.3856 49.1605 78.2478 49.4398 80.2961C49.7191 80.8547 50.0915 81.4134 50.464 81.8789C50.6502 82.2513 50.5571 82.6237 50.8364 82.9962C52.7916 85.6031 55.3055 87.4652 58.0055 89.1411C58.9366 89.1411 59.7745 89.5136 60.3332 90.1653C64.2436 90.8171 68.1541 91.1895 72.0645 90.2584C73.9266 89.7929 75.6956 88.8618 77.1853 87.7446C78.5819 86.7204 80.2578 85.6962 80.8165 83.8341C81.6544 83.1824 81.8406 82.1582 82.6786 81.5065C82.7717 80.7616 83.3303 80.1099 83.7027 79.5512C84.2614 78.5271 83.9821 77.1305 84.82 76.1994C84.82 75.5477 84.9131 74.9891 84.9131 74.3373C85.0993 73.7787 85.4717 73.3132 85.3786 72.7545C85.5649 69.4958 86.1235 66.3302 85.1924 63.1646ZM79.8854 73.0338C79.8854 73.6856 79.7923 74.2442 79.7923 74.896C79.3268 75.6408 79.3268 76.5719 78.7681 77.2236C78.8612 78.5271 77.2784 79.1788 77.5578 80.5754C76.9991 81.3203 76.5336 82.0651 75.6956 82.5306C74.4853 83.1824 73.7404 84.579 72.3438 84.8583C71.6921 85.51 70.5748 85.1376 70.0162 85.9756C69.6438 85.9756 69.2713 86.0687 68.8989 86.0687C67.5023 86.8135 66.1057 86.8135 64.7091 86.0687C63.0332 86.5342 62.1022 84.8583 60.6125 84.8583C60.147 84.3927 59.5883 84.0203 59.1228 83.741C58.378 83.2755 57.7262 82.6237 57.2607 81.8789C56.702 81.5065 56.5158 80.8547 56.1434 80.3892C55.1192 79.1788 54.933 77.596 54.1882 76.2925C53.3502 71.8235 53.4433 67.3544 54.002 62.8853C54.1882 61.5818 55.1192 60.5577 55.3055 59.2542C56.3296 57.2058 58.0986 55.7161 59.5883 54.0402C60.3332 53.7609 61.2642 53.5747 61.8229 52.923C63.5919 52.5505 65.3609 52.2712 67.0368 52.2712C68.4334 52.2712 69.83 52.4574 71.2266 52.923C72.6231 54.2265 74.7646 54.2265 75.8818 55.9955C76.4405 56.9265 77.1853 57.8576 77.744 58.8817C77.9302 59.5335 78.3957 59.999 78.7681 60.4645C78.7681 60.837 78.8612 61.2094 78.8612 61.4887C79.3268 62.0473 79.2337 62.9784 79.8854 63.4439C79.9785 64.1888 79.9785 64.9336 79.9785 65.6785C80.7234 68.0061 80.7234 70.52 79.8854 73.0338Z" fill="#020705"/>
<path d="M104.465 52.6437C105.675 51.7126 106.978 50.9678 108.003 49.8505C108.561 49.1988 109.12 49.2919 109.679 49.1988C110.33 48.547 111.168 48.2677 112.006 48.0815C113.961 46.9642 116.103 46.9642 118.337 46.9642C119.268 46.9642 119.641 47.2436 119.548 48.2677C119.455 51.6195 119.175 52.0851 115.824 52.2713C112.844 52.4575 110.33 53.6679 107.723 55.1576C105.116 56.6472 103.999 58.9749 102.509 61.2094C102.137 62.1405 101.858 63.0715 101.671 64.0957C101.485 72.1959 101.578 80.3892 101.671 88.4895C101.671 88.7688 101.578 88.955 101.392 89.1412C100.275 89.9791 98.9714 89.6067 97.761 89.5136C97.2023 89.5136 96.923 88.955 96.8299 88.4895C96.7368 88.0239 96.7368 87.4653 96.7368 86.9998C96.7368 74.896 96.7368 62.7922 96.7368 50.6885C96.7368 48.4539 97.1092 47.9884 98.8782 47.8953C101.02 47.8022 101.578 48.2677 101.671 50.5023C101.671 51.5264 101.671 52.6437 101.765 53.6679C101.951 54.5989 102.23 55.0644 103.161 54.2265C103.627 53.761 103.999 53.2023 104.465 52.6437Z" fill="#020705"/>
<line x1="249.371" y1="6.48145" x2="249.371" y2="117.593" stroke="black" stroke-width="1.91089"/>
</svg>
