<svg width="237" height="54" viewBox="0 0 237 54" fill="none" xmlns="http://www.w3.org/2000/svg">
<path fill-rule="evenodd" clip-rule="evenodd" d="M38.3552 5.71198L28.7103 0V28.2102L38.3552 22.1485V5.71198ZM9.59996 6.71777L19.2 12.992V22.3464L9.6 28.7347V43.1085L0 50.1813V23.259L9.59996 28.7347V6.71777ZM28.8 28.2784L19.2 22.3464V53.8318L28.8 47.4434V28.2784ZM38.3552 22.3891L48 27.7131V42.4121L38.3552 49.7037V22.3891Z" fill="black"/>
<path d="M232.14 33.9383C229.544 33.9383 227.703 32.559 226.985 30.4356L228.347 29.8367C229.028 31.6334 230.373 32.5227 232.214 32.5227C234.129 32.5227 235.399 31.7242 235.399 30.3085C235.399 28.9837 234.662 28.3303 231.974 27.4955C229.139 26.6425 227.445 25.8802 227.445 23.5572C227.445 21.5064 229.231 20 231.827 20C234.423 20 235.933 21.3067 236.633 23.0127L235.344 23.7205C234.607 22.1053 233.429 21.4519 231.809 21.4519C230.078 21.4519 229.047 22.2868 229.047 23.4301C229.047 24.8639 229.967 25.3358 232.637 26.1706C235.381 27.0055 237.001 27.9129 237.001 30.1997C237.001 32.4138 235.031 33.9383 232.14 33.9383Z" fill="#0E0E0E"/>
<path d="M218.389 33.6836V21.7235H214.062V20.2534H224.354V21.7235H220.009V33.6836H218.389Z" fill="#0E0E0E"/>
<path d="M202.877 33.6836V20.2534H211.236V21.7235H204.497V25.9159H209.505V27.3496H204.497V32.2317H211.623V33.6836H202.877Z" fill="#0E0E0E"/>
<path d="M194.207 33.9383C191.611 33.9383 189.769 32.559 189.051 30.4356L190.414 29.8367C191.095 31.6334 192.439 32.5227 194.28 32.5227C196.195 32.5227 197.465 31.7242 197.465 30.3085C197.465 28.9837 196.729 28.3303 194.041 27.4955C191.205 26.6425 189.512 25.8802 189.512 23.5572C189.512 21.5064 191.298 20 193.894 20C196.49 20 197.999 21.3067 198.699 23.0127L197.41 23.7205C196.674 22.1053 195.495 21.4519 193.875 21.4519C192.144 21.4519 191.113 22.2868 191.113 23.4301C191.113 24.8639 192.034 25.3358 194.704 26.1706C197.447 27.0055 199.067 27.9129 199.067 30.1997C199.067 32.4138 197.097 33.9383 194.207 33.9383Z" fill="#0E0E0E"/>
<path d="M181.06 33.9383C178.464 33.9383 176.622 32.559 175.904 30.4356L177.267 29.8367C177.948 31.6334 179.292 32.5227 181.133 32.5227C183.048 32.5227 184.319 31.7242 184.319 30.3085C184.319 28.9837 183.582 28.3303 180.894 27.4955C178.059 26.6425 176.365 25.8802 176.365 23.5572C176.365 21.5064 178.151 20 180.747 20C183.343 20 184.853 21.3067 185.552 23.0127L184.263 23.7205C183.527 22.1053 182.349 21.4519 180.728 21.4519C178.998 21.4519 177.967 22.2868 177.967 23.4301C177.967 24.8639 178.887 25.3358 181.557 26.1706C184.3 27.0055 185.92 27.9129 185.92 30.1997C185.92 32.4138 183.95 33.9383 181.06 33.9383Z" fill="#0E0E0E"/>
<path fill-rule="evenodd" clip-rule="evenodd" d="M166.861 20.2002L162.037 33.6848H163.602L164.827 30.1787L167.653 22.1421H167.69L170.359 29.8372L171.703 33.6848H173.379L168.555 20.2002H166.861Z" fill="#0E0E0E"/>
<path d="M146.135 33.6836V20.2534H147.756V32.2317H154.31V33.6836H146.135Z" fill="#0E0E0E"/>
<path fill-rule="evenodd" clip-rule="evenodd" d="M136.313 20.2002L131.489 33.6848H133.054L134.279 30.1787L137.104 22.1421H137.141L139.811 29.8372L141.155 33.6848H142.83L138.007 20.2002H136.313Z" fill="#0E0E0E"/>
<path d="M126.372 33.6836V20.2534H127.992V33.6836H126.372Z" fill="#0E0E0E"/>
<path d="M112.681 33.6836V20.2534H117.357C120.45 20.2534 122.2 21.542 122.2 24.0102C122.2 26.1699 120.966 27.2952 119.033 27.6944L122.384 33.6836H120.616L117.357 27.8941H114.282V33.6836H112.681ZM114.282 26.4785H117.265C119.401 26.4785 120.598 25.8977 120.598 24.0647C120.598 22.3042 119.419 21.7053 117.247 21.7053H114.282V26.4785Z" fill="#0E0E0E"/>
<path d="M100.413 33.6836V20.2534H108.772V21.7235H102.033V25.9159H107.041V27.3496H102.033V32.2317H109.159V33.6836H100.413Z" fill="#0E0E0E"/>
<path d="M87.4077 33.6836V20.2534H92.0291C94.975 20.2534 96.9451 21.3968 96.9451 24.0647C96.9451 26.9322 94.7725 28.003 91.9186 28.003H89.028V33.6836H87.4077ZM89.028 26.5874H92.0107C94.1833 26.5874 95.3432 25.934 95.3432 24.1191C95.3432 22.395 94.2017 21.7053 91.9923 21.7053H89.028V26.5874Z" fill="#0E0E0E"/>
<path d="M70.1993 33.6836V20.2534H72.3167L76.6067 31.669H76.6435L80.8598 20.2534H83.014V33.6836H81.4122V22.8124H81.3753C81.1912 23.5202 80.8598 24.3914 80.5468 25.2807L77.2879 33.6836H75.8334L72.5745 25.2807C72.2431 24.3914 72.0221 23.8287 71.7275 22.758H71.6907V33.6836H70.1993Z" fill="#0E0E0E"/>
<path d="M64 33.6836V20.2534H65.6202V33.6836H64Z" fill="#0E0E0E"/>
</svg>
