<svg width="200" height="150" viewBox="0 0 200 150" fill="none" xmlns="http://www.w3.org/2000/svg">
<path d="M79.786 125.847C79.8602 125.74 80.0104 125.71 80.1193 125.785C81.1736 126.513 82.644 125.847 82.7881 124.565C82.8585 123.943 82.5887 123.299 82.4744 122.622C82.343 121.839 82.5193 120.928 83.2236 120.563C84.2349 120.039 85.4161 121.064 86.2063 120.654C86.7174 120.389 86.7977 119.65 86.8007 119.232C86.8049 118.582 86.7166 117.89 87.0377 117.275C87.4096 116.559 88.5033 116.252 88.9781 116.912C89.0551 117.02 89.0303 117.169 88.9231 117.247C88.8156 117.324 88.6659 117.3 88.5887 117.193C88.3375 116.843 87.6725 117.093 87.4622 117.495C87.2038 117.991 87.2841 118.613 87.2799 119.234C87.2739 120.142 86.9703 120.798 86.4261 121.08C85.4142 121.604 84.2327 120.579 83.4429 120.989C82.9617 121.238 82.8474 121.948 82.947 122.541C83.0621 123.226 83.347 123.884 83.2644 124.617C83.1797 125.367 82.6817 126.054 81.9962 126.367C81.3099 126.681 80.4661 126.608 79.8467 126.18C79.738 126.105 79.7107 125.956 79.786 125.847ZM82.9951 118.085C82.1965 118.126 81.4058 117.627 80.8648 117.963C80.5541 118.157 80.4489 118.583 80.4544 118.916C80.4674 119.695 81.0234 120.784 80.4543 121.652C80.1328 122.14 79.4274 122.359 78.9601 122.01C78.8541 121.931 78.8325 121.781 78.9119 121.675C78.9917 121.569 79.1411 121.547 79.2472 121.625C79.4866 121.804 79.8849 121.646 80.054 121.389C80.6721 120.448 79.3946 118.912 80.3337 117.799C81.073 116.923 82.1698 117.648 82.9721 117.606C83.5971 117.574 84.1554 116.997 84.1665 116.371C84.1694 116.239 84.2781 116.133 84.4105 116.136C84.5427 116.137 84.648 116.246 84.6458 116.379C84.6296 117.259 83.874 118.04 82.9951 118.085Z" fill="#0E0E0E"/>
<path d="M44 45.45H152C155.065 45.45 157.55 47.9348 157.55 51V111C157.55 114.065 155.065 116.55 152 116.55H44C40.9348 116.55 38.45 114.065 38.45 111V51C38.45 47.9348 40.9348 45.45 44 45.45Z" fill="white" stroke="#0E0E0E" stroke-width="0.9"/>
<path d="M139.92 87.9251C146.552 87.9251 151.928 82.5487 151.928 75.9166C151.928 69.2846 146.552 63.9082 139.92 63.9082C133.288 63.9082 127.911 69.2846 127.911 75.9166C127.911 82.5487 133.288 87.9251 139.92 87.9251Z" fill="#0E0E0E"/>
<path d="M146.873 82.8729C150.716 79.0302 150.716 72.8 146.873 68.9575C143.03 65.1149 136.8 65.115 132.958 68.9577C129.115 72.8004 129.115 79.0305 132.958 82.8731C136.801 86.7157 143.031 86.7155 146.873 82.8729Z" fill="white" stroke="white" stroke-width="0.213673" stroke-miterlimit="10"/>
<path fill-rule="evenodd" clip-rule="evenodd" d="M144.156 71.2988L142.085 69.6584L141.188 76.2455L143.633 75.1368L144.156 71.2988ZM137.409 70.6193L139.451 72.3896L139.154 74.5739L136.709 75.7603L136.709 75.7604L136.252 79.1167L133.786 80.463L134.642 74.1766L136.709 75.7602L137.409 70.6193ZM141.207 76.2642L139.154 74.5739L138.153 81.9258L140.598 80.7393L141.207 76.2642ZM143.626 75.1929L145.708 76.7427L145.241 80.1749L142.757 81.5709L143.626 75.1929Z" fill="black"/>
<path d="M59.1089 114.218C66.3487 114.218 72.2177 108.349 72.2177 101.109C72.2177 93.869 66.3487 88 59.1089 88C51.869 88 46 93.869 46 101.109C46 108.349 51.869 114.218 59.1089 114.218Z" fill="#0E0E0E"/>
<path d="M59.1088 112.049C65.1508 112.049 70.0489 107.151 70.0489 101.109C70.0489 95.067 65.1508 90.1689 59.1088 90.1689C53.0667 90.1689 48.1687 95.067 48.1687 101.109C48.1687 107.151 53.0667 112.049 59.1088 112.049Z" fill="white" stroke="#0E0E0E" stroke-width="0.213673" stroke-miterlimit="10"/>
<path fill-rule="evenodd" clip-rule="evenodd" d="M65.0842 101.77L65.3536 99.1425L59.3179 101.929L61.5675 103.394L65.0842 101.77ZM62.0286 95.7173L61.6345 98.391L59.6331 99.3151L57.318 97.8922L57.318 97.8924L54.2427 99.3123L51.7812 97.957L57.5413 95.2975L57.3181 97.8921L62.0286 95.7173ZM59.3123 101.955L59.6332 99.3153L52.8968 102.425L55.2119 103.848L59.3123 101.955ZM61.5163 103.418L61.33 106.007L58.1851 107.459L55.6723 106.116L61.5163 103.418Z" fill="black"/>
<path d="M109.793 77.5967C109.793 88.1984 101.198 96.7927 90.5967 96.7927C79.995 96.7927 71.4006 88.1984 71.4006 77.5967C71.4006 66.995 79.995 58.4006 90.5967 58.4006C101.198 58.4006 109.793 66.995 109.793 77.5967Z" fill="#0E0E0E" stroke="#0E0E0E" stroke-width="0.801275"/>
<path d="M91.055 94.6496C100.474 94.6496 108.11 87.0138 108.11 77.5946C108.11 68.1753 100.474 60.5396 91.055 60.5396C81.6358 60.5396 74 68.1753 74 77.5946C74 87.0138 81.6358 94.6496 91.055 94.6496Z" fill="#0E0E0E" stroke="white" stroke-width="0.8" stroke-miterlimit="10"/>
<path fill-rule="evenodd" clip-rule="evenodd" d="M95.8545 68.2646L92.2727 66.4416L92.9185 76.5356L96.2308 74.1458L95.8545 68.2646ZM85.5882 69.2826L89.1669 71.3079L89.381 74.655L86.0923 77.1606L86.0928 77.1608L86.4219 82.3039L83.1488 85.0544L82.5325 75.4213L86.0923 77.1605L85.5882 69.2826ZM92.9523 76.5581L89.3815 74.6554L90.1023 85.9212L93.3911 83.4156L92.9523 76.5581ZM96.2368 74.2316L99.8097 75.9158L100.146 81.1752L96.8621 84.0051L96.2368 74.2316Z" fill="white"/>
<path d="M128.561 98.4807C128.561 104.048 124.048 108.561 118.481 108.561C112.914 108.561 108.401 104.048 108.401 98.4807C108.401 92.9136 112.914 88.4006 118.481 88.4006C124.048 88.4006 128.561 92.9136 128.561 98.4807Z" fill="#0E0E0E" stroke="#0E0E0E" stroke-width="0.801275"/>
<path d="M118.481 107.22C123.307 107.22 127.22 103.307 127.22 98.4807C127.22 93.6541 123.307 89.7415 118.481 89.7415C113.654 89.7415 109.741 93.6541 109.741 98.4807C109.741 103.307 113.654 107.22 118.481 107.22Z" fill="white" stroke="#0E0E0E" stroke-width="0.213673" stroke-miterlimit="10"/>
<path fill-rule="evenodd" clip-rule="evenodd" d="M123.747 99.3149L123.972 97.1232L118.937 99.4474L120.814 100.669L123.747 99.3149ZM121.198 94.2663L120.87 96.4964L119.2 97.2671L117.27 96.0803L117.269 96.0805L114.705 97.2648L112.651 96.1344L117.456 93.9163L117.27 96.0802L121.198 94.2663ZM118.933 99.4692L119.2 97.2674L113.582 99.8614L115.513 101.048L118.933 99.4692ZM120.771 100.689L120.616 102.849L117.993 104.06L115.897 102.94L120.771 100.689Z" fill="black"/>
<path d="M161.851 9.55017C162.307 9.7315 162.792 9.7342 163.374 9.62364C162.953 10.0396 162.68 10.4401 162.571 10.9176C162.48 11.3139 162.508 11.7375 162.617 12.2285C162.626 12.2684 162.635 12.3088 162.645 12.3498C162.618 12.3192 162.59 12.2893 162.563 12.2602C162.22 11.8927 161.887 11.6297 161.509 11.4793C161.054 11.298 160.569 11.2953 159.987 11.4059C160.408 10.9899 160.681 10.5894 160.79 10.1119C160.88 9.71562 160.853 9.29198 160.744 8.80098C160.735 8.76113 160.725 8.72069 160.715 8.67965C160.743 8.71028 160.77 8.74015 160.797 8.76926C161.14 9.13682 161.474 9.39976 161.851 9.55017ZM167.653 13.0157C167.781 12.8476 167.871 12.6712 167.916 12.4722C167.951 12.3183 167.957 12.1605 167.942 11.995C168.071 12.1012 168.205 12.1853 168.352 12.2435C168.54 12.3183 168.735 12.3441 168.945 12.3347C168.817 12.5029 168.727 12.6792 168.682 12.8783C168.647 13.0322 168.641 13.19 168.656 13.3555C168.527 13.2493 168.393 13.1652 168.246 13.107C168.058 13.0322 167.863 13.0064 167.653 13.0157Z" fill="#0E0E0E" stroke="#0E0E0E" stroke-width="0.6"/>
<path d="M186.253 120.527L176.553 102.52C175.348 100.283 172.541 99.4409 170.304 100.646L136.52 118.844C134.27 120.055 133.441 122.857 134.646 125.093L144.345 143.1C145.557 145.349 148.346 146.185 150.595 144.974L184.379 126.776C186.628 125.565 187.464 122.776 186.253 120.527Z" fill="#0E0E0E" stroke="#0E0E0E" stroke-width="0.8"/>
<path d="M176.138 102.592L134.935 124.786L137.78 130.068L178.983 107.874L176.138 102.592Z" fill="white"/>
<path d="M151.03 132.757C150.423 131.63 150.934 130.344 152.29 129.613C153.593 128.911 154.809 129.187 155.47 130.331L154.343 130.938C154.018 130.397 153.447 130.285 152.813 130.626C152.117 131.001 151.848 131.577 152.138 132.114C152.384 132.572 152.768 132.695 153.372 132.529L154.503 132.203C155.731 131.848 156.572 132.123 157.089 133.082C157.734 134.28 157.218 135.557 155.8 136.321C154.427 137.06 153.135 136.813 152.488 135.674L153.615 135.067C153.917 135.608 154.533 135.697 155.255 135.308C156.003 134.905 156.303 134.323 156.014 133.786C155.782 133.355 155.424 133.218 154.834 133.388L153.69 133.709C152.47 134.06 151.561 133.743 151.03 132.757ZM163.245 128.005C164.298 129.96 163.753 132.026 161.904 133.022C160.064 134.013 158.061 133.331 157.003 131.368C155.951 129.413 156.487 127.352 158.327 126.361C160.167 125.37 162.188 126.042 163.245 128.005ZM162.057 128.646C161.317 127.272 160.09 126.808 158.911 127.444C157.731 128.079 157.443 129.359 158.183 130.732C158.923 132.106 160.15 132.569 161.329 131.934C162.509 131.298 162.787 130.001 162.057 128.646ZM167.122 130.075L166.03 130.663L162.563 124.227L163.655 123.639L168.493 127.644L167.811 121.401L168.92 120.803L172.386 127.239L171.295 127.827L170.228 125.846C169.531 124.552 169.327 124.173 169.142 123.682L169.719 128.676L168.68 129.235L164.841 126.01C165.112 126.364 165.448 126.967 165.879 127.768L167.122 130.075ZM171.471 119.429L174.938 125.864L173.811 126.472L170.344 120.036L171.471 119.429Z" fill="white"/>
<path d="M49.6 50H16C14.3431 50 13 51.3431 13 53V66.2C13 67.8569 14.3431 69.2 16 69.2H49.6C51.2569 69.2 52.6 67.8569 52.6 66.2V53C52.6 51.3431 51.2569 50 49.6 50Z" fill="#0E0E0E"/>
<path d="M20.0226 56.0113H24.1261C24.7591 56.0113 25.2904 56.1017 25.6974 56.2713C26.0591 56.407 26.3643 56.6444 26.5904 56.9496C26.7713 57.2209 26.8617 57.5374 26.8617 57.8652C26.8617 58.0687 26.8278 58.2722 26.76 58.4643C26.6922 58.6565 26.6017 58.8374 26.4774 59.007C26.8052 59.1539 27.0765 59.4026 27.2461 59.7191C27.427 60.0244 27.5174 60.3748 27.5174 60.7365C27.5174 61.1661 27.3817 61.5957 27.1443 61.9574C26.8617 62.3757 26.4774 62.7035 26.0139 62.8957C25.5052 63.133 24.8722 63.2574 24.1261 63.2574H20V56.0113H20.0226ZM24.7591 58.6C24.9965 58.487 25.1209 58.3513 25.1209 58.2043C25.1209 58.08 25.0304 57.9783 24.8609 57.8878C24.6348 57.7861 24.3748 57.7409 24.1261 57.7522H21.7296V58.7809H23.753C24.1035 58.7922 24.4426 58.7357 24.7591 58.6ZM21.7409 61.5278H24.1374C24.4652 61.5391 24.7817 61.4939 25.087 61.4035C25.3017 61.347 25.5165 61.2339 25.6861 61.087C25.8104 60.9852 25.8783 60.8383 25.8896 60.68C25.8896 60.4652 25.7539 60.2843 25.4826 60.1261C25.2113 59.9678 24.8383 59.8887 24.3635 59.8887H21.7409V61.5278ZM36.1991 56.0113L36.1878 59.3913C36.1878 60.2391 36.007 60.9626 35.6339 61.573C35.2948 62.1496 34.7974 62.6244 34.1983 62.9409C33.0226 63.5513 31.6209 63.5513 30.4452 62.9409C29.8461 62.6357 29.36 62.1609 29.0209 61.573C28.6591 60.9739 28.4783 60.2391 28.4783 59.3913V56.0113H30.1852V59.3913C30.1626 60.1487 30.6035 60.8496 31.293 61.1661C31.96 61.4713 32.7174 61.4713 33.3843 61.1661C34.0739 60.8496 34.5148 60.1487 34.4922 59.3913L34.5035 56.0113H36.1991ZM39.4096 60.013L36.9565 56.0113L39.1043 56L41.5574 60.013H39.4096ZM41.3878 63.2687V59.8774L43.8522 56.0113H46L43.0496 60.6009V63.2687H41.3878Z" fill="white"/>
<path d="M122 18.45H159.2C160.608 18.45 161.75 19.5917 161.75 21V34.2C161.75 35.6083 160.608 36.75 159.2 36.75H122C120.592 36.75 119.45 35.6083 119.45 34.2V21C119.45 19.5917 120.592 18.45 122 18.45Z" fill="white" stroke="#0E0E0E" stroke-width="0.9"/>
<path d="M128.711 29.3303C129.314 29.5467 129.952 29.6606 130.59 29.6606C131.011 29.672 131.433 29.615 131.843 29.5011C132.185 29.3986 132.355 29.262 132.355 29.0911C132.355 28.9544 132.23 28.8519 131.979 28.795C131.569 28.7153 131.148 28.6583 130.727 28.6128C130.009 28.5444 129.292 28.4305 128.597 28.2825C128.039 28.1572 127.515 27.9066 127.071 27.5421C126.626 27.1777 126.41 26.6651 126.41 26.0046C126.421 25.6059 126.592 25.2187 126.9 24.9567C127.276 24.6264 127.731 24.3759 128.221 24.2506C128.79 24.0797 129.383 24 129.975 24C130.715 24 131.444 24.1367 132.139 24.3986C132.777 24.6378 133.323 25.0478 133.733 25.5945L132.162 26.5399C131.934 26.2665 131.592 26.0615 131.137 25.9248C130.658 25.7882 130.157 25.7198 129.667 25.7198C129.292 25.7084 128.927 25.754 128.563 25.8451C128.255 25.9362 128.107 26.0501 128.107 26.1868C128.107 26.3007 128.232 26.3918 128.472 26.4487C128.87 26.5285 129.28 26.5968 129.679 26.6424C130.396 26.7221 131.114 26.8474 131.82 27.0068C132.378 27.1321 132.913 27.3827 133.369 27.7358C133.813 28.0775 134.064 28.6014 134.041 29.1595C134.052 29.6264 133.87 30.082 133.54 30.4123C133.175 30.7768 132.72 31.0501 132.23 31.1982C131.649 31.3804 131.046 31.4601 130.442 31.4601C129.838 31.4601 129.235 31.3804 128.654 31.221C128.084 31.0729 127.549 30.8223 127.071 30.5034C126.626 30.2073 126.262 29.8087 126 29.3417L127.549 28.3394C127.743 28.7836 128.13 29.1139 128.711 29.3303ZM142.458 31.3918H135.112V24.0797H142.458V25.8223H136.843V26.8702H141.877V27.9863H136.843V29.6492H142.458V31.3918ZM149.223 31.3918L143.415 31.3804V24.0797H145.134V29.6492L149.223 29.6606V31.3918ZM156 31.3918L150.191 31.3804V24.0797H151.911V29.6492L156 29.6606V31.3918Z" fill="#0E0E0E"/>
</svg>
