<svg width="41" height="40" viewBox="0 0 41 40" fill="none" xmlns="http://www.w3.org/2000/svg">
<path d="M16.3335 22.9166C16.3335 24.5333 17.5835 25.8333 19.1169 25.8333H22.2501C23.5835 25.8333 24.6668 24.7 24.6668 23.2833C24.6668 21.7666 24.0002 21.2166 23.0168 20.8666L18.0002 19.1166C17.0168 18.7666 16.3502 18.2333 16.3502 16.7C16.3502 15.3 17.4335 14.15 18.7668 14.15H21.9002C23.4335 14.15 24.6835 15.45 24.6835 17.0666" stroke="#0E0E0E" stroke-width="2.5" stroke-linecap="round" stroke-linejoin="round"/>
<path d="M20.5001 12.5V27.5" stroke="#0E0E0E" stroke-width="2.5" stroke-linecap="round" stroke-linejoin="round"/>
<path d="M37.1667 20C37.1667 29.2 29.7 36.6666 20.5 36.6666C11.3 36.6666 3.83337 29.2 3.83337 20C3.83337 10.8 11.3 3.33331 20.5 3.33331" stroke="#0E0E0E" stroke-width="2.5" stroke-linecap="round" stroke-linejoin="round"/>
<path d="M37.1667 9.99998V3.33331H30.5" stroke="#0E0E0E" stroke-width="2.5" stroke-linecap="round" stroke-linejoin="round"/>
<path d="M28.8334 11.6666L37.1667 3.33331" stroke="#0E0E0E" stroke-width="2.5" stroke-linecap="round" stroke-linejoin="round"/>
</svg>
