<svg width="40" height="40" viewBox="0 0 40 40" fill="none" xmlns="http://www.w3.org/2000/svg">
<path d="M14.9999 3.33331H24.9999C33.3333 3.33331 36.6666 6.66665 36.6666 15V25C36.6666 33.3333 33.3333 36.6666 24.9999 36.6666H14.9999C6.66659 36.6666 3.33325 33.3333 3.33325 25V15C3.33325 6.66665 6.66659 3.33331 14.9999 3.33331Z" stroke="#0E0E0E" stroke-width="2.5" stroke-linecap="round" stroke-linejoin="round"/>
<path d="M14.2839 25.45L25.1839 14.55" stroke="#0E0E0E" stroke-width="2.5" stroke-linecap="round" stroke-linejoin="round"/>
<path d="M14.9668 17.2834C16.099 17.2834 17.0167 16.3656 17.0167 15.2334C17.0167 14.1012 16.099 13.1834 14.9668 13.1834C13.8346 13.1834 12.9167 14.1012 12.9167 15.2334C12.9167 16.3656 13.8346 17.2834 14.9668 17.2834Z" stroke="#0E0E0E" stroke-width="2.5" stroke-linecap="round" stroke-linejoin="round"/>
<path d="M25.8666 26.8167C26.9988 26.8167 27.9166 25.8988 27.9166 24.7666C27.9166 23.6345 26.9988 22.7167 25.8666 22.7167C24.7344 22.7167 23.8167 23.6345 23.8167 24.7666C23.8167 25.8988 24.7344 26.8167 25.8666 26.8167Z" stroke="#0E0E0E" stroke-width="2.5" stroke-linecap="round" stroke-linejoin="round"/>
</svg>
