<svg width="290" height="290" viewBox="0 0 290 290" fill="none" xmlns="http://www.w3.org/2000/svg">
<circle cx="145" cy="145" r="144.612" fill="#541EBA" stroke="#0E0E0E" stroke-width="0.775401"/>
<mask id="path-2-inside-1_1646_15498" fill="white">
<path d="M233.374 259.956C217.397 272.239 199.035 281.057 179.459 285.846C159.883 290.635 139.524 291.291 119.681 287.772C99.8371 284.253 80.9451 276.636 64.21 265.408C47.475 254.179 33.2643 239.585 22.485 222.557L145 145L233.374 259.956Z"/>
</mask>
<path d="M233.374 259.956C217.397 272.239 199.035 281.057 179.459 285.846C159.883 290.635 139.524 291.291 119.681 287.772C99.8371 284.253 80.9451 276.636 64.21 265.408C47.475 254.179 33.2643 239.585 22.485 222.557L145 145L233.374 259.956Z" fill="#7D59ED" stroke="#0E0E0E" stroke-width="1.5508" mask="url(#path-2-inside-1_1646_15498)"/>
<mask id="path-3-inside-2_1646_15498" fill="white">
<path d="M145 0C124.733 -2.41679e-07 104.691 4.24857 86.1678 12.4716C67.6442 20.6946 51.0501 32.7095 37.4561 47.741L145 145V0Z"/>
</mask>
<path d="M145 0C124.733 -2.41679e-07 104.691 4.24857 86.1678 12.4716C67.6442 20.6946 51.0501 32.7095 37.4561 47.741L145 145V0Z" fill="#C68CF4" stroke="#0E0E0E" stroke-width="1.5508" mask="url(#path-3-inside-2_1646_15498)"/>
<mask id="path-4-inside-3_1646_15498" fill="white">
<path d="M8.08577 97.2559C-1.99678 126.169 -2.66713 157.533 6.17081 186.85C15.0088 216.168 32.9012 241.936 57.2839 260.459L145 145L8.08577 97.2559Z"/>
</mask>
<path d="M8.08577 97.2559C-1.99678 126.169 -2.66713 157.533 6.17081 186.85C15.0088 216.168 32.9012 241.936 57.2839 260.459L145 145L8.08577 97.2559Z" fill="#8CA3F4" stroke="#0E0E0E" stroke-width="1.5508" mask="url(#path-4-inside-3_1646_15498)"/>
<mask id="path-5-inside-4_1646_15498" fill="white">
<path d="M7.37936 99.3321C17.0235 70.2694 35.6207 45.0059 60.5055 27.1625L145 145L7.37936 99.3321Z"/>
</mask>
<path d="M7.37936 99.3321C17.0235 70.2694 35.6207 45.0059 60.5055 27.1625L145 145L7.37936 99.3321Z" fill="#CDC5FF" stroke="#0E0E0E" stroke-width="1.5508" mask="url(#path-5-inside-4_1646_15498)"/>
</svg>
