<svg width="200" height="150" viewBox="0 0 200 150" fill="none" xmlns="http://www.w3.org/2000/svg">
<g clip-path="url(#clip0_1646_4172)">
<path d="M168 13.2183V38.5046C168 40.2816 166.56 41.7217 164.783 41.7217H119.156C117.378 41.7217 115.938 40.2816 115.938 38.5046V13.2183C115.938 11.4413 117.378 10 119.156 10H164.783C166.56 10 168 11.4413 168 13.2183Z" fill="#0E0E0E"/>
<path d="M168 17.25H115.938V21.6229H168V17.25Z" fill="white"/>
<path d="M151.037 25.6934H147.086V26.028H151.037V25.6934Z" fill="white"/>
<path d="M155.977 25.6934H152.025V26.028H155.977V25.6934Z" fill="white"/>
<path d="M160.916 25.6934H156.964V26.028H160.916V25.6934Z" fill="white"/>
<path d="M165.855 25.6934H161.904V26.028H165.855V25.6934Z" fill="white"/>
<path d="M156.415 85.1043H153.689C152.756 85.1043 152 84.3483 152 83.4152V80.6891C152 79.756 152.756 79 153.689 79H156.415C157.348 79 158.104 79.756 158.104 80.6891V83.4152C158.104 84.3483 157.348 85.1043 156.415 85.1043Z" stroke="#0E0E0E" stroke-width="0.228411" stroke-miterlimit="10"/>
<path d="M112.811 103.214C113.722 101.618 114.352 99.8777 114.674 98.0687L113.795 97.9106C113.493 99.6205 112.898 101.266 112.038 102.774L112.811 103.214ZM114.898 96.2483C114.92 95.949 114.936 95.6464 114.944 95.3403L114.052 95.3175C114.045 95.6081 114.03 95.8957 114.009 96.1803L114.898 96.2483ZM114.903 93.5218C114.793 91.8158 114.473 90.0267 113.945 88.1543L113.085 88.3975C113.597 90.2088 113.906 91.9361 114.012 93.5795L114.903 93.5218ZM113.189 86.429C113.044 86.1634 112.897 85.9017 112.747 85.6441L111.975 86.0922C112.12 86.3439 112.264 86.599 112.406 86.8572L113.189 86.429ZM111.797 84.1044C110.808 82.584 109.68 81.1584 108.428 79.8458L107.783 80.4633C108.997 81.7371 110.09 83.1206 111.048 84.596L111.797 84.1044ZM107.129 78.5762C106.905 78.3721 106.678 78.1727 106.448 77.978L105.871 78.6591C106.093 78.8475 106.312 79.04 106.529 79.2365L107.129 78.5762ZM105.018 76.8536C103.548 75.7817 101.965 74.8745 100.297 74.1484L99.9399 74.9662C101.548 75.6667 103.074 76.5415 104.492 77.5747L105.018 76.8536ZM98.6144 73.4812C98.3302 73.38 98.0441 73.2843 97.755 73.1919L97.484 74.0429C97.7661 74.133 98.043 74.2263 98.3147 74.3227L98.3022 74.3145L98.6144 73.4812ZM96.01 72.6984C95.1248 72.4786 94.2158 72.2972 93.2831 72.1543C93.2556 72.1507 93.228 72.1494 93.2003 72.1503C92.2807 72.1786 91.3704 72.343 90.499 72.6383L90.7906 73.4822C91.578 73.2163 92.4004 73.0684 93.2311 73.0433L93.1484 73.0393C94.0544 73.1789 94.9366 73.3547 95.7951 73.5666L96.01 72.6984ZM88.802 73.4509C88.5365 73.6186 88.2804 73.8008 88.0351 73.9969L88.5924 74.6945C88.8115 74.5188 89.0405 74.3558 89.2781 74.2061L89.2643 74.2141L88.802 73.4509ZM86.7001 75.3133C86.0199 76.1452 85.4493 77.0609 85.0023 78.0381L84.9925 78.053C84.6928 78.76 84.4329 79.4832 84.2141 80.2192L85.0721 80.4718C85.2814 79.7682 85.53 79.0769 85.8168 78.4012L85.807 78.4161C86.2219 77.5079 86.7517 76.6569 87.3836 75.8838L86.7001 75.3133ZM83.8075 82.0152C83.7577 82.3315 83.7222 82.6418 83.7006 82.9424L84.5914 83.0058C84.6109 82.7291 84.6438 82.445 84.6901 82.1535L83.8075 82.0152ZM83.766 84.8213C83.9871 86.266 84.6189 87.4786 85.6612 88.459C85.6924 88.488 85.7273 88.5126 85.765 88.5322C86.2189 88.7645 86.6876 88.9667 87.168 89.1373L87.4646 88.2954C87.0207 88.1375 86.5877 87.9505 86.1684 87.7357L86.2769 87.8069C85.395 86.9833 84.8229 85.8816 84.6564 84.6864L83.766 84.8213ZM89.0014 89.5702C89.318 89.6067 89.6372 89.6195 89.9558 89.6096L89.9278 88.7176C89.651 88.7253 89.374 88.7128 89.099 88.6805L89.1145 88.683L89.0014 89.5702ZM91.8407 89.2386C93.3943 88.6514 94.7397 87.3814 95.8769 85.4285L95.1061 84.978C94.0741 86.7464 92.8798 87.8875 91.5233 88.4015L91.8407 89.2386ZM96.5419 83.669C96.6334 83.3798 96.7189 83.0887 96.7986 82.7957L95.9371 82.5614C95.8603 82.8431 95.7782 83.1225 95.6908 83.3996L95.6884 83.4031L96.5419 83.669ZM97.2047 81.0199C97.5322 79.2316 97.6578 77.4121 97.5791 75.5957L96.6883 75.6296C96.7654 77.3792 96.6453 79.1319 96.3304 80.8547L97.2047 81.0199ZM97.4457 73.7866C97.4143 73.4878 97.3779 73.188 97.3364 72.8873L96.4518 73.008C96.4927 73.301 96.5289 73.5924 96.5606 73.8822L97.4457 73.7866ZM97.0385 71.1041C96.782 69.8138 96.4556 68.5385 96.0608 67.2836C96.0559 67.2675 96.05 67.2517 96.0432 67.2363C95.837 66.7705 95.6221 66.3181 95.3984 65.8789L94.6027 66.2841C94.8185 66.7101 95.0258 67.147 95.2244 67.5947L95.2069 67.5474C95.5925 68.7717 95.9116 70.0161 96.1627 71.275L97.0385 71.1041ZM94.5193 64.291C94.3609 64.0289 94.1987 63.7721 94.0328 63.5204L93.2847 64.0105C93.4447 64.252 93.6006 64.4988 93.7525 64.7509L94.5193 64.291ZM92.9682 62.0437C91.8422 60.6036 90.5224 59.3263 89.0463 58.248L88.5207 58.9695C89.9305 59.9994 91.1908 61.2196 92.2657 62.5953L92.9682 62.0437ZM87.5223 57.2436C87.2614 57.0883 86.9968 56.9391 86.7284 56.7959L86.3042 57.5814C86.5613 57.7183 86.8143 57.861 87.0632 58.0095L87.5223 57.2436ZM85.0838 56.0092C83.4057 55.3032 81.6526 54.7907 79.8585 54.4815L79.7027 55.3611C81.4296 55.6581 83.1171 56.1505 84.7326 56.8289L85.0838 56.0092ZM78.0656 54.2236C77.7676 54.189 77.4659 54.159 77.1605 54.1338L77.0878 55.0245C77.3843 55.0485 77.678 55.0777 77.9688 55.1121L78.0656 54.2236ZM75.3572 54.0295C74.5251 54.0026 73.6709 54.0043 72.7946 54.0343L72.7759 54.0356C71.8109 54.1099 70.8605 54.2229 69.9247 54.3749L70.068 55.2564C70.9789 55.1085 71.9044 54.9982 72.8446 54.9253L72.8252 54.9263C73.6812 54.8977 74.5153 54.896 75.3274 54.9211L75.3572 54.0295ZM68.1487 54.7151C67.8548 54.7799 67.562 54.8487 67.2701 54.9216L67.4865 55.7879C67.7699 55.7174 68.0547 55.6504 68.341 55.5869L68.1487 54.7151ZM65.5257 55.4114C63.7951 55.9505 62.1151 56.64 60.5048 57.4721L60.9141 58.2654C62.4785 57.4571 64.1104 56.7868 65.7914 56.2623L65.5257 55.4114ZM58.9208 58.3504C58.662 58.503 58.4048 58.6595 58.1493 58.82L58.6246 59.5764C58.873 59.4198 59.1229 59.2673 59.3744 59.119L58.9208 58.3504ZM56.6446 59.8245C55.1701 60.8708 53.7759 62.0259 52.4735 63.2799L53.0914 63.9243C54.3618 62.7009 55.7218 61.5742 57.1601 60.5536L56.6446 59.8245ZM51.1993 64.5585C50.9922 64.7753 50.7867 64.9953 50.5827 65.2186L51.2414 65.8215C51.4416 65.6031 51.6428 65.3877 51.8449 65.1751L51.1993 64.5585ZM49.3948 66.5735C48.8075 67.2726 48.2309 68.0004 47.665 68.7569L47.6501 68.7796L47.656 68.7706C47.1524 69.4949 46.6855 70.244 46.2571 71.0151L47.0404 71.4439C47.4224 70.751 47.873 70.0281 48.3922 69.2751L48.3941 69.2721L48.3792 69.2948C48.9341 68.5516 49.5001 67.8373 50.0773 67.152L49.3948 66.5735ZM45.4488 72.6575C45.3252 72.949 45.2138 73.2353 45.1146 73.5165L45.9565 73.8131C46.0489 73.5501 46.1532 73.2819 46.2695 73.0085L45.4488 72.6575ZM44.6481 75.3218C44.4606 76.507 44.5457 77.5828 44.9032 78.5495C44.9114 78.5713 44.9212 78.5925 44.9323 78.6129C45.3235 79.3276 45.8158 79.982 46.394 80.5559L47.0163 79.9158C46.5002 79.4014 46.0607 78.8153 45.7116 78.1757L45.7411 78.2386C45.4367 77.4189 45.3665 76.4929 45.5304 75.4607L44.6481 75.3218ZM47.9459 81.6725C48.2337 81.8178 48.5327 81.9399 48.8401 82.0376L49.1117 81.1869C48.8507 81.1038 48.5968 80.9999 48.3524 80.8763L47.9459 81.6725ZM50.7163 82.3441C51.5535 82.3568 52.3889 82.26 53.201 82.0562L53.1823 82.0601C54.357 81.83 55.2504 81.2283 55.8626 80.2548L55.1063 79.7797C54.6315 80.5351 53.933 81.0032 53.0108 81.1839L52.992 81.1878C52.2558 81.3737 51.4984 81.4623 50.7391 81.4514L50.7163 82.3441ZM56.5711 78.4616C56.6399 78.1559 56.6922 77.8467 56.7276 77.5354L55.8412 77.4314C55.8092 77.7113 55.7624 77.9892 55.7009 78.2641L56.5711 78.4616ZM56.8032 75.6902C56.7774 74.8432 56.7029 73.9984 56.58 73.16C56.5788 73.1503 56.5772 73.1407 56.575 73.1312C56.3747 72.1566 56.048 71.2122 55.6032 70.3222L54.8051 70.7232C55.2162 71.5444 55.5182 72.4157 55.7035 73.3151L55.6982 73.2869C55.8164 74.0908 55.8881 74.901 55.9127 75.7132L56.8032 75.6902ZM54.6329 68.7367C54.4534 68.4903 54.2616 68.2479 54.0576 68.0093L53.3804 68.5887C53.5675 68.8081 53.7447 69.0325 53.9121 69.2618L53.9227 69.2756L54.6329 68.7367ZM52.7593 66.6974C51.7018 65.7662 50.4392 64.9376 48.9717 64.2116C48.9548 64.2031 48.9372 64.1959 48.9193 64.19C48.6145 64.085 48.3112 63.9866 48.0091 63.8947L47.7512 64.7492C48.0415 64.8373 48.3336 64.9321 48.6276 65.0335L48.5753 65.0119C49.9728 65.7016 51.1703 66.4875 52.1679 67.3697L52.7593 66.6974ZM46.2486 63.438C45.949 63.3745 45.65 63.3175 45.3514 63.2672L45.2051 64.148C45.4889 64.1955 45.7744 64.2498 46.0614 64.3107L46.2486 63.438ZM43.5355 63.0548C41.7013 62.9249 39.8585 63.112 38.0879 63.6078L38.33 64.4672C40.0041 63.9987 41.7464 63.8224 43.4804 63.946L43.5355 63.0548ZM36.3543 64.2071C36.0732 64.322 35.7936 64.4465 35.5142 64.5771L35.8993 65.3826C36.1616 65.2568 36.4257 65.1395 36.6916 65.0307L36.3543 64.2071ZM33.9135 65.4563C32.4458 66.3563 31.0364 67.5073 29.6852 68.9091L30.3275 69.5294C31.6264 68.1854 32.9782 67.082 34.3829 66.2191L33.9135 65.4563ZM28.4636 70.2505C28.2723 70.4753 28.0823 70.7058 27.8937 70.942L28.5905 71.5C28.7744 71.2709 28.9591 71.0472 29.1445 70.8287L28.4636 70.2505ZM26.843 72.4936C25.9261 74.1811 25.4018 75.9374 25.2703 77.7627L26.1608 77.8267C26.283 76.1301 26.7718 74.4944 27.6273 72.9196L26.843 72.4936ZM25.2674 79.6078C25.289 79.9103 25.3203 80.2153 25.3615 80.5226L26.246 80.4019C26.2068 80.1151 26.1773 79.8298 26.1576 79.5462L25.2674 79.6078ZM25.6407 82.3473C25.9982 83.4612 26.7134 85.119 27.7863 87.3207L28.5891 86.9296C27.5353 84.7672 26.836 83.1488 26.4911 82.0745L25.6407 82.3473ZM28.5835 88.9257C28.7147 89.1858 28.8499 89.4517 28.989 89.7233L29.7839 89.3168C29.6449 89.0459 29.5106 88.7814 29.3808 88.5233L28.5835 88.9257ZM29.8114 91.3132C30.5596 92.7444 31.403 94.3217 32.3416 96.0451L33.1239 95.6201C32.1869 93.9029 31.3456 92.3306 30.5999 90.9034L29.8114 91.3132ZM33.0561 97.5966C33.1409 97.84 33.2314 98.118 33.3276 98.4308L34.1819 98.1691C34.0827 97.847 33.9897 97.5584 33.9028 97.3035L33.0561 97.5966ZM33.8164 100.134C33.8963 100.428 33.9801 100.739 34.0676 101.066L34.0689 101.072C34.3801 102.2 34.5598 103.61 34.6082 105.305L35.5006 105.279C35.4501 103.513 35.2598 102.032 34.9297 100.835L34.9332 100.837C34.8464 100.506 34.7625 100.192 34.6813 99.8935L33.8164 100.134ZM34.6114 107.07C34.6055 107.357 34.5963 107.652 34.584 107.953L35.4764 107.989C35.4886 107.682 35.4978 107.382 35.5041 107.088L34.6114 107.07ZM34.4818 109.722C34.3645 111.328 34.1712 113.093 33.9018 115.016L34.7862 115.14C35.0578 113.198 35.2532 111.413 35.3725 109.787L34.4818 109.722Z" fill="#0E0E0E"/>
<path d="M34.7843 111.228L34.8401 111.235C34.9277 111.246 35.0096 111.285 35.0741 111.345L35.4153 110.981L35.0741 111.345C35.1386 111.405 35.1824 111.485 35.1994 111.571L35.1995 111.572C35.5805 113.509 36.4838 115.197 37.8999 116.628L37.9017 116.63C39.4731 118.2 41.3972 119.133 43.655 119.424L43.6564 119.425C44.0907 119.479 44.5276 119.511 44.9653 119.52L44.9778 119.52L44.9902 119.52C45.4847 119.505 45.9776 119.459 46.4662 119.382L46.4715 119.381L46.4715 119.381C46.5093 119.374 46.5479 119.373 46.5859 119.378C46.6498 119.386 46.7109 119.409 46.7645 119.445C46.8185 119.481 46.8634 119.529 46.8957 119.585L46.8961 119.586C46.9407 119.664 46.9592 119.753 46.949 119.842L46.9489 119.843C46.2634 125.872 43.3553 131.27 38.1779 136.043L38.1581 136.062L38.1403 136.082C37.8825 136.377 37.3204 136.82 36.3982 137.418C35.4909 138.007 34.2743 138.722 32.7446 139.563C32.7312 139.57 32.7231 139.574 32.7141 139.578L32.7125 139.579C32.4138 139.72 32.1116 139.856 31.8058 139.986C31.739 140.014 31.6662 140.024 31.5943 140.016C31.5223 140.008 31.4536 139.982 31.3945 139.94C30.2596 139.123 29.1937 138.214 28.2075 137.222C23.4656 132.433 20.9913 126.549 20.7848 119.542C20.7844 119.522 20.7849 119.518 20.7848 119.518L20.7857 119.509L20.7862 119.501L20.9509 116.767L20.951 116.765C20.9542 116.707 20.9693 116.651 20.9953 116.599C21.0213 116.547 21.0576 116.502 21.102 116.465C21.1465 116.428 21.198 116.401 21.2535 116.385C21.309 116.369 21.3671 116.364 21.4244 116.372L21.4261 116.372C21.465 116.377 21.503 116.387 21.5388 116.403L21.5494 116.408L21.5495 116.408C21.966 116.581 22.394 116.725 22.8303 116.839M34.7843 111.228L22.9572 116.355M34.7843 111.228C34.7153 111.228 34.6473 111.246 34.5862 111.279C34.5084 111.321 34.4458 111.387 34.4075 111.466L34.4055 111.471C33.8955 112.506 33.231 113.459 32.4348 114.295L32.435 114.295L32.426 114.304C31.6356 115.093 30.7178 115.743 29.7112 116.227L29.6959 116.235L29.68 116.241C29.0946 116.475 28.6163 116.655 28.2479 116.781C27.8994 116.899 27.5977 116.987 27.3943 117.003L27.3759 117.005L27.3575 117.005C27.332 117.005 27.3067 117.007 27.2817 117.012L27.2815 117.012C26.7115 117.117 26.1344 117.178 25.555 117.196L25.5297 117.197L25.5045 117.195C24.7834 117.143 24.1991 117.089 23.7551 117.032M34.7843 111.228L27.191 116.52C26.6459 116.621 26.094 116.679 25.5401 116.696C24.8186 116.645 24.242 116.591 23.8105 116.535M22.8303 116.839C22.8305 116.839 22.8307 116.839 22.8308 116.839L22.9572 116.355M22.8303 116.839C22.8302 116.838 22.8301 116.838 22.83 116.838L22.9572 116.355M22.8303 116.839C22.8566 116.845 22.8822 116.855 22.9069 116.867L22.9502 116.887L22.9967 116.899C23.2456 116.963 23.4992 117.008 23.7551 117.032M22.9572 116.355C23.0138 116.37 23.0688 116.39 23.1216 116.415C23.3477 116.473 23.5781 116.514 23.8105 116.535M23.7551 117.032C23.7522 117.032 23.7494 117.032 23.7465 117.031L23.8105 116.535M23.7551 117.032C23.7581 117.033 23.761 117.033 23.764 117.033L23.8105 116.535" fill="white" stroke="#0E0E0E"/>
<path d="M34.0412 119.07C35.1062 119.234 35.948 119.716 36.5663 120.516C37.1847 121.317 37.4397 122.252 37.3314 123.322C37.2883 123.661 37.1998 123.992 37.0682 124.307L36.8473 124.752C36.6831 125.035 36.4834 125.295 36.2531 125.527C35.8741 125.909 35.4177 126.206 34.9146 126.397L34.2104 132.113C34.1597 132.524 33.9481 132.897 33.6221 133.152C33.296 133.406 32.8823 133.521 32.4718 133.47L32.4659 133.466C32.057 133.414 31.6856 133.201 31.433 132.876C31.1804 132.55 31.067 132.137 31.1178 131.728L31.7981 126.207C31.4585 126.029 31.1486 125.8 30.8793 125.527C30.1661 124.808 29.7943 123.922 29.7638 122.87L29.7947 122.353C29.9587 121.289 30.4409 120.447 31.2413 119.828C32.0417 119.209 32.975 118.956 34.0412 119.07Z" fill="#0E0E0E"/>
<path d="M36.391 120.305C36.4515 120.372 36.51 120.443 36.5663 120.516C37.1847 121.317 37.447 122.253 37.3313 123.322C37.2917 123.661 37.2031 123.993 37.0682 124.307L36.8473 124.752C36.6834 125.035 36.4837 125.296 36.2531 125.527C35.8743 125.91 35.4178 126.206 34.9145 126.397L34.2104 132.113C34.1597 132.524 33.948 132.897 33.622 133.152C33.296 133.406 32.8823 133.521 32.4718 133.47L32.4664 133.467C32.1186 133.422 31.796 133.261 31.5507 133.01C31.3053 132.76 31.1515 132.434 31.114 132.085C31.3077 132.209 31.5265 132.288 31.7545 132.317L31.7604 132.321C31.9636 132.346 32.1698 132.331 32.3671 132.276C32.5645 132.222 32.7492 132.129 32.9106 132.003C33.072 131.877 33.207 131.72 33.3079 131.542C33.4088 131.364 33.4736 131.168 33.4986 130.964L34.2032 125.248C35.0175 124.938 35.7012 124.359 36.1403 123.606L36.3622 123.162C36.4971 122.848 36.5856 122.516 36.6249 122.176C36.7017 121.543 36.6214 120.9 36.391 120.305Z" fill="#0E0E0E"/>
<path d="M37.6403 57.747H37.6779C40.6153 57.747 42.9965 55.3658 42.9965 52.4284V36.3597C42.9965 31.7378 46.7436 27.9907 51.3655 27.9907C55.9874 27.9907 59.7345 31.7378 59.7345 36.3597V57.747H37.6403Z" fill="#0E0E0E"/>
<path d="M37.6403 57.3918C34.9309 57.3918 32.7341 55.1949 32.7341 52.4855V41.7765H42.5465V52.4855C42.5465 55.1949 40.3497 57.3918 37.6403 57.3918ZM60.1845 36.3597C60.1845 32.8837 58.1733 29.8773 55.2511 28.4407H116.309C120.682 28.4407 124.227 31.9863 124.227 36.3597V107.139H68.1035C63.7301 107.139 60.1845 103.593 60.1845 99.2196V36.3597Z" fill="white" stroke="#0E0E0E" stroke-width="0.9"/>
<path d="M140.969 94.8779V99.1892C140.969 103.723 137.294 107.399 132.759 107.399H67.6569C69.9672 107.399 72.0606 106.462 73.575 104.947C75.0894 103.433 76.027 101.341 76.027 99.0304V94.8779H140.969Z" fill="#0E0E0E"/>
<path d="M68.028 52.6343H115.206" stroke="#0E0E0E" stroke-width="0.228411" stroke-miterlimit="10"/>
<path d="M74.5731 57.78H117.116" stroke="#0E0E0E" stroke-width="0.228411" stroke-miterlimit="10"/>
<path d="M70.6342 62.9248H113.177" stroke="#0E0E0E" stroke-width="0.228411" stroke-miterlimit="10"/>
<path d="M76.5731 68.0703H119.116" stroke="#0E0E0E" stroke-width="0.228411" stroke-miterlimit="10"/>
<path d="M70.6342 73.2163H113.177" stroke="#0E0E0E" stroke-width="0.228411" stroke-miterlimit="10"/>
<path d="M72.9377 78.3611H115.479" stroke="#0E0E0E" stroke-width="0.228411" stroke-miterlimit="10"/>
<path fill-rule="evenodd" clip-rule="evenodd" d="M97.4644 34.6407L95.4551 33.4507V39.3278L97.4644 38.065V34.6407ZM91.4737 34.8502L93.4737 36.1573V38.1061L91.4737 39.437V34.8502ZM95.4739 39.3421L93.4739 38.1062V44.6657L95.4739 43.3348V39.3421ZM97.4647 38.1151L99.474 39.2242V42.2865L97.4647 43.8056V38.1151ZM89.4739 38.2964L91.4739 39.4371V42.4317L89.4739 43.9052V38.2964Z" fill="black"/>
<path d="M137.336 53.7064L120.572 77.9911L118.257 86.0802L124.999 81.0484L141.764 56.7637C142.608 55.5405 142.3 53.8652 141.078 53.0212C139.856 52.1761 138.18 52.4833 137.336 53.7064Z" fill="#0E0E0E"/>
<path d="M101.706 88.2072C101.456 86.3628 102.845 84.4475 104.676 84.1141C104.954 84.0627 105.275 84.0558 105.485 84.2465C105.704 84.4441 105.721 84.7753 105.713 85.0688C105.665 87.08 105.219 89.0797 104.412 90.9218C105.081 89.1791 106.252 87.6316 107.747 86.5135C108.483 85.9619 109.563 85.5279 110.268 86.1172C110.717 86.4918 110.827 87.1508 111.244 87.5608C111.837 88.1444 112.874 88.005 113.523 87.4831C114.172 86.9623 114.526 86.1675 114.857 85.4034C115.155 86.276 116.079 86.8904 116.998 86.8276C117.918 86.7648 118.75 86.0304 118.926 85.1259" stroke="#0E0E0E" stroke-width="0.228411" stroke-miterlimit="10"/>
</g>
<defs>
<clipPath id="clip0_1646_4172">
<rect width="200" height="150" fill="white"/>
</clipPath>
</defs>
</svg>
