<svg width="152" height="152" viewBox="0 0 152 152" fill="none" xmlns="http://www.w3.org/2000/svg">
<circle cx="76" cy="76" r="75.5" stroke="#0E0E0E" stroke-dasharray="6 6"/>
<circle cx="76" cy="76" r="65" fill="#F0F0F0"/>
<path d="M50.72 101.5C50.72 98.82 52.98 96.92 56.16 96.92C59.34 96.92 61.34 98.68 61.34 101.48H58.12C58.12 100.44 57.34 99.8 56.12 99.8C54.8 99.8 53.96 100.4 53.96 101.38C53.96 102.28 54.42 102.72 55.46 102.94L57.68 103.4C60.32 103.94 61.58 105.2 61.58 107.54C61.58 110.4 59.34 112.26 55.94 112.26C52.64 112.26 50.5 110.48 50.5 107.7H53.72C53.72 108.78 54.52 109.38 55.96 109.38C57.42 109.38 58.34 108.8 58.34 107.86C58.34 107.04 57.96 106.62 56.98 106.42L54.72 105.96C52.08 105.42 50.72 103.92 50.72 101.5ZM77.4075 104.58C77.4075 109.1 74.4275 112.24 70.1275 112.24C65.8475 112.24 62.9075 109.12 62.9075 104.6C62.9075 100.08 65.8675 96.94 70.1475 96.94C74.4475 96.94 77.4075 100.06 77.4075 104.58ZM73.9875 104.58C73.9875 101.76 72.5475 100.06 70.1675 100.06C67.7675 100.06 66.3275 101.76 66.3275 104.58C66.3275 107.42 67.7675 109.12 70.1675 109.12C72.5475 109.12 73.9875 107.38 73.9875 104.58ZM82.805 112H79.665V97.2H82.805L87.205 108.24L91.625 97.2H94.805V112H91.665V108.9C91.665 105.7 91.665 105 91.825 103.9L88.685 112H85.725L82.605 103.9C82.785 105 82.805 106.24 82.805 107.86V112ZM101.128 97.2V112H97.8877V97.2H101.128Z" fill="#0E0E0E"/>
<path fill-rule="evenodd" clip-rule="evenodd" d="M91.3552 37.712L81.7103 32V60.2102L91.3552 54.1485V37.712ZM62.6 38.7178L72.2 44.992V54.3464L62.6 60.7347V75.1085L53 82.1813V55.259L62.6 60.7347V38.7178ZM81.8 60.2784L72.2 54.3464V85.8318L81.8 79.4434V60.2784ZM91.3552 54.3891L101 59.7131V74.4121L91.3552 81.7037V54.3891Z" fill="black"/>
</svg>
