<svg width="200" height="150" viewBox="0 0 200 150" fill="none" xmlns="http://www.w3.org/2000/svg">
<path d="M155.198 117.849C155.309 116.08 156.573 112.751 160.744 113.578C164.915 114.405 166.708 110.668 167.083 108.697" stroke="#0E0E0E" stroke-width="0.8" stroke-linecap="round"/>
<path d="M156.983 119.64C157.093 117.872 157.424 114.836 161.595 115.663C165.765 116.49 168.492 112.46 168.867 110.488" stroke="#0E0E0E" stroke-width="0.8" stroke-linecap="round"/>
<path d="M69.9488 141.634C68.3043 141.849 66.7904 140.686 66.5751 139.041L53.9518 42.6204C53.7361 40.973 54.8999 39.4578 56.5439 39.2426L142.791 27.9513C144.435 27.736 145.949 28.9005 146.165 30.548L158.788 126.969C159.003 128.613 157.84 130.127 156.195 130.342L69.9488 141.634Z" fill="white" stroke="#0E0E0E"/>
<path d="M110.993 54.9207L113.675 75.4009L87.4239 78.9508L84.8202 57.8201L95.97 43.6697L110.993 54.9207Z" fill="white" stroke="#0E0E0E"/>
<path d="M64.9723 60.9863C64.9575 60.8526 65.0502 60.7308 65.183 60.7096L84.9883 57.5453L87.4534 78.9999L67.2641 81.6431L64.9723 60.9863Z" fill="#0E0E0E" stroke="#0E0E0E"/>
<path d="M85.1331 57.5679L65.0923 60.558L72.705 47.0078C72.8375 46.9857 73.0252 46.9557 73.263 46.9184C73.7711 46.8388 74.5014 46.7272 75.394 46.5923C77.1788 46.3227 79.6091 45.9607 82.2004 45.5766C87.3828 44.8086 93.2077 43.9528 95.7973 43.5727C95.8186 43.5696 95.8269 43.5738 95.8299 43.5753C95.8356 43.5783 95.8445 43.5853 95.8519 43.5985C95.8594 43.6117 95.8622 43.6254 95.8617 43.6366C95.8613 43.6451 95.8589 43.6582 95.8445 43.6768L85.1331 57.5679Z" fill="white" stroke="#0E0E0E"/>
<path d="M76.5617 67.944L78.9892 67.6262L79.6482 72.6594L77.2206 72.9772L76.5617 67.944Z" fill="white" stroke="white"/>
<path d="M104.632 65.3708L106.075 76.3938L95.2742 77.8078L93.8311 66.7848C93.4407 63.8026 95.5436 61.0698 98.5267 60.6793C100.02 60.4837 101.447 60.9108 102.549 61.7613L102.551 61.7624C103.656 62.6086 104.437 63.881 104.632 65.3708Z" stroke="#0E0E0E"/>
<path d="M98.1255 57.6315C100.209 57.3587 101.677 55.4485 101.404 53.3649C101.131 51.2813 99.2213 49.8134 97.1377 50.0862C95.0541 50.3589 93.5861 52.2692 93.8589 54.3528C94.1317 56.4364 96.0419 57.9043 98.1255 57.6315Z" fill="#0E0E0E"/>
<path d="M96.2207 72.1642C96.5384 72.1226 96.7623 71.8313 96.7207 71.5136C96.6791 71.1959 96.3878 70.9721 96.0701 71.0137C95.7524 71.0553 95.5286 71.3465 95.5702 71.6642C95.6118 71.9819 95.903 72.2058 96.2207 72.1642Z" fill="#0E0E0E"/>
<path d="M72.1859 89.3607L144.047 79.9527L145.478 90.8827L73.6169 100.291L72.1859 89.3607Z" fill="white" stroke="#0E0E0E"/>
<path d="M86.6726 89.622L88.0474 91.6809L90.5228 91.716L88.9894 93.6593L89.7208 96.0245L87.3989 95.1665L85.3753 96.5934L85.4737 94.12L83.4916 92.6365L85.8746 91.9653L86.6726 89.622ZM97.5336 88.2001L98.9083 90.259L101.384 90.2941L99.8499 92.2375L100.582 94.6026L98.2599 93.7446L96.2363 95.1715L96.3346 92.6981L94.3521 91.2147L96.7355 90.5434L97.5336 88.2001ZM108.394 86.7782L109.769 88.8371L112.244 88.8722L110.711 90.8156L111.443 93.1807L109.12 92.3228L107.097 93.7496L107.195 91.2762L105.213 89.7928L107.596 89.1216L108.394 86.7782ZM119.255 85.3564L120.63 87.4152L123.105 87.4503L121.572 89.3937L122.304 91.7588L119.981 90.9009L117.958 92.3277L118.056 89.8543L116.074 88.3709L118.457 87.6997L119.255 85.3564ZM130.116 83.9345L131.491 85.9933L133.966 86.0284L132.432 87.9718L133.164 90.337L130.842 89.479L128.819 90.9059L128.917 88.4324L126.935 86.9489L129.318 86.2778L130.116 83.9345Z" fill="#0E0E0E"/>
<path d="M74.6469 108.159L87.4689 106.481L88.1707 111.841L75.3486 113.52L74.6469 108.159Z" fill="#0E0E0E" stroke="#0E0E0E"/>
<path d="M91.6114 117.629L96.986 116.925L97.0344 117.295L91.6598 117.999L91.6114 117.629ZM76.1517 119.653L87.8913 118.116L87.9397 118.486L76.2001 120.023L76.1517 119.653ZM103.924 116.017L107.9 115.497L107.948 115.866L103.973 116.387L103.924 116.017ZM76.7061 123.888L90.7544 122.048L90.8028 122.418L76.7545 124.257L76.7061 123.888ZM94.1945 121.598L108.314 119.75L108.362 120.119L94.2429 121.968L94.1945 121.598ZM112.034 119.262L116.569 118.669L116.618 119.038L112.082 119.632L112.034 119.262ZM77.2605 128.122L100.194 125.12L100.242 125.49L77.3089 128.492L77.2605 128.122ZM103.844 124.642L117.124 122.903L117.172 123.273L103.892 125.012L103.844 124.642ZM113.213 127.723L117.678 127.138L117.726 127.508L113.261 128.092L113.213 127.723ZM77.8149 132.357L85.9169 131.296L85.9653 131.666L77.8633 132.727L77.8149 132.357ZM89.567 130.818L93.8923 130.252L93.9407 130.622L89.6155 131.188L89.567 130.818ZM100.621 129.371L105.925 128.677L105.974 129.046L100.669 129.741L100.621 129.371Z" stroke="#0E0E0E"/>
<circle cx="30.109" cy="99.9103" r="9.45299" transform="rotate(165.981 30.109 99.9103)" fill="#0E0E0E"/>
<circle cx="30.1453" cy="102.532" r="8.95299" transform="rotate(165.981 30.1453 102.532)" fill="white" stroke="#0E0E0E"/>
<path fill-rule="evenodd" clip-rule="evenodd" d="M31.4525 107.741L33.657 106.97L29.1618 103.184L28.8333 105.535L31.4525 107.741ZM35.1512 103.023L32.8631 103.711L31.3725 102.456L31.6428 100.069L35.1512 103.023ZM29.1387 103.189L31.3723 102.456L26.3552 98.2304L26.0848 100.617L29.1387 103.189ZM28.7949 105.502L26.6521 106.325L24.3099 104.352L24.4423 101.837L28.7949 105.502ZM33.8037 99.2738L31.6428 100.069L29.3523 98.1397L29.5136 95.6607L33.8037 99.2738Z" fill="black"/>
<circle cx="169.528" cy="29.6617" r="11.9539" transform="rotate(133.082 169.528 29.6617)" fill="#0E0E0E"/>
<circle cx="171.367" cy="32.4203" r="11.4539" transform="rotate(133.082 171.367 32.4203)" fill="white" stroke="#0E0E0E"/>
<path fill-rule="evenodd" clip-rule="evenodd" d="M178.084 32.7703L178.354 30.1425L172.318 32.9292L174.568 34.3939L178.084 32.7703ZM175.029 26.7173L174.634 29.391L172.633 30.3151L170.318 28.8922L170.318 28.8924L167.243 30.3123L164.781 28.957L170.541 26.2975L170.318 28.8921L175.029 26.7173ZM172.312 32.9552L172.633 30.3153L165.897 33.4254L168.212 34.8483L172.312 32.9552ZM174.516 34.4179L174.33 37.0073L171.185 38.4593L168.672 37.1161L174.516 34.4179Z" fill="black"/>
<path d="M52.1516 123.407L52.8497 126.181L55.7102 126.152L52.9361 126.85L52.9657 129.71L52.2675 126.936L49.4071 126.966L52.1812 126.268L52.1516 123.407Z" fill="#0E0E0E"/>
<path d="M18.3236 43.3627L45.5972 18.2589C45.8126 18.0606 46.098 17.956 46.3906 17.9681C46.6832 17.9802 46.959 18.108 47.1573 18.3235L61.6357 34.0532C61.7339 34.1599 61.8101 34.2849 61.86 34.421C61.9099 34.5572 61.9325 34.7018 61.9265 34.8467C61.9205 34.9915 61.886 35.1338 61.825 35.2654C61.764 35.3969 61.6777 35.5152 61.571 35.6134L57.2033 39.6336L60.636 42.2012C60.7138 42.2594 60.772 42.3399 60.8028 42.4321C60.8336 42.5242 60.8356 42.6236 60.8084 42.7168C60.7813 42.8101 60.7263 42.8929 60.6508 42.9541C60.5754 43.0153 60.4831 43.0521 60.3862 43.0594L52.8614 43.6303L34.2976 60.7173C34.1909 60.8155 34.066 60.8918 33.9298 60.9417C33.7937 60.9916 33.649 61.0142 33.5042 61.0082C33.3593 61.0022 33.217 60.9677 33.0855 60.9067C32.9539 60.8457 32.8357 60.7594 32.7375 60.6527L18.259 44.9229C18.0607 44.7074 17.9561 44.422 17.9682 44.1294C17.9803 43.8368 18.1082 43.561 18.3236 43.3627Z" fill="#0E0E0E"/>
<path d="M60.9189 43.2024C60.7799 43.33 60.6017 43.4067 60.4134 43.42L53.0138 43.9814L34.5423 60.9834C34.2561 61.2463 33.8773 61.3849 33.489 61.3688C33.1007 61.3527 32.7346 61.1833 32.4711 60.8976L17.9927 45.1679C17.7298 44.8816 17.5912 44.5028 17.6073 44.1145C17.6234 43.7262 17.7928 43.3601 18.0785 43.0966L45.3522 17.9927C45.6384 17.7298 46.0172 17.5912 46.4055 17.6073C46.7938 17.6233 47.1599 17.7928 47.4234 18.0785L61.9018 33.8083C62.1647 34.0945 62.3033 34.4733 62.2872 34.8616C62.2711 35.2499 62.1017 35.616 61.816 35.8795L57.7686 39.6049L60.8529 41.9115C60.9515 41.9855 61.0327 42.0804 61.0906 42.1892C61.1486 42.2981 61.1819 42.4184 61.1882 42.5416C61.1945 42.6647 61.1737 42.7878 61.1272 42.902C61.0807 43.0163 61.0095 43.1186 60.9189 43.2024ZM18.5685 43.629C18.4239 43.7625 18.3381 43.9478 18.33 44.1444C18.3218 44.3411 18.392 44.5329 18.5251 44.6778L33.0035 60.4076C33.1369 60.5522 33.3223 60.638 33.5189 60.6461C33.7155 60.6543 33.9074 60.5841 34.0523 60.4511L52.6163 43.3639C52.6762 43.3089 52.7528 43.2755 52.8339 43.2693L60.3587 42.6983C60.3821 42.6966 60.4045 42.6877 60.4228 42.6729C60.4411 42.6581 60.4544 42.6381 60.461 42.6155C60.4676 42.593 60.4672 42.5689 60.4598 42.5466C60.4523 42.5243 60.4383 42.5048 60.4194 42.4907L56.9865 39.9229C56.944 39.8911 56.909 39.8503 56.884 39.8034C56.859 39.7565 56.8446 39.7047 56.8419 39.6516C56.8392 39.5986 56.8482 39.5456 56.8683 39.4964C56.8884 39.4472 56.9191 39.403 56.9582 39.3671L61.3261 35.3467C61.4707 35.2132 61.5565 35.0278 61.5646 34.8312C61.5728 34.6346 61.5026 34.4428 61.3695 34.2978L46.8913 18.5683C46.7578 18.4236 46.5725 18.3378 46.3759 18.3297C46.1792 18.3215 45.9874 18.3917 45.8425 18.5248L18.5685 43.629Z" fill="#0E0E0E"/>
<path d="M36.4597 39.906C35.9885 40.3266 35.4031 40.5981 34.7776 40.6861C34.1521 40.7741 33.5146 40.6747 32.9456 40.4003C32.3767 40.126 31.9018 39.6891 31.5812 39.1448C31.2605 38.6006 31.1084 37.9736 31.1442 37.3429C31.1799 36.7123 31.4019 36.1064 31.782 35.6019C32.162 35.0974 32.6832 34.7169 33.2795 34.5086C33.8758 34.3003 34.5205 34.2735 35.1321 34.4316C35.7436 34.5897 36.2946 34.9256 36.7152 35.3968C37.2783 36.0291 37.5677 36.8589 37.5198 37.7042C37.4719 38.5496 37.0906 39.3414 36.4597 39.906ZM33.0539 36.091C32.7706 36.3439 32.5686 36.6752 32.4736 37.043C32.3785 37.4107 32.3946 37.7983 32.5199 38.1569C32.6452 38.5155 32.8739 38.8288 33.1773 39.0574C33.4807 39.2859 33.845 39.4194 34.2242 39.4409C34.6034 39.4624 34.9805 39.3709 35.3077 39.1781C35.6349 38.9853 35.8977 38.6998 36.0626 38.3577C36.2276 38.0156 36.2874 37.6322 36.2345 37.2561C36.1816 36.88 36.0184 36.528 35.7655 36.2447C35.426 35.8652 34.9498 35.6359 34.4415 35.6071C33.9331 35.5783 33.4341 35.7523 33.0539 36.091ZM47.0583 43.5965C46.5871 44.0172 46.0017 44.2887 45.3763 44.3766C44.7508 44.4646 44.1132 44.3651 43.5443 44.0908C42.9753 43.8164 42.5005 43.3795 42.1799 42.8353C41.8592 42.2911 41.7071 41.664 41.7429 41.0334C41.7786 40.4028 42.0006 39.7969 42.3806 39.2924C42.7607 38.7879 43.2819 38.4074 43.8782 38.1991C44.4745 37.9908 45.1192 37.964 45.7307 38.1221C46.3423 38.2801 46.8932 38.616 47.3138 39.0872C47.877 39.7195 48.1664 40.5493 48.1185 41.3947C48.0706 42.2401 47.6893 43.0319 47.0583 43.5965ZM43.6525 39.7815C43.3691 40.0344 43.1672 40.3657 43.0721 40.7334C42.9771 41.1012 42.9932 41.4888 43.1185 41.8474C43.2437 42.206 43.4725 42.5193 43.7759 42.7479C44.0792 42.9764 44.4436 43.1099 44.8228 43.1314C45.202 43.1528 45.579 43.0614 45.9063 42.8686C46.2335 42.6758 46.4962 42.3903 46.6612 42.0482C46.8262 41.7061 46.886 41.3227 46.8331 40.9466C46.7802 40.5705 46.617 40.2185 46.364 39.9351C46.0245 39.5557 45.5484 39.3264 45.04 39.2975C44.5317 39.2687 44.0327 39.4428 43.6525 39.7815ZM41.2718 48.1244C41.1851 48.2016 41.079 48.2537 40.965 48.2749C40.8509 48.2962 40.7332 48.2859 40.6245 48.2451C40.5159 48.2043 40.4204 48.1346 40.3485 48.0435C40.2766 47.9524 40.231 47.8434 40.2166 47.7283L38.1262 31.0483C38.1152 30.9651 38.1208 30.8805 38.1426 30.7995C38.1645 30.7184 38.2021 30.6425 38.2534 30.576C38.3047 30.5096 38.3687 30.4539 38.4416 30.4123C38.5145 30.3707 38.5949 30.3438 38.6782 30.3334C38.7615 30.323 38.846 30.3291 38.9269 30.3515C39.0078 30.3738 39.0835 30.412 39.1497 30.4637C39.2158 30.5154 39.271 30.5797 39.3122 30.6529C39.3533 30.7261 39.3796 30.8066 39.3895 30.89L41.4799 47.57C41.4928 47.6723 41.4806 47.7763 41.4443 47.8729C41.4081 47.9695 41.3488 48.0558 41.2718 48.1244Z" fill="white"/>
</svg>
