<svg width="46" height="46" viewBox="0 0 46 46" fill="none" xmlns="http://www.w3.org/2000/svg">
<path opacity="0.1" fill-rule="evenodd" clip-rule="evenodd" d="M23 45C35.1503 45 45 35.1503 45 23C45 10.8497 35.1503 1 23 1C10.8497 1 1 10.8497 1 23C1 35.1503 10.8497 45 23 45Z" stroke="white" stroke-width="1.71429"/>
<g clip-path="url(#clip0_1646_4780)">
<path d="M12.3886 22.6074L17.4578 24.4994L19.4199 30.8096C19.5455 31.2137 20.0397 31.3631 20.3677 31.0949L23.1934 28.7914C23.4896 28.55 23.9115 28.538 24.221 28.7627L29.3175 32.4629C29.6684 32.7179 30.1655 32.5256 30.2535 32.1016L33.987 14.1429C34.0831 13.6798 33.628 13.2934 33.1869 13.464L12.3826 21.4896C11.8692 21.6876 11.8737 22.4145 12.3886 22.6074ZM19.1037 23.4923L29.0109 17.3904C29.189 17.2811 29.3721 17.5219 29.2192 17.6637L21.0429 25.2639C20.7556 25.5315 20.5702 25.8895 20.5177 26.2781L20.2391 28.3421C20.2023 28.6177 19.8151 28.6451 19.7391 28.3783L18.6679 24.6145C18.5452 24.1852 18.724 23.7267 19.1037 23.4923Z" fill="white"/>
</g>
<defs>
<clipPath id="clip0_1646_4780">
<rect width="22" height="22" fill="white" transform="translate(12 12)"/>
</clipPath>
</defs>
</svg>
