<svg width="20" height="20" viewBox="0 0 20 20" fill="none" xmlns="http://www.w3.org/2000/svg">
<g clip-path="url(#clip0_1646_14697)">
<path d="M19.6084 1.63879C19.2866 1.34399 18.8293 1.24575 18.4148 1.38235L0.829345 7.17926C0.350087 7.33723 0.025087 7.76504 0.00137607 8.26907C-0.0222958 8.77313 0.261103 9.22957 0.723368 9.43188L5.07239 11.3347C5.0936 11.4331 6.34208 17.2236 6.38454 17.4204C6.43903 17.6732 6.56735 17.8984 6.83919 17.9677C7.11415 18.0377 7.30841 17.8875 7.51356 17.7339C7.62774 17.6484 10.7409 15.3173 10.7409 15.3173L14.5139 18.4047C14.7337 18.5847 15.0023 18.6785 15.2761 18.6785C15.4065 18.6784 15.5382 18.6572 15.6662 18.6138C16.0633 18.4791 16.3577 18.155 16.4537 17.7468L19.968 2.80536C20.0679 2.38055 19.9301 1.9336 19.6084 1.63879ZM7.7947 12.425C7.79255 12.4301 7.79044 12.4359 7.78845 12.4427L7.06095 14.9845L6.24907 11.219L11.8318 8.11727L7.9286 12.1984C7.86712 12.2627 7.82189 12.3405 7.7947 12.425ZM8.0256 15.8831L8.35603 14.7286L8.67208 13.6243L9.80454 14.551L8.0256 15.8831ZM18.8245 2.53637L15.3103 17.4779C15.3085 17.4853 15.3062 17.4955 15.289 17.5013C15.272 17.5071 15.2637 17.5005 15.2578 17.4957L11.1293 14.1172C11.1291 14.1172 11.1291 14.117 11.129 14.117L9.2161 12.5516L15.3615 6.12594C15.5622 5.91606 15.5794 5.59102 15.402 5.36114C15.2244 5.13121 14.9056 5.06555 14.6518 5.20664L5.55216 10.2625L1.19423 8.35571C1.18095 8.34993 1.17364 8.34668 1.1747 8.32422C1.17575 8.30184 1.18333 8.2993 1.19708 8.29477L18.7825 2.49789C18.7911 2.49512 18.8007 2.49192 18.8148 2.50481C18.829 2.51778 18.8266 2.52762 18.8245 2.53637Z" fill="white" fill-opacity="0.7"/>
</g>
<defs>
<clipPath id="clip0_1646_14697">
<rect width="20" height="20" fill="white"/>
</clipPath>
</defs>
</svg>
