<svg width="40" height="40" viewBox="0 0 40 40" fill="none" xmlns="http://www.w3.org/2000/svg">
<path d="M29.5856 11.7499C29.1856 11.6833 28.769 11.6666 28.3356 11.6666H11.669C11.2023 11.6666 10.7523 11.6999 10.319 11.7666C10.5523 11.2999 10.8856 10.8667 11.2856 10.4667L16.7023 5.03331C18.9856 2.76665 22.6856 2.76665 24.969 5.03331L27.8856 7.98324C28.9523 9.03324 29.519 10.3666 29.5856 11.7499Z" stroke="#0E0E0E" stroke-width="2.5" stroke-linecap="round" stroke-linejoin="round"/>
<path d="M15 31.6667C15 32.9167 14.65 34.1 14.0333 35.1C12.8833 37.0333 10.7666 38.3333 8.33329 38.3333C5.89996 38.3333 3.78329 37.0333 2.63329 35.1C2.01663 34.1 1.66663 32.9167 1.66663 31.6667C1.66663 27.9833 4.64996 25 8.33329 25C12.0166 25 15 27.9833 15 31.6667Z" stroke="#0E0E0E" stroke-width="2.5" stroke-miterlimit="10" stroke-linecap="round" stroke-linejoin="round"/>
<path d="M10.8196 31.6325H5.85291" stroke="#0E0E0E" stroke-width="2.5" stroke-miterlimit="10" stroke-linecap="round" stroke-linejoin="round"/>
<path d="M8.33337 29.1992V34.1825" stroke="#0E0E0E" stroke-width="2.5" stroke-miterlimit="10" stroke-linecap="round" stroke-linejoin="round"/>
<path d="M36.6667 20V28.3334C36.6667 33.3334 33.3334 36.6667 28.3334 36.6667H12.7167C13.2334 36.2334 13.6834 35.7 14.0334 35.1C14.65 34.1 15 32.9167 15 31.6667C15 27.9834 12.0167 25 8.33337 25C6.33337 25 4.55004 25.8833 3.33337 27.2667V20C3.33337 15.4667 6.06671 12.3 10.3167 11.7667C10.75 11.7 11.2 11.6667 11.6667 11.6667H28.3334C28.7667 11.6667 29.1834 11.6833 29.5834 11.75C33.8834 12.25 36.6667 15.4334 36.6667 20Z" stroke="#0E0E0E" stroke-width="2.5" stroke-linecap="round" stroke-linejoin="round"/>
<path d="M36.6667 20.8333H31.6667C29.8334 20.8333 28.3334 22.3333 28.3334 24.1666C28.3334 26 29.8334 27.5 31.6667 27.5H36.6667" stroke="#0E0E0E" stroke-width="2.5" stroke-linecap="round" stroke-linejoin="round"/>
</svg>
